<svg xmlns="http://www.w3.org/2000/svg" version="1.1" xmlns:xlink="http://www.w3.org/1999/xlink" xmlns:svgjs="http://svgjs.com/svgjs" width="512" height="512" x="0" y="0" viewBox="0 0 64 64" style="enable-background:new 0 0 512 512" xml:space="preserve" class=""><g><path d="M62.923 58.615 55.05 39.72a9.25 9.25 0 0 0-8.034-5.679 7.9 7.9 0 0 1 10.892.282l3.385 3.384a1 1 0 0 0 1.665-.994l-.443-1.479A12.88 12.88 0 0 0 50.1 26a13.013 13.013 0 0 0-7.747 2.581 103.245 103.245 0 0 1 8.513-13.407 5.437 5.437 0 0 1 7.145-1.4l3.471 2.083a1 1 0 0 0 1.434-1.251l-.816-1.919a9.383 9.383 0 0 0-15.262-2.939 41.042 41.042 0 0 0-8.815 13.084l-2.455 5.8A63.409 63.409 0 0 1 46.807 2.591 1 1 0 0 0 46 1a17.139 17.139 0 0 0-14.619 8.1 35.34 35.34 0 0 0-5.26 15.958 19.573 19.573 0 0 1 .215-5.785l2.147-11.591a1 1 0 0 0-1.69-.889A23.038 23.038 0 0 0 20 23.192v.108a23.254 23.254 0 0 0 .27 3.527l.344 2.239-9.671-27.4A1 1 0 0 0 9 1.95l-.22 4.4a40.847 40.847 0 0 0 4.232 20.283L2.394 22.081A1 1 0 0 0 1.2 23.6l5.736 7.648a32.582 32.582 0 0 0 8.082 7.6 1.528 1.528 0 0 0-.018.211c0 .648.024 1.3.057 1.944H12a1 1 0 0 0-1 1V52a11.013 11.013 0 0 0 11 11h20a11.013 11.013 0 0 0 11-11v-4.113l8.181 11.686a1 1 0 0 0 1.742-.958ZM43.376 30.308A11.009 11.009 0 0 1 50.1 28a10.886 10.886 0 0 1 9.012 4.707 9.929 9.929 0 0 0-15.531 2.468L40.406 41h-3.867l2.59-5.827q.544-1.225 1.124-2.436Zm-.153 9.706a8.591 8.591 0 0 1 3.8.986h-4.338Zm-3.358-16.4a39.066 39.066 0 0 1 8.387-12.449 7.384 7.384 0 0 1 11.486 1.315l-.7-.417a7.434 7.434 0 0 0-9.773 1.914A105.233 105.233 0 0 0 37.3 34.361L34.35 41h-.059l.361-5.065Zm-6.789-13.451a15.142 15.142 0 0 1 10.9-7.03 65.389 65.389 0 0 0-11.296 32.35L32.287 41h-.61L28 31.807v-3.941a33.381 33.381 0 0 1 5.076-17.703ZM22 23.192a21.039 21.039 0 0 1 3.829-12.159l-1.46 7.88a22.112 22.112 0 0 0 1.211 12.231L29.523 41h-.937a31.45 31.45 0 0 0-5.222-7.212l-1.118-7.263A21.287 21.287 0 0 1 22 23.3Zm.788 15.008a39.153 39.153 0 0 0-3.631 13.273A37.259 37.259 0 0 1 17 39.172a3.407 3.407 0 0 1 5.578-1.18Zm2.015.442q.8 1.139 1.5 2.355h-2.55c.325-.797.67-1.581 1.047-2.352Zm-6.032-8.788a30.546 30.546 0 0 0-2.636-1.667 38.861 38.861 0 0 1-5.384-21.055Zm-10.236.191-3.491-4.652 7.286 3.122a29.519 29.519 0 0 1 9.785 6.854A5.44 5.44 0 0 0 20.162 35a5.372 5.372 0 0 0-4.221 2.055 30.612 30.612 0 0 1-7.406-7.007ZM51 52a9.01 9.01 0 0 1-9 9H22a9.01 9.01 0 0 1-9-9v-9h2.215a39.117 39.117 0 0 0 3.89 13.447A1 1 0 0 0 21 56v-1.056A37.057 37.057 0 0 1 23 43h26.516c.185.215.367.434.532.669L51 45.03Zm.687-9.477a10.612 10.612 0 0 0-7.408-4.445l1.061-1.945c.007-.014.017-.025.024-.039a7.211 7.211 0 0 1 7.84 4.4l4.324 10.378Z" fill="#000000" data-original="#000000" class=""></path></g></svg>