<svg xmlns="http://www.w3.org/2000/svg" version="1.1" xmlns:xlink="http://www.w3.org/1999/xlink" xmlns:svgjs="http://svgjs.com/svgjs" width="512" height="512" x="0" y="0" viewBox="0 0 1000 1000" style="enable-background:new 0 0 512 512" xml:space="preserve" class=""><g><path d="M618.34 916H381.66c-34.51 0-64.08-15.09-73.58-37.56L231.71 698a16 16 0 1 1 29.47-12.47L337.55 866c3.75 8.87 21.27 18 44.11 18h236.68c22.84 0 40.36-9.16 44.11-18l76.37-180.45A16 16 0 0 1 768.29 698l-76.37 180.45c-9.5 22.46-39.07 37.55-73.58 37.55zM526.06 659c-41.91 0-101.27-.34-121-1.48a16 16 0 0 1 .77-32h1c29.58 1.73 156.68 1.43 161.68 1.23 14.24-.59 28.67-1.4 42.92-2.42h.23l14.12-1.12 5.92-.47c47.08-4.12 88-10.42 118.47-18.22 32.25-8.27 43.33-15.79 46.83-19-4.57-4.2-22-15.78-82.26-26.57a16 16 0 0 1 5.65-31.5c31.41 5.63 56.34 12.35 74.11 20 8.82 3.78 35.66 15.3 35.66 38.1a28.59 28.59 0 0 1-4.37 15c-5.46 9-18.41 22.32-67.67 35-32.09 8.23-74.84 14.83-123.63 19.1h-.15l-6 .48-14.54 1.16h-.37c-14.47 1-29.13 1.85-43.57 2.45-2.86.19-20.7.26-43.8.26z" fill="#000000" data-original="#000000" class=""></path><path d="M375.79 655.48a15.76 15.76 0 0 1-1.68-.09c-23.34-1.88-45.47-4.29-65.78-7.17-34.58-4.88-63.28-11-85.29-18.05-26-8.38-41.45-17.68-48.68-29.27l-.2-.32a28.59 28.59 0 0 1-4.34-14.9v-.11c0-22 24.91-33.27 33.1-37 16.32-7.38 39.31-14 68.31-19.55a16 16 0 0 1 6.06 31.42c-53.8 10.38-69.92 21.09-74.3 25.1 2.82 2.57 10.48 7.89 29.86 14.14 20 6.44 47.65 12.26 80 16.83 19.69 2.79 41.19 5.13 63.92 7h.13l.61.06a16 16 0 0 1-1.69 31.91z" fill="#000000" data-original="#000000" class=""></path><path d="M500 737.36c-89.25 0-172.91-8-229.52-21.87-45.7-11.22-69.6-25.06-75.2-43.54a16 16 0 0 1 30.57-9.48c.52.86 7.58 11 52.26 21.94 54.22 13.31 135.1 21 221.89 21s167.67-7.64 221.89-21c44.68-11 51.74-21.08 52.26-21.94a16 16 0 0 1 30.57 9.53c-5.6 18.48-29.5 32.32-75.2 43.54-56.61 13.85-140.27 21.82-229.52 21.82z" fill="#000000" data-original="#000000" class=""></path><path d="M789.41 683.31a16 16 0 0 1-15.32-20.65l24.78-81.73a16 16 0 0 1 30.63 9.28L804.72 672a16 16 0 0 1-15.31 11.31zM210.59 683.31A16 16 0 0 1 195.28 672l-24.78-81.79a16 16 0 0 1 30.63-9.28l24.78 81.73a16 16 0 0 1-15.32 20.65zM362.66 403a16 16 0 0 1-16-15.58c-2.15-83.08 27.54-221.76 28.81-227.62a16 16 0 0 1 31-1c25 88.13 52.4 147.64 85.59 216.28A16 16 0 1 1 463.3 389c-25.66-53-47.92-100.77-68.38-160.17-8.19 47.59-17.43 112.48-16.26 157.74A16 16 0 0 1 363.08 403zM569.18 658.83A16 16 0 0 1 555.27 635l18.85-33.39 33-58.41c3.83-7 7.56-13.94 11.07-20.63 58.3-110.88 71.15-174.22 71.65-207.82.06-3.51 0-6.73-.21-9.68-22.31 41.28-59.63 106.01-98.88 154.68l-.27.36c-20.07 24.85-165.21 184-172.87 192.3a16 16 0 1 1-23.53-21.68c12.88-14 151.69-166.37 171.24-190.41l.26-.33c50.92-63.06 99.11-155.43 112.67-182.24a16 16 0 0 1 24.35-5.22c3.32 2.7 19.89 18.38 19.22 62.66-.82 53.95-26.16 128.72-75.32 222.23-3.61 6.87-7.44 14-11.37 21.18-.74 1.43-1.75 3.22-3.12 5.64l-48.83 86.48a16 16 0 0 1-14 8.11z" fill="#000000" data-original="#000000" class=""></path><path d="M405.86 657.57c-.41 0-.83 0-1.25-.05a16 16 0 0 1-14.72-17.19c.09-1.12.36-4.54 5.28-23.7 8.45-32.81 26.81-99.26 40.93-148.13l9.85-34c7.21-24.9 13.44-46.41 16.35-56.75 37.76-137 77-280.5 77.37-281.94a16 16 0 0 1 31 .65c35.41 154.59 26 317.65 23.69 349.62 6.45 9.47 25.89 33.28 55.3 28a16 16 0 0 1 5.67 31.5c-24.54 4.41-48.25-2.61-68.57-20.32a110.28 110.28 0 0 1-22.76-27.5 16.07 16.07 0 0 1-2-7.71c0-.45 0-.92.06-1.37.15-1.86 3.88-46.12 2.95-111.14-.62-43.85-3.56-103.62-12.87-166.19-15 54.86-37.27 136-59 215-3 10.54-8.91 31.08-16.44 57.07-3.11 10.71-6.43 22.21-9.85 34-14 48.63-32.3 114.67-40.68 147.22-2.77 10.79-4.15 17-4.4 18.61a16 16 0 0 1-15.91 14.32zm15.94-14.76v.27q-.01-.15 0-.27z" fill="#000000" data-original="#000000" class=""></path><path d="M508 503.89c-36.16 0-63.3-16.3-64.94-17.31a15.6 15.6 0 0 1-2.85-2.23c-60-55.72-103.66-101.56-133.39-135 9.74 29.77 21.88 65 35.46 102.13a16 16 0 0 1-30.05 11c-26.35-72-51.21-148-59.11-180.79a16 16 0 0 1 28.59-13c.52.72 53.64 74.55 179.27 191.29a104.54 104.54 0 0 0 27.25 9.76c21.59 4.53 41.75 1.8 59.9-8.11a16 16 0 1 1 15.34 28.08A114.43 114.43 0 0 1 508 503.89z" fill="#000000" data-original="#000000" class=""></path><path d="M405.85 657.57a16 16 0 0 1-14.1-8.42c-24.71-43-55.67-121.92-77.88-182.32l-47-36.41c7 49.83 23.44 138.27 57.32 193.61a16 16 0 1 1-27.29 16.71c-53-86.62-65.79-238.6-66.31-245a16 16 0 0 1 25.75-13.93l80.74 62.55c.31.24.61.5.9.76a16 16 0 0 1 4.33 6.4c31 84.69 58.49 149.35 77.37 182.07a16 16 0 0 1-13.85 24zM612.62 656.37a16 16 0 0 1 0-32 16 16 0 0 1 0 32z" fill="#000000" data-original="#000000" class=""></path><path d="M637.77 654.32a16 16 0 0 1-10.06-28.45c.43-.36 44.08-36 76-90.7a259.86 259.86 0 0 0 26-59.77c-5.75 5.57-11.89 11.43-18.19 17.29-48.9 45.5-66.81 53.47-77.61 53.47a23.42 23.42 0 0 1-4.25-.4 16 16 0 0 1 2.67-31.76h.78c3.14-1.1 17.5-7.89 60.81-48.63 25.36-23.86 47.73-47.23 48-47.46a16 16 0 0 1 27.55 11.71c-1.66 40.4-14.46 81.35-38 121.7-35 60-81.62 97.87-83.58 99.45a15.92 15.92 0 0 1-10.12 3.55zM405.9 657.57h-1.17l-30.4-2.12a16 16 0 0 1 2.22-31.92l30.28 2.11a16 16 0 0 1-.93 32zM591.37 610c-51 0-109.44-45.58-112-47.61a16 16 0 0 1 19.8-25.13c15.59 12.25 63.29 43.41 96.37 40.57a16 16 0 1 1 2.76 31.88q-3.44.29-6.93.29zM340.83 509.29a16 16 0 0 1-3-31.72c26.47-5.12 42.56-43.79 46.52-58.26a16 16 0 0 1 30.89 8.36c-.78 2.91-19.8 71.35-71.33 81.32a15.92 15.92 0 0 1-3.08.3zM538.93 362.64a171.21 171.21 0 0 1-54.8-9.29 16 16 0 0 1 11.18-30c.45.16 44.41 16.05 79.18.4A16 16 0 0 1 587.62 353c-16.17 7.23-33.21 9.64-48.69 9.64zM402.07 370.88c-2.77 0-5.57-.11-8.42-.33a118.41 118.41 0 0 1-37.85-9.39 16 16 0 0 1 13.47-29c2 .89 45.6 20.25 72.81-10.5a16 16 0 1 1 24 21.21c-16.35 18.41-38.35 28.01-64.01 28.01z" fill="#000000" data-original="#000000" class=""></path></g></svg>