<svg xmlns="http://www.w3.org/2000/svg" version="1.1" xmlns:xlink="http://www.w3.org/1999/xlink" xmlns:svgjs="http://svgjs.com/svgjs" width="512" height="512" x="0" y="0" viewBox="0 0 60 60" style="enable-background:new 0 0 512 512" xml:space="preserve" class=""><g><path d="M54.686 14.168a2.156 2.156 0 0 0-2.5.615 22.112 22.112 0 0 1-2.279 2.367 37.1 37.1 0 0 0-.44-3.754 1.662 1.662 0 0 0-1.2-1.337 1.607 1.607 0 0 0-1.66.515c-.169.2-.383.439-.624.7a44.375 44.375 0 0 0-.349-6.729 1.738 1.738 0 0 0-1.388-1.508 1.77 1.77 0 0 0-1.905.842 10.864 10.864 0 0 1-1.887 2.31 24.476 24.476 0 0 0-2.4-7.133 2 2 0 0 0-2.182-1.01A2.026 2.026 0 0 0 34.284 1.9a43.517 43.517 0 0 1-.487 4.113A24.873 24.873 0 0 0 31.657 1 1.964 1.964 0 0 0 30 0a2.056 2.056 0 0 0-1.742.945 19.454 19.454 0 0 0-2.1 4.745 44.68 44.68 0 0 1-.433-3.8A2.026 2.026 0 0 0 24.128.046a2 2 0 0 0-2.185 1.013 24.494 24.494 0 0 0-2.4 7.134 10.871 10.871 0 0 1-1.887-2.311 1.764 1.764 0 0 0-1.905-.841 1.738 1.738 0 0 0-1.388 1.5 44.435 44.435 0 0 0-.349 6.731c-.227-.25-.437-.487-.621-.7a1.6 1.6 0 0 0-1.66-.515 1.662 1.662 0 0 0-1.2 1.337 36.831 36.831 0 0 0-.44 3.756 22.064 22.064 0 0 1-2.282-2.369 2.156 2.156 0 0 0-2.5-.615 2.09 2.09 0 0 0-1.3 2.169c.64 6.635 2.39 14.9 6.979 18.54a2.981 2.981 0 0 0-.894 1.876c-.064.743-.1 1.5-.1 2.247a26.533 26.533 0 0 0 .925 6.936.977.977 0 0 0 .079.288 22.283 22.283 0 0 0 9.553 13.105 4.809 4.809 0 0 0 2.509.673h13.875a4.8 4.8 0 0 0 2.506-.672C45.955 55.358 50 47.569 50 39c0-.748-.032-1.5-.1-2.246a2.983 2.983 0 0 0-.894-1.877c4.589-3.645 6.339-11.9 6.979-18.538a2.091 2.091 0 0 0-1.299-2.171ZM43.727 7.433a39.9 39.9 0 0 1 .124 7.972 26.2 26.2 0 0 1-2.641 2.129 48.192 48.192 0 0 0-.391-7.033 13.8 13.8 0 0 0 2.908-3.068Zm3.884 7.031A37.88 37.88 0 0 1 48 19.948 17.135 17.135 0 0 1 41.621 34h-10.6c.231-7.977 3.218-10.888 7.935-12.9a26.591 26.591 0 0 0 8.655-6.636Zm-13.474-2.689c1.38-2.634 1.925-6.746 2.168-9.752a24.876 24.876 0 0 1 2.467 8.182 45.609 45.609 0 0 1 .392 8.571c-.328.17-.654.345-.99.488-3.067 1.3-5.561 3-7.171 5.931.022-5.148.275-7.986 3.134-13.42ZM29.924 2a23.892 23.892 0 0 1 2.769 8.123c-.1.25-.209.5-.327.724A30.947 30.947 0 0 0 30 16.46a30.822 30.822 0 0 0-2.365-5.612 9.166 9.166 0 0 1-.366-.809A20.543 20.543 0 0 1 29.924 2Zm-8.7 8.208a23.94 23.94 0 0 1 2.494-8.163c.215 2.985.761 7.1 2.142 9.733 2.857 5.431 3.11 8.268 3.133 13.413-1.61-2.931-4.1-4.621-7.167-5.926-.338-.144-.665-.316-.994-.486a45.6 45.6 0 0 1 .396-8.572Zm-4.951-2.775a13.818 13.818 0 0 0 2.908 3.067 48.086 48.086 0 0 0-.391 7.036 25.726 25.726 0 0 1-2.641-2.124 39.983 39.983 0 0 1 .124-7.979Zm-3.881 7.031a26.626 26.626 0 0 0 8.655 6.64c4.717 2.008 7.7 4.92 7.933 12.9h-10.6A17.135 17.135 0 0 1 12 19.948a37.868 37.868 0 0 1 .392-5.484ZM6 16.144c0-.04-.009-.091.083-.13a.148.148 0 0 1 .191.045A23.362 23.362 0 0 0 10 19.674v.274A18.824 18.824 0 0 0 15.46 34h-2.191C8.194 31.29 6.536 21.681 6 16.144ZM38.4 57.62a2.8 2.8 0 0 1-1.465.38H23.062a2.811 2.811 0 0 1-1.464-.379 19.718 19.718 0 0 1-7.844-9.53l1.365.818a3 3 0 0 0 3.085 0l4.612-2.762a1 1 0 0 1 1.03 0l4.6 2.759a2.985 2.985 0 0 0 3.09 0l4.613-2.762a1 1 0 0 1 1.031 0l4.606 2.758a3 3 0 0 0 3.092 0l1.375-.826A19.724 19.724 0 0 1 38.4 57.62Zm8.811-12.45-3.362 2.019a1 1 0 0 1-1.038 0L38.2 44.43a3 3 0 0 0-3.084 0L30.5 47.193a1 1 0 0 1-1.028 0L24.87 44.43a3 3 0 0 0-3.084 0l-4.611 2.761a1.006 1.006 0 0 1-1.031 0l-3.353-2.009a24.025 24.025 0 0 1-.585-3.025l2.913 1.751a3 3 0 0 0 3.085 0l4.612-2.762a1 1 0 0 1 1.03 0l4.6 2.759a2.985 2.985 0 0 0 3.09 0l4.613-2.762a1 1 0 0 1 1.031 0l4.606 2.758a3 3 0 0 0 3.092 0l2.92-1.752a24.26 24.26 0 0 1-.585 3.021Zm.766-5.458-4.128 2.477a1 1 0 0 1-1.038 0L38.2 39.43a3 3 0 0 0-3.084 0L30.5 42.193a1 1 0 0 1-1.028 0L24.87 39.43a3 3 0 0 0-3.084 0l-4.611 2.761a1 1 0 0 1-1.029 0l-4.125-2.48C12.014 39.475 12 39.239 12 39c0-.691.029-1.39.088-2.078A1.014 1.014 0 0 1 13.094 36h33.812a1.014 1.014 0 0 1 1.006.923c.059.687.088 1.386.088 2.077 0 .239-.014.475-.021.712ZM46.731 34h-2.188A18.824 18.824 0 0 0 50 19.948v-.276a23.373 23.373 0 0 0 3.726-3.613.149.149 0 0 1 .191-.045c.092.039.087.09.083.132-.536 5.535-2.194 15.144-7.269 17.854Z" fill="#000000" data-original="#000000" class=""></path></g></svg>