<svg xmlns="http://www.w3.org/2000/svg" version="1.1" xmlns:xlink="http://www.w3.org/1999/xlink" xmlns:svgjs="http://svgjs.com/svgjs" width="512" height="512" x="0" y="0" viewBox="0 0 64 64" style="enable-background:new 0 0 512 512" xml:space="preserve" class=""><g><path d="M48.521 17.391a12.106 12.106 0 0 0-6.911-2.359 12.023 12.023 0 0 0 3.21-6.576l.191-1.335a1 1 0 0 0-1.131-1.132l-1.335.191a12.02 12.02 0 0 0-6.556 3.191 12.026 12.026 0 0 0-2.38-6.892L32.8 1.4a1.036 1.036 0 0 0-1.6 0l-.809 1.079a12.017 12.017 0 0 0-2.379 6.892 12.03 12.03 0 0 0-6.557-3.191l-1.335-.191a1 1 0 0 0-1.131 1.132l.191 1.335a12.03 12.03 0 0 0 3.21 6.577 12.107 12.107 0 0 0-6.911 2.358L14.4 18.2a1 1 0 0 0 0 1.6l1.079.809a12.022 12.022 0 0 0 6.892 2.379 12.027 12.027 0 0 0-3.191 6.556l-.191 1.335a1 1 0 0 0 .99 1.142.955.955 0 0 0 .141-.01l1.335-.191a12.02 12.02 0 0 0 6.556-3.191 12.026 12.026 0 0 0 2.38 6.892l.609.812v.778A6.973 6.973 0 0 0 26 35h-4a1 1 0 0 0-1 1 7.008 7.008 0 0 0 7 7h3v2h-9a3 3 0 0 0-3 3v1.127a20.021 20.021 0 0 0 4.632 12.793 2.992 2.992 0 0 0 2.3 1.08h12.131a2.994 2.994 0 0 0 2.3-1.079A20.025 20.025 0 0 0 45 49.127V48a3 3 0 0 0-3-3h-9v-2h3a7.008 7.008 0 0 0 7-7 1 1 0 0 0-1-1h-4a6.973 6.973 0 0 0-5 2.111v-.778l.609-.812a12.017 12.017 0 0 0 2.379-6.892 12.03 12.03 0 0 0 6.557 3.191l1.335.191a.955.955 0 0 0 .141.01 1 1 0 0 0 .99-1.142l-.191-1.335a12.027 12.027 0 0 0-3.191-6.556 12.02 12.02 0 0 0 6.892-2.379L49.6 19.8a1 1 0 0 0 0-1.6ZM28 41a5.008 5.008 0 0 1-4.9-4H26a5.008 5.008 0 0 1 4.9 4Zm10.063 20H25.937a1 1 0 0 1-.769-.36 17.8 17.8 0 0 1-1.2-1.64H40.03a17.835 17.835 0 0 1-1.2 1.641 1 1 0 0 1-.767.359ZM43 48v1.127A18.007 18.007 0 0 1 41.17 57H22.83A18.007 18.007 0 0 1 21 49.127V48a1 1 0 0 1 1-1h20a1 1 0 0 1 1 1Zm-5-11h2.9a5.008 5.008 0 0 1-4.9 4h-2.9a5.008 5.008 0 0 1 4.9-4Zm4.827-28.84h.015v.015a9.958 9.958 0 0 1-4.735 7.125l-.406.243-.686.172a6.032 6.032 0 0 0-1.73-1.731l.171-.688.243-.4a9.966 9.966 0 0 1 7.128-4.736ZM32 23a4 4 0 1 1 4-4 4 4 0 0 1-4 4Zm-.009-19.321L32 3.667l.009.013a9.954 9.954 0 0 1 1.691 8.386l-.278 1.112a5.793 5.793 0 0 0-2.85 0l-.272-1.112a9.956 9.956 0 0 1 1.694-8.387ZM21.158 8.158h.015a9.958 9.958 0 0 1 7.127 4.735l.243.4.171.688a6.032 6.032 0 0 0-1.73 1.731l-.687-.172-.4-.243a9.949 9.949 0 0 1-4.737-7.124ZM16.666 19l.013-.01a10.093 10.093 0 0 1 8.386-1.69l1.113.278a5.793 5.793 0 0 0 0 2.85l-1.113.278a10.106 10.106 0 0 1-8.386-1.693Zm4.507 10.84h-.015v-.015a9.958 9.958 0 0 1 4.735-7.125l.406-.243.686-.172a6.032 6.032 0 0 0 1.73 1.731l-.171.688-.243.4a9.966 9.966 0 0 1-7.128 4.733Zm10.836 4.481-.009.012-.009-.013a9.954 9.954 0 0 1-1.691-8.386l.278-1.112a5.793 5.793 0 0 0 2.85 0l.278 1.112a9.956 9.956 0 0 1-1.694 8.387Zm10.833-4.479h-.015a9.958 9.958 0 0 1-7.127-4.735l-.243-.4-.171-.688a6.032 6.032 0 0 0 1.73-1.731l.687.172.405.243a9.949 9.949 0 0 1 4.733 7.128Zm4.479-10.832a10.109 10.109 0 0 1-8.386 1.69l-1.113-.278a5.793 5.793 0 0 0 0-2.85l1.113-.278a10.1 10.1 0 0 1 8.386 1.693l.013.01Z" fill="#000000" data-original="#000000" class=""></path></g></svg>