<svg xmlns="http://www.w3.org/2000/svg" version="1.1" xmlns:xlink="http://www.w3.org/1999/xlink" xmlns:svgjs="http://svgjs.com/svgjs" width="512" height="512" x="0" y="0" viewBox="0 0 68 68" style="enable-background:new 0 0 512 512" xml:space="preserve" class=""><g><path d="M28.347 30.969a1 1 0 0 1-.998-.951c-.357-7.267 5.479-15.875 14.192-20.935a1 1 0 0 1 1.004 1.73C34.58 15.439 29.03 23.474 29.347 29.92a1 1 0 0 1-.95 1.048l-.05.001z" fill="#000000" data-original="#000000" class=""></path><path d="M28.348 26.265a1 1 0 0 1-1-.997c-.013-3.988-3.407-6.294-7.188-8.495a1 1 0 1 1 1.006-1.729c3.251 1.893 8.165 4.753 8.182 10.218a1 1 0 0 1-.997 1.003h-.003zM45.473 37.914h-34.26a2.798 2.798 0 0 1-2.79-2.8v-3.35a2.793 2.793 0 0 1 2.79-2.79h34.26c1.544 0 2.8 1.253 2.8 2.79v3.35c0 1.544-1.256 2.8-2.8 2.8zm-34.26-6.94a.791.791 0 0 0-.79.79v3.35c0 .442.355.8.79.8h34.26a.8.8 0 0 0 .8-.8v-3.35a.787.787 0 0 0-.8-.79z" fill="#000000" data-original="#000000" class=""></path><path d="M37.783 65.505h-18.87a2.783 2.783 0 0 1-2.757-2.351l-4.34-26.076a.998.998 0 0 1 .987-1.164h31.09a.998.998 0 0 1 .986 1.164l-4.34 26.08a2.816 2.816 0 0 1-2.756 2.347zm-23.8-27.59L18.13 62.83a.792.792 0 0 0 .784.675h18.87a.801.801 0 0 0 .783-.67l4.147-24.92zM39.43 20.51c-2.465 0-4.683-1.305-6.101-3.053-2.416-2.977-2.941-7.74.728-11.082C38.45 2.371 45.52 1.341 51.25 3.87c5.292 2.337 8.327 7.162 8.327 13.24a1 1 0 0 1-1.707.708c-4.75-4.75-9.117-2.29-13.927 1.144-1.513 1.09-3.056 1.548-4.514 1.548zm5.16-16.024c-3.413 0-6.77 1.165-9.186 3.368-2.881 2.623-2.29 6.164-.522 8.343 1.74 2.147 4.855 3.332 7.896 1.14 3.649-2.606 8.975-6.413 14.624-2.517-.651-4.162-3.108-7.42-6.96-9.12a14.517 14.517 0 0 0-5.853-1.214zM22.229 22.622c-.948 0-1.95-.297-2.935-1.006-2.813-2.01-5.176-3.338-7.791-.724a1.001 1.001 0 0 1-1.707-.707c0-3.795 1.899-6.81 5.21-8.273 3.564-1.575 7.963-.928 10.7 1.566 2.375 2.163 2.037 5.243.475 7.168-.918 1.133-2.355 1.976-3.952 1.976zm-7.715-5.196c2.354 0 4.462 1.505 5.945 2.565 1.715 1.235 3.317.445 4.169-.605.972-1.197 1.265-3.032-.27-4.43-2.17-1.978-5.685-2.478-8.544-1.215-1.199.53-3.047 1.734-3.742 4.269a5.41 5.41 0 0 1 2.442-.584z" fill="#000000" data-original="#000000" class=""></path></g></svg>