<svg xmlns="http://www.w3.org/2000/svg" version="1.1" xmlns:xlink="http://www.w3.org/1999/xlink" xmlns:svgjs="http://svgjs.com/svgjs" width="512" height="512" x="0" y="0" viewBox="0 0 60 60" style="enable-background:new 0 0 512 512" xml:space="preserve" class=""><g><path d="M11 10h3a1 1 0 0 1 0 2h-2a1 1 0 0 0-.986 1.165C11.06 13.443 12.208 20 17 20a6.028 6.028 0 0 0 5.415-3.359c.964 1.023 2.512 3.259 3.539 7.709a10.1 10.1 0 0 0-8.256-.816 1.071 1.071 0 0 0-.634 1.407c1.484 3.384 6.208 6.189 9.758 5.337.09 1.152.148 2.392.167 3.727H15.006a3.019 3.019 0 0 0-3 2.96c-.067 4.123.34 14.286 5.573 19.6a11.486 11.486 0 0 0 8.51 3.436H34a11.49 11.49 0 0 0 8.511-3.436c5.232-5.319 5.638-15.482 5.571-19.6a3.017 3.017 0 0 0-3-2.96H33.017c.3-12.456 6.165-16.566 8.416-17.685A6.067 6.067 0 0 0 47 20c4.792 0 5.939-6.557 5.986-6.835A1 1 0 0 0 52 12h-2a1 1 0 0 1 0-2h3a1 1 0 0 0 1-1A12.921 12.921 0 0 0 50.707.293 1 1 0 0 0 50 0a5.319 5.319 0 0 0-4.9 2.553A1 1 0 0 0 45 3v2a1 1 0 0 1-2 0V3a1 1 0 0 0-1.372-.929C41.4 2.164 36 4.388 36 10a5.506 5.506 0 0 0 3.167 5.34c-3.084 2.072-7.883 7.144-8.149 18.665h-2.029c-.084-5.875-.982-13.939-4.813-18.4A5.524 5.524 0 0 0 28 10c0-5.612-5.4-7.836-5.628-7.929A1 1 0 0 0 21 3v2a1 1 0 0 1-2 0V3a1 1 0 0 0-.105-.447A5.319 5.319 0 0 0 14 0a1 1 0 0 0-.707.293A12.921 12.921 0 0 0 10 9a1 1 0 0 0 1 1Zm27 0a6.435 6.435 0 0 1 3-5.3V5a3 3 0 0 0 6 0V3.29a3.428 3.428 0 0 1 2.562-1.272A11.262 11.262 0 0 1 51.955 8H50a3 3 0 0 0 0 6h.721c-.469 1.524-1.563 4-3.721 4a4.314 4.314 0 0 1-4.03-3.243A1 1 0 0 0 42 14c-.163 0-4-.045-4-4ZM14.2 42.005h31.7a28.115 28.115 0 0 1-2.577 10H16.772a28.11 28.11 0 0 1-2.572-10Zm19.8 16h-7.911A9.559 9.559 0 0 1 19 55.167a11.429 11.429 0 0 1-.981-1.162h24.047a11.3 11.3 0 0 1-.981 1.162A9.559 9.559 0 0 1 34 58.005ZM46.082 37c.013.793.006 1.83-.051 3.007H14.057A47.11 47.11 0 0 1 14.006 37a1 1 0 0 1 1-.993h30.077a1 1 0 0 1 .999.993ZM23.1 27.913a8.294 8.294 0 0 1-3.607-2.791 8.208 8.208 0 0 1 4.526.5 5.229 5.229 0 0 1 2.511 1.882c.035.248.068.5.1.757a5.093 5.093 0 0 1-3.53-.348ZM14.437 2.018A3.423 3.423 0 0 1 17 3.288V5a3 3 0 0 0 6 0v-.3a6.435 6.435 0 0 1 3 5.3 3.85 3.85 0 0 1-4 4 1.006 1.006 0 0 0-.969.753C21 14.886 20.15 18 17 18c-2.158 0-3.252-2.476-3.721-4H14a3 3 0 0 0 0-6h-1.956a11.287 11.287 0 0 1 2.393-5.982Z" fill="#000000" data-original="#000000" class=""></path></g></svg>