<?xml version="1.0" standalone="no"?>
<svg version="1.1" id="Layer_1" xmlns="http://www.w3.org/2000/svg" xmlns:xlink="http://www.w3.org/1999/xlink" x="0px" y="0px" width="595.28px" height="595.28px" viewBox="0 0 595.28 595.28" enable-background="new 0 0 595.28 595.28" xml:space="preserve">
<path id="color_x5F_2" fill="#FBC02D" d="M279.247,456.732c-0.22,0.106-0.394,0.233-0.48,0.375c-5.68,9.3-15.342,8.028-23.909,3.867
	c-5.857-2.845-9.289-7.295-10.379-13.701c-2.544-14.938-3.057-30.183-4.423-45.25c-1.485-16.371-3.81-32.594-4.767-49.027
	c-0.956-16.426-1.123-32.889-1.131-49.338c0-0.208-0.193-0.326-0.478-0.371c-0.163-1.137-2.479-1.023-2.823,0.113
	c-7.359,24.292-12.701,49.043-15.598,74.267c-2.933,25.533-3.374,51.285-3.409,76.963c-0.991,1.905-1.382,2.786-4.462,3.569
	c-1.994,0.507-4.204,0.908-6.507,1.199c0.004-0.006,0.008-0.013,0.012-0.019c0.164-0.285-1.854-0.21-2.618,0.297
	c-5.14,0.442-10.525,0.313-14.966-0.521c-0.293-0.432-1.103-0.654-1.793-0.451c-7.651-2.576-5.908-11.59-4.776-18.231
	c1.295-7.6,2.23-15.217,3.435-22.832c1.187-7.5,2.597-14.921,3.086-22.513c0.674-10.474-0.187-21.086-0.361-31.565
	c-0.372-22.365,0.021-44.74,1.399-67.068c0.011-0.171-0.035-0.307-0.116-0.416c2.48-0.314,4.936-0.92,7.163-1.516
	c6.427-1.718,11.529-6.231,14.551-12.08c1.076-2.082,1.823-4.422,2.404-6.85l2.466,0.796c2.147,0.853,4.488,1.617,6.925,2.234
	l5.5,1.774c0,0,1.12-0.143,2.687-0.368c5.439,0.465,10.812-0.082,15.122-2.266c1.706,2.799,4.455,4.802,8.224,6.565
	c6.355,2.972,12.759,5.941,19.266,8.625c0.24,0.326,0.467,0.706,0.682,1.129c-0.579,0.223-1.046,0.611-0.975,1.076
	c4.357,28.11,1.284,56.574,0.94,84.842C268.821,405.904,268.066,432.769,279.247,456.732z M235.439,278.106
	c-0.088,0.05-0.204,0.102-0.335,0.154c1.293-0.242,2.524-0.597,3.667-1.083C237.599,277.348,236.268,277.633,235.439,278.106z
	 M193.379,258.305c-0.377-0.059-0.878-0.125-1.213-0.169c-3.185-0.413-6.372-0.806-9.558-1.213
	c-0.657,3.449-1.196,6.923-1.714,10.385c-1.308,8.743-3.077,17.405-4.477,26.132c0.071,0.014,0.137,0.034,0.193,0.062
	c1.844,0.924,4.125,1.29,6.536,1.237c1.194-0.026,2.417-0.158,3.641-0.379c4.053-0.732,8.056-2.445,10.696-4.607
	c0.276-0.227,0.547-0.455,0.792-0.69c3.788-3.643,5.518-7.902,6.727-12.631c0.306-1.199,0.581-2.427,0.845-3.685
	c1.569-7.467,2.953-14.976,4.251-22.495c-8.15-1.57-16.645-2.461-24.892-4.032c-0.871,2.827-1.578,5.7-2.178,8.599
	c3.921,0.477,7.928,0.779,11.798,1.54c0.915,0.18,1.988,0.54,1.399,1.66C195.753,258.917,193.62,259.103,193.379,258.305z
	 M216.936,249.645c-1.633-5.498,1.727-12.928,4.416-17.812c-0.178,0.041-0.342,0.061-0.47,0.046
	c-2.095-0.25-4.171-0.605-6.234-1.028c-0.195-0.009-0.371-0.042-0.511-0.103c-4.097-0.864-8.136-2.011-12.134-3.271
	c-5.423-1.708-11.517-6.262-17.431-4.911c-1.738,0.397-2.14-1.008-0.378-1.41c4.712-1.076,8.886,0.367,13.138,2.167
	c6.381-11.652,11.445-23.982,18.868-35.054c0.462-0.689,3.014-0.775,2.852-0.533c-7.626,11.375-12.758,24.081-19.393,36.014
	c-0.081,0.146-0.26,0.266-0.487,0.365c0.007,0.003,0.013,0.006,0.02,0.009c4.831,2.093,10.013,3.697,15.254,4.827
	c9.932-19.328,17.501-40.355,17.426-62.323c-0.001-0.245,0.173-0.465,0.435-0.641c-3.412-0.659-6.857-1.858-10.37-3.056
	c-0.356-0.043-0.717-0.084-1.087-0.123c-2.576-0.008-5.417,0.145-8.358,0.583c-10.007,2.441-17.967,9.353-23.847,18.221
	c-6.973,10.517-12.367,22.503-17.198,34.13c-1.994,4.798-5.243,9.772-6.464,14.816c-1.966,8.121,6.31,9.766,12.607,11.403
	C190.547,245.327,203.94,246.47,216.936,249.645z M298.87,230.099c1.797,3.91,3.719,7.786,5.009,11.869l0.311-0.028v-2
	L298.87,230.099z M259.039,233.044l8.681-1.321C264.751,231.476,261.83,231.813,259.039,233.044z M287.604,201.488
	c-1.708-7.048-4.049-14.56-10.741-18.434c-3.103-1.796-6.388-3.056-9.496-4.618l-0.623,0.17c-0.289,9.788-2,19.328-3.639,28.976
	c-1.346,7.922-2.045,15.883-4.726,23.457c4.964-2.03,10.162-1.706,15.344-0.348c0-6.797,0-13.594,0-20.391
	c0-1.178,2.922-1.693,2.922-0.271c0,7.175,0,14.351,0,21.526c5.48,1.805,10.889,4.494,15.926,6.501
	c2.592,1.033,5.32,2.088,7.95,3.298c-2.014-5.582-5.185-10.723-7.011-16.381C291.042,217.332,289.496,209.292,287.604,201.488z
	 M268.426,231.794l5.592,1.198C272.152,232.429,270.281,232.004,268.426,231.794z"></path>
<path id="color_x5F_1" d="M280.02,147.908c-0.043,2.475-0.576,4.859-1.246,7.233c-0.173,0.612-1.539,0.882-2.045,0.882
	c-0.718,0-1.437,0-2.154,0c-1.936,0,0.365-1.294,1.221-1.294c0.115,0,0.229,0,0.345,0c0.529-1.982,0.946-3.978,0.982-6.045
	C277.139,147.764,280.03,147.33,280.02,147.908z M271.216,145.424c0.472-0.086,1.455-0.279,1.703-0.774
	c0.316-0.632,0.606-1.256,0.638-1.974c0.018-0.397-2.861-0.051-2.897,0.776c-0.027,0.62-0.323,1.175-0.595,1.72
	C269.835,145.629,271.087,145.447,271.216,145.424z M286.513,146.121c-0.635-0.233-1.472,0.017-2.04,0.317
	c-0.984,0.521-1.731,1.33-2.109,2.382c-0.208,0.579,0.957,0.501,1.208,0.463c0.521-0.078,1.463-0.318,1.67-0.895
	c0.123-0.342,0.273-0.633,0.5-0.917c0.056-0.07,0.136-0.157,0.203-0.215c0.068-0.057,0.138-0.11,0.211-0.16
	c-0.087,0.059-0.068,0.053,0.056-0.02C286.539,146.905,287.15,146.354,286.513,146.121z M272.19,136.995
	c1.421-0.208,2.729,0.076,3.797,1.069c0.676,0.628,3.374-0.458,2.705-1.08c-1.645-1.529-3.923-1.708-6.053-1.395
	c-0.517,0.076-1.479,0.324-1.666,0.912C270.784,137.096,271.908,137.036,272.19,136.995z M282.565,142.458
	c0.564,0.039,1.165-0.108,1.687-0.358c0.222,0.082,0.432,0.246,0.566,0.429c0.548,0.748,3.168-0.406,2.897-0.776
	c-1.232-1.683-3.852-0.925-5.338,0.003C281.891,142.059,282.021,142.42,282.565,142.458z M266.553,155.333
	c0.643-0.072,1.443-0.236,1.94-0.688c0.488-0.443-0.429-0.487-0.68-0.458c-1.818,0.205-2.324-2.022-1.972-3.378
	c0.156-0.599-2.67-0.199-2.856,0.517c-0.273,1.052-0.272,2.195,0.458,3.069C264.211,155.315,265.42,155.461,266.553,155.333z
	 M251.388,277.113c-6.438-3.418-2.488-13.205,0.233-17.907c0.758-1.31-2.18-1.159-2.735-0.199c-3.125,5.4-6.986,15.813,0.233,19.646
	C250.094,279.171,252.711,277.816,251.388,277.113z M262.37,235.207c-3.751,0.504-5.216,3.374-7.186,6.19
	c-1.071,1.532,1.638,2.106,2.449,0.946c1.127-1.612,2.295-4.593,4.512-4.891c0.662-0.089,1.508-0.441,1.585-1.216
	C263.801,235.523,262.982,235.124,262.37,235.207z M300.981,479.317c4.688,5.266,4.074,10.341-3.425,11.637
	c-8.487,1.467-18.926,1.353-27.113-1.459c-3.957-1.359-7.132-3.193-9.304-6.787c-2.087,2.145-6.313,2.437-9.514,2.474
	c-0.085,0.001-0.519-0.037-0.513-0.218c0.173-5.557-2.591-8.535-4.617-13.39c-1.924-4.609-1.178-7.929,0.018-12.604
	c0.038-0.147,0.182-0.28,0.383-0.396c-3.816-3.586-4.987-8.354-5.757-13.815c-1.203-8.526-2.022-17.082-2.669-25.667
	c-1.435-19.039-4.207-37.928-5.544-56.974c-1.176-16.743-1.561-33.512-1.646-50.29c-6.387,22.551-11.024,45.546-13.435,68.885
	c-2.477,23.982-2.99,48.087-3.046,72.182c0.387,0.11,0.59,0.368,0.338,0.814c-0.124,0.219-0.235,0.43-0.342,0.638
	c0,0.413-0.003,0.825-0.003,1.237c0.047,0.037,0.084,0.079,0.098,0.134c1.247,5.132,2.143,10.226-0.111,15.218
	c-2.136,4.73-4.77,7.761-4.599,13.251c0.024,0.78-1.875,1-2.384,0.994c-3.036-0.035-6.375-0.324-7.966-2.237
	c-0.032,0.049-0.06,0.101-0.093,0.149c-2.266,3.31-5.618,5.318-9.452,6.421c-8.583,2.469-19.023,3.239-27.81,1.267
	c-7.722-1.733-5.708-7.481-1.336-11.984c6.025-6.207,11.671-12.943,18.304-18.533c-3.075-1.002-5.648-2.835-6.3-6.167
	c-1.385-7.073,1.13-14.405,2.167-21.363c1.38-9.254,2.818-18.544,4.085-27.815c1.499-10.963,1.01-21.864,0.753-32.894
	c-0.585-25.075-0.304-50.166,1.242-75.203c0.012-0.198,0.124-0.378,0.297-0.532c-2.333,0.077-4.625-0.209-6.716-1.1
	c-0.837,0.188-1.729-0.051-1.598-0.883c1.51-9.54,3.36-19.019,4.859-28.561c1.063-6.769,2.227-13.527,4.269-20.077
	c-5.381-1.143-10.629-2.641-15.57-4.894c-4.743-2.163-6.365-6.018-4.525-10.966c2.008-5.4,4.725-10.661,7.05-15.937
	c3.1-7.036,6.375-14.694,10.263-21.955c-0.031-0.014-0.064-0.027-0.089-0.046c-4.479-3.503-4.541-10.629-5.102-15.799
	c-0.59-5.438-0.295-10.547,1.389-15.462c0.272-1.216,0.848-2.53,1.656-3.897c0.282-0.552,0.577-1.103,0.9-1.65
	c6.696-11.352,17.587-19.419,30.816-21.418c1.461-0.221,2.938-0.421,4.415-0.633c6.073-1.668,12.773-3.716,16.957-5.142
	c2.95-1.68,5.682-3.723,8.295-6.055c5.501-4.909,10.604-11.137,17.433-14.254c1.619-0.739,3.274-1.343,4.948-1.838
	c0.27-0.111,0.53-0.21,0.771-0.282c0.502-0.15,1.064-0.261,1.665-0.345c8.43-1.869,17.204-0.635,24.679,4.025
	c0.434-0.065,0.828-0.03,1.018,0.168c0.43,0.449,0.843,0.909,1.248,1.373c0.101,0.075,0.205,0.14,0.305,0.216
	c0.046,0.036,0.044,0.086,0.005,0.146c4.515,5.307,7.329,11.554,7.268,18.746c-0.063,7.466-1.896,14.65-3.269,21.944
	c-0.997,5.295-1.685,10.698-1.463,16.098c0.165,4.02,0.871,7.996,0.889,12.021c0.028,6.138-0.439,12.886-4.699,17.68
	c-0.009,0.01-0.024,0.02-0.035,0.03c0.287,1.074,0.545,2.138,0.785,3.17c1.888,8.122,3.308,16.958,6.355,24.728
	c0.616,1.57,1.304,3.118,2.012,4.66c1.797,3.91,3.719,7.786,5.009,11.869c0.113,0.361,0.239,0.719,0.343,1.083
	c0.018,0.063,0.022,0.125,0.024,0.185c6.101,3.424,10.902,8.181,10.881,16.249c3.447,0.586,6.911,1.024,10.407,1.275
	c0.703,0.05,0.964,0.368,0.946,0.747c0.73-0.432,1.541-0.713,2.447-0.792c0.923-0.081,1.644,0.076,2.197,0.416
	c1.548-1.607,3.576-1.546,5.079,0.017c0.257-0.178,0.57-0.33,0.974-0.446c1.228-0.352,2.362-0.284,3.341,0.617
	c0.278,0.257,0.53,0.524,0.764,0.797c0.303-0.299,0.661-0.568,1.102-0.795c1.419-0.733,3.268-0.28,4.436,0.693
	c0.198,0.165,0.376,0.343,0.551,0.523c0.259-0.099,0.511-0.165,0.706-0.171c0.01,0,0.019,0,0.028-0.001
	c0.151-0.004,0.27,0.003,0.374,0.016c2.803,0.126,5.621,0.112,8.425,0.14c2.205,0.022,4.41,0.042,6.614,0.02
	c0.601-0.006,1.2-0.023,1.801-0.036c1.487-2.337,4.262-3.691,7.033-3.887c0.711-0.378,1.817-0.578,2.178-0.181
	c3.397,3.744,3.723,9.516,4.098,14.312c0.038,0.487-0.635,0.874-1.341,1.051c0.019,0.479-0.31,1.025-1.063,1.292
	c-3.151,1.116-7.608,1.279-9.604-1.921c-0.084-0.134-0.122-0.265-0.138-0.394c-0.679,0.126-1.36,0.241-2.036,0.38
	c-0.949,0.196-1.898,0.396-2.835,0.646c-0.361,0.096-0.728,0.185-1.08,0.312c-0.001,0-0.001,0-0.002,0.001
	c-2.354,3.258-8.497,6.191-10.7,7.157c-5.4,2.368-27.699,7.791-28.967-1.93c-0.49,0.11-0.942,0.118-1.119-0.075
	c-0.615-0.671-3.236-0.138-4.047-0.094c-0.941,0.052-1.884,0.099-2.826,0.137c-2.553,6.945-4.299,15.346-10.969,19.589
	c-6.404,4.073-15.669,0.563-22.076-1.613c-3.82-1.298-7.595-2.748-11.336-4.292c-6.507-2.684-12.911-5.653-19.266-8.625
	c-3.769-1.763-6.518-3.766-8.224-6.565c-4.311,2.185-9.683,2.731-15.122,2.266c-2.756-0.236-5.526-0.733-8.187-1.406
	c-2.437-0.617-4.777-1.381-6.925-2.234c-0.836-0.332-1.643-0.677-2.415-1.031c-0.018,0.078-0.033,0.158-0.051,0.235
	c-0.581,2.428-1.328,4.768-2.404,6.85c-3.022,5.849-8.125,10.362-14.551,12.08c-2.227,0.595-4.683,1.201-7.163,1.516
	c0.082,0.109,0.127,0.245,0.116,0.416c-1.378,22.328-1.771,44.703-1.399,67.068c0.174,10.479,1.036,21.091,0.361,31.565
	c-0.489,7.591-1.899,15.012-3.086,22.513c-1.205,7.615-2.139,15.232-3.435,22.832c-1.132,6.641-2.875,15.655,4.776,18.231
	c0.69-0.204,1.5,0.019,1.793,0.451c4.441,0.834,9.826,0.963,14.966,0.521c0.764-0.507,2.782-0.582,2.618-0.297
	c-0.003,0.006-0.008,0.013-0.012,0.019c2.303-0.291,4.513-0.691,6.507-1.199c3.081-0.783,3.472-1.664,4.462-3.569
	c0.035-25.678,0.476-51.43,3.409-76.963c2.897-25.224,8.239-49.976,15.598-74.267c0.344-1.137,2.66-1.25,2.823-0.113
	c0.285,0.045,0.478,0.164,0.478,0.371c0.008,16.45,0.175,32.913,1.131,49.338c0.957,16.433,3.282,32.656,4.767,49.027
	c1.367,15.067,1.879,30.313,4.423,45.25c1.091,6.406,4.522,10.856,10.379,13.701c8.567,4.161,18.229,5.433,23.909-3.867
	c0.086-0.142,0.26-0.269,0.48-0.375c-11.18-23.964-10.425-50.829-10.111-76.69c0.344-28.268,3.417-56.732-0.94-84.842
	c-0.072-0.465,0.396-0.854,0.975-1.076c0.807-0.311,1.831-0.297,1.923,0.3c4.291,27.681,1.305,55.634,0.966,83.465
	c-0.32,26.33-1.299,53.724,10.115,78.135c0.166,0.354-0.17,0.707-0.666,0.945c-0.016,0.043-0.031,0.086-0.062,0.136
	c-0.352,0.577-0.726,1.111-1.111,1.624c0.041,0.024,0.083,0.044,0.12,0.073c4.476,3.557,8.675,7.662,12.688,11.908
	c0.366,0.006,0.61,0.075,0.551,0.213c-0.037,0.086-0.079,0.158-0.117,0.242C296.114,473.863,298.576,476.615,300.981,479.317z
	 M278.566,460.769c-3.236,3.205-7.261,4.69-11.518,4.916c6.455,4.59,18.702,15.258,23.394,6.575
	C286.684,468.222,282.849,464.222,278.566,460.769z M197.483,289.751c0.276-0.227,0.547-0.455,0.792-0.69
	c3.788-3.643,5.518-7.902,6.727-12.631c0.306-1.199,0.581-2.427,0.845-3.685c1.569-7.467,2.953-14.976,4.251-22.495
	c-8.15-1.57-16.645-2.461-24.892-4.032c-0.871,2.827-1.578,5.7-2.178,8.599c3.921,0.477,7.928,0.779,11.798,1.54
	c0.915,0.18,1.988,0.54,1.399,1.66c-0.473,0.901-2.606,1.086-2.847,0.289c-0.377-0.059-0.878-0.125-1.213-0.169
	c-3.185-0.413-6.372-0.806-9.558-1.213c-0.657,3.449-1.196,6.923-1.714,10.385c-1.308,8.743-3.077,17.405-4.477,26.132
	c0.071,0.014,0.137,0.034,0.193,0.062c1.844,0.924,4.125,1.29,6.536,1.237c1.194-0.026,2.417-0.158,3.641-0.379
	C190.84,293.627,194.843,291.914,197.483,289.751z M177.591,241.959c12.957,3.368,26.35,4.51,39.345,7.686
	c-1.633-5.498,1.727-12.928,4.416-17.812c-0.178,0.041-0.342,0.061-0.47,0.046c-2.095-0.25-4.171-0.605-6.234-1.028
	c-0.17-0.035-0.341-0.067-0.511-0.103c-4.097-0.864-8.136-2.011-12.134-3.271c-5.423-1.708-11.517-6.262-17.431-4.911
	c-1.738,0.397-2.14-1.008-0.378-1.41c4.712-1.076,8.886,0.367,13.138,2.167c6.381-11.652,11.445-23.982,18.868-35.054
	c0.462-0.689,3.014-0.775,2.852-0.533c-7.626,11.375-12.758,24.081-19.393,36.014c-0.081,0.146-0.26,0.266-0.487,0.365
	c0.007,0.003,0.013,0.006,0.02,0.009c4.831,2.093,10.013,3.697,15.254,4.827c9.932-19.328,17.501-40.355,17.426-62.323
	c-0.001-0.245,0.173-0.465,0.435-0.641c-3.412-0.659-6.857-1.858-10.37-3.056c-0.356-0.043-0.717-0.084-1.087-0.123
	c-0.983-0.102-2.018-0.185-3.095-0.25c-1.812,0.145-3.568,0.42-5.263,0.834c-10.007,2.441-17.967,9.353-23.847,18.221
	c-6.973,10.517-12.367,22.503-17.198,34.13c-1.994,4.798-5.243,9.772-6.464,14.816C163.018,238.677,171.293,240.322,177.591,241.959
	z M264.045,176.557c-0.587-0.381-1.159-0.79-1.719-1.227c-1.436,4.657-4.097,9.236-6.875,12.731
	c-0.578,0.727-2.18,0.945-2.645,0.023c-0.321-0.636-0.59-1.29-0.826-1.954c-0.972,14.163-4.131,28.666-10.327,41.238
	c4.493,0.57,9.503,3.474,13.189,5.43c3.502-8.583,4.051-17.837,5.68-26.879c1.724-9.57,3.243-19.131,3.349-28.876
	C263.873,176.862,263.94,176.701,264.045,176.557z M250.052,240.265c0.012-0.042,0.035-0.081,0.061-0.12
	c-2.907-1.766-6.21-4.696-9.702-4.4c1.835,3.284,2.264,6.835-1.933,8.676c0.19,2.268-1.215,3.708-3.073,4.571
	c0.393,2.547-0.447,4.357-1.932,5.54c-0.631,4.998,2.44,9.21,7.178,10.682C243.71,256.863,247.566,248.822,250.052,240.265z
	 M235.131,233.178c-1.405-1.53-3.047-3.078-4.879-4.075c-2.412-1.313-4.252,0.71-6.278,2.001c0.252,0.133,0.355,0.366,0.156,0.727
	c-2.723,4.926-7.463,13.949-3.315,19.307c1.985,2.563,7.22,4.327,9.994,2.909c0.149-0.175,0.383-0.324,0.655-0.438
	c0.895-0.768,1.351-2.04,1.027-3.964c-0.016-0.095-0.003-0.186,0.02-0.274c-0.005-0.013-0.017-0.02-0.02-0.033
	c-0.138-0.515,1.005-0.84,1.303-0.932c1.437-0.441,1.934-2.028,1.775-3.378c-0.029-0.244,0.178-0.465,0.489-0.644
	c0.114-0.116,0.349-0.25,0.762-0.398C241.872,242.175,237.224,235.455,235.131,233.178z M249.419,176.387
	c-0.272-4.22-2.233-7.971-3.932-11.772c-1.517,0.748-3.031,1.247-4.546,1.541c0.757,5.869,2.877,11.49,3.224,17.41
	C246.787,181.761,249.647,179.917,249.419,176.387z M248.667,162.668c-0.171,0.185-0.357,0.362-0.568,0.524
	c1.53,3.463,4.232,7.84,4.294,11.889c3.75-6.051,11.796-8.426,18.634-8.586c12.859-0.3,16.606-15.307,18.438-25.848
	c-0.104-0.031-0.191-0.076-0.248-0.144c-3.788-4.459-3.531-10.012-3.481-15.529c-5.25,6.414-15.265,10.363-23.586,9.659
	c-0.19,9.612-5.553,22.078-13.305,27.909C248.785,162.587,248.726,162.625,248.667,162.668z M278.93,165.707
	c0.526-0.25,1.043-0.594,1.549-1.003C279.973,165.063,279.457,165.398,278.93,165.707z M260.455,170.132
	c-0.581,0.349-1.155,0.749-1.721,1.223c-2.504,2.099-4.451,4.26-5.193,7.513c-0.029,0.128-0.121,0.247-0.248,0.355
	c0.455,1.934,0.837,3.896,1.467,5.776C257.694,180.646,260.124,175.142,260.455,170.132z M263.057,172.381
	c0.12,0.12,0.245,0.229,0.367,0.346l-0.275-0.826C263.122,172.06,263.087,172.221,263.057,172.381z M234.854,229.262
	c1.191-1.133,2.585-1.723,4.099-1.917c6.796-13.982,9.931-30.378,10.406-45.949c-1.398,1.185-3.07,2.152-4.568,3.415
	c-0.275,0.232-1.147,0.424-1.829,0.481c-0.777,0.202-1.628,0.196-1.638-0.131c-0.182-6.254-2.513-12.144-3.293-18.316
	c-0.016-0.128,0.044-0.25,0.148-0.365c-1.132,0.05-2.267,0.001-3.404-0.121c0.059,22.256-7.728,43.544-17.824,63.099
	c1.907,0.354,3.816,0.649,5.713,0.875c0.033,0.004,0.054,0.011,0.084,0.017c2.153-1.418,4.236-2.88,6.883-3.167
	C231.439,226.987,233.28,227.996,234.854,229.262z M238.772,277.177c0.521-0.222,1.027-0.466,1.509-0.743
	c-0.587-1.302-0.983-2.768-1.186-4.435c-0.219,0.057-0.412,0.086-0.539,0.072c-3.28-0.36-6.482-1.559-9.296-3.341
	c-0.295,2.704-0.334,5.423-0.335,8.149c0,1.115-2.898,1.66-2.897,0.776c0.001-3.571,0.023-7.138,0.616-10.668
	c0.008-0.046,0.027-0.09,0.046-0.134c-0.408-0.346-0.809-0.7-1.189-1.073c-3.192-3.129-2.851-6.116-2.313-10.126
	c-0.375-0.122-0.738-0.259-1.082-0.412c-2.121-0.944-3.534-2.255-4.412-3.798c-0.434,0.193-0.908,0.296-1.243,0.211
	c-1.195-0.305-2.404-0.581-3.619-0.843c-0.761,4.375-1.554,8.746-2.393,13.107c-0.558,2.902-0.988,6.102-1.605,9.25
	c0.035,0.011,0.072,0.02,0.103,0.036c6.535,3.364,17.688,6.645,26.17,5.057C236.398,278.018,237.629,277.663,238.772,277.177z
	 M348.413,263.907c1.332,2.232,1.58,5.119,1.413,7.89c3.601-1.987,9.129-4.397,10.949-2.032c0.786,1.021,0.851,2.082,0.44,3.13
	c0.692-0.156,1.284-0.262,1.552-0.323c1.479-0.333,2.966-0.629,4.456-0.904c0.404-0.218,0.9-0.319,1.323-0.243
	c0.094-0.016,0.188-0.036,0.281-0.052c1.378-0.231,1.173,0.248,0.541,0.643c1.432,2.087,4.161,1.773,6.301,1.015
	c0.007-0.002,0.014-0.003,0.021-0.005c-0.332-4.353-0.686-9.583-3.511-13.075c-0.077,0-0.156,0.008-0.231,0.002
	c-1.647-0.127-2.994,0.915-3.833,2.253c0.507-0.033,0.926,0.075,0.969,0.386c0.002,0.014,0.004,0.029,0.006,0.043
	c0.048,0.347-0.312,0.592-0.571,0.739c-0.682,0.384-1.497,0.618-2.383,0.752c-0.283,0.056-0.566,0.083-0.811,0.079
	c-2.479,0.215-5.322-0.165-7.304-0.179C354.825,264.003,351.612,264.019,348.413,263.907z M323.729,277.495
	c0.007,0.108-0.02,0.21-0.059,0.309c-0.073,8.721,16.663,5.371,21.565,3.944c4.163-1.211,8.759-3.542,11.78-6.685
	c2.82-2.932,1.149-5.587-2.873-3.936c-1.542,0.633-3.047,1.363-4.454,2.259c-0.109,0.985-0.255,1.935-0.404,2.809
	c-0.192,1.126-3.135,1.584-2.914,0.299c0.145-0.842,0.274-1.715,0.375-2.601c-0.038-0.045-0.035-0.104,0.018-0.178
	c0.254-2.347,0.27-4.776-0.377-6.979c-0.396-1.347-1.095-2.909-2.412-3.613c-0.863-0.46-1.066,0.727-1.123,1.699
	c1.297,3.49,0.625,7.658,0.578,11.442c-0.011,0.813-2.903,1.204-2.898,0.776c0.039-3.141,0.799-7.077-0.037-10.279
	c-0.354-0.104-0.601-0.335-0.587-0.734c0.009-0.254,0.024-0.502,0.049-0.744c-0.442-0.958-1.027-1.901-1.798-2.637
	c0.007,0.223,0.021,0.449,0.038,0.688c0.015,0.2-0.177,0.382-0.465,0.534c0.73,2.275,0.796,4.858,0.737,7.224
	c-0.051,2.019-0.09,4.388-1.418,6.038c-0.887,1.103-3.623,0.496-2.453-0.958c1.542-1.917,0.996-5.987,0.821-8.266
	c-0.09-1.18-0.197-2.367-0.649-3.475c-0.244-0.6-0.514-1.243-0.93-1.752c-0.796-0.974-0.92,0.179-1.237,0.939
	c-0.002,0.005-0.007,0.01-0.009,0.015c0.77,4.186-1.922,11.598-2.397,13.774c-0.228,1.045-3.159,1.5-2.904,0.335
	c0.515-2.357,1.304-4.647,1.802-7.011c0.407-1.928,1.683-6.374-0.164-7.932C326.387,260.654,323.602,275.458,323.729,277.495z
	 M290.899,240.007c-5.143-2.086-10.987-5.236-16.881-7.015c-1.866-0.563-3.736-0.988-5.592-1.198
	c-0.235-0.027-0.471-0.051-0.706-0.071c-2.969-0.247-5.89,0.091-8.681,1.321c-1.198,0.528-2.374,1.212-3.517,2.098
	c-0.967,0.749-2.801,0.14-2.365-0.802c-4.283-2.299-13.772-8.834-16.862-3.796c0.423,0.412,0.812,0.82,1.156,1.194
	c0.68,0.74,1.36,1.567,1.972,2.44c5.253-1.173,9.141,2.339,13.509,4.79c0.557,0.313,0.369,0.733-0.095,1.067
	c-2.61,8.876-6.68,17.203-9.771,25.909c-0.187,0.525-1.533,0.849-2.316,0.809c-0.446,0.188-0.929,0.293-1.235,0.217
	c-5.382-1.348-9.242-5.569-9.029-11.027c-1.436,0.367-3.028,0.45-4.568,0.285c-0.421,3.269-0.498,5.872,2.301,8.519
	c2.987,2.827,6.696,5,10.75,5.791c-0.009-0.18-0.026-0.353-0.032-0.538c-0.037-1.25,2.887-1.73,2.932-0.238
	c0.251,8.434,5.566,11.215,12.612,14.249c8.177,3.52,16.077,7.685,24.532,10.527c6.936,2.332,18.519,7.738,24.104,0.403
	c3.581-4.703,4.996-10.518,7.008-15.975c0.273-0.742,1.545-1.043,2.289-0.767c0.1-0.007,0.199-0.019,0.297-0.02
	c2.221-0.018,4.435-0.222,6.654-0.283c0.346-0.009,0.894-0.063,1.444-0.062c-0.16-4.022,0.74-11.18,3.921-14.843
	c-0.055,0.002-0.109,0.007-0.165,0.003c-4.558-0.327-9.061-0.967-13.544-1.847c-1.929-0.378-0.539-2.529,0.969-2.233
	c0.062,0.012,0.123,0.021,0.185,0.034C311.703,247.501,300.054,243.721,290.899,240.007z M293.511,224.975
	c-2.469-7.644-4.015-15.684-5.907-23.487c-1.708-7.048-4.049-14.56-10.741-18.434c-3.103-1.796-6.388-3.056-9.496-4.618
	c-0.204-0.103-0.406-0.208-0.608-0.313c-0.004,0.162-0.01,0.322-0.015,0.483c-0.289,9.788-2,19.328-3.639,28.976
	c-1.346,7.922-2.045,15.883-4.726,23.457c4.964-2.03,10.162-1.706,15.344-0.348c0-6.797,0-13.594,0-20.391
	c0-1.178,2.922-1.693,2.922-0.271c0,7.175,0,14.351,0,21.526c5.48,1.805,10.889,4.494,15.926,6.501
	c2.592,1.033,5.32,2.088,7.95,3.298C298.509,235.774,295.338,230.633,293.511,224.975z M288.951,194.916
	c0.029-0.054,0.059-0.107,0.088-0.161c-0.046,0.006-0.093,0.011-0.138,0.009C288.917,194.814,288.935,194.865,288.951,194.916z
	 M189.123,144.404c3.254-2.607,6.691-4.924,9.816-6.621c-2.533,1.105-4.959,2.502-7.227,4.333
	C190.822,142.834,189.964,143.607,189.123,144.404z M170.297,472.53c0.125,0.035,0.218,0.094,0.258,0.188
	c4.856,11.29,21.478-4.184,26.599-11.446c-2.786,0.141-5.562,0.153-8.218,0.163c-1.935,0.007-4.376-0.075-6.765-0.501
	C177.898,464.437,174.068,468.47,170.297,472.53z M212.339,458.031c-0.452,0.338-1.01,0.641-1.736,0.904
	c-1.675,0.608-3.425,1.067-5.22,1.414c-0.453,0.087-0.915,0.148-1.372,0.222c-1.412,0.228-2.839,0.409-4.279,0.528
	c-5.876,7.874-25.004,24.626-31.461,13.611c-0.759,0.816-1.519,1.629-2.283,2.435c-1.8,1.897-7.324,6.131-6.072,9.065
	c1.282,3.006,6.455,3.088,9.199,3.211c7.586,0.34,21.368,1.075,26.785-5.354c3.462-4.109,3.257-10.222,7.711-13.553
	c1.158-0.866,3.505,0.164,1.928,1.344c-2.088,1.562-2.899,3.956-3.697,6.373c0.007,0.029,0.015,0.058,0.009,0.093
	c-0.666,4.126,2.226,5.235,5.448,5.537c0.129-3.885,1.589-6.417,3.442-9.99C213.539,468.475,213.532,463.63,212.339,458.031z
	 M301.197,484.645c-1.477-3.24-4.487-5.675-6.887-8.23c-0.784-0.834-1.565-1.676-2.348-2.519
	c-7.268,9.312-22.164-3.914-29.224-8.305c-0.032-0.02-0.033-0.05-0.021-0.085c-4.601-0.6-9.25-2.434-13.286-4.972
	c-0.164-0.103-0.311-0.212-0.468-0.318c-1.12,5.196-0.825,9.031,2.188,14.037c1.061,1.761,2.348,3.616,2.655,5.699
	c0.119,0.808-0.09,4.109,1.53,3.963c4.083-0.37,4.563-1.992,4.084-4.954c-0.009-0.055,0.002-0.109,0.023-0.163
	c-0.841-2.531-1.59-5.084-3.845-6.771c-1.342-1.003,1.188-2.465,2.23-1.685c5.033,3.764,3.827,11.627,9.402,14.969
	c7.265,4.354,17.305,4.667,25.566,4.1C295.089,489.255,303.172,488.979,301.197,484.645z M469.017,489.268
	c0.416,0.966-2.437,1.846-2.898,0.776c-3.988-9.254-11.589-14.312-21.735-11.306c-1.744,0.517-2.146-1.046-0.418-1.558
	c1.783-0.528,3.507-0.833,5.176-0.966c-4.423-4.817-16.194-8.094-20.997-2.774c-0.294,0.326-0.82,0.487-1.333,0.507
	c0.125,0.377,0.247,0.757,0.344,1.16c0.168,0.704-2.738,1.445-2.898,0.776c-2.406-10.062-14.056-11.535-21.755-6.967
	c0.13,0.343-0.7,0.816-1.507,1.016c-2.664,2.018-4.652,4.854-5.255,8.392c-0.123,0.72-2.985,1.226-2.861,0.499
	c0.657-3.858,3.073-7.068,6.337-9.419c-9.788-8.662-22.168,3.229-23.17,13.865c-0.072,0.765-2.956,1.36-2.871,0.461
	c0.093-0.981,0.288-1.961,0.558-2.931c-0.083-0.037-0.162-0.081-0.233-0.138c-6.02-4.83-13.501,2.104-15.351,7.948
	c-0.404,1.277-3.297,1.259-2.781-0.37c2.325-7.345,11.919-14.574,19.288-10.032c4.432-10.142,17.485-17.934,26.832-10.231
	c2.393-1.302,5.072-2.2,7.784-2.624c-4.235-4.988-8.457-9.988-12.702-14.968c-0.122,0.017-0.235,0.022-0.326,0.008
	c-11.494-1.819-23.456-4.029-34.472-7.829c-3.824-1.319-8.386-3.735-8.026-8.542c0.197-2.644,1.615-4.343,3.568-5.293
	c-7.6-0.815-18.067-0.866-18.624-10.256c-0.269-4.537,4.312-6.368,8.443-6.846c-6.09-5.141-10.896-16.055-1.549-20.574
	c5.713-2.762,12.421-0.352,15.087,5.013c2.434-2.647,6.56-3.047,10.323-1.299c7.244,3.364,8.447,9.778,11.164,16.193
	c2.892-4.741,8.782-4.019,13.177,0.996c9.06,10.335,5.426,24.214,4.128,36.613c-0.021,0.195-0.172,0.373-0.391,0.524
	c3.481,4.079,6.947,8.171,10.415,12.262c0.025-24.835,0.294-49.669,0.3-74.505c-0.989-0.005-1.977-0.027-2.958-0.071
	c-14.886-0.668-30.236-6.528-37.75-20.208c-13.066-23.79,0.159-55.536,26.633-62.158c0.266-0.066,0.492-0.068,0.699-0.042
	c0.181-0.19,0.444-0.355,0.812-0.456c20.136-5.543,41.979,0.263,53.257,18.756c9.156,15.013,10.349,35.938-2.101,49.592
	c-9.056,9.933-22.497,14.078-35.694,14.542c-0.013,24.828-0.28,49.654-0.301,74.482c3.666-4.325,7.327-8.653,11.006-12.965
	c-0.284-0.051-0.483-0.179-0.507-0.401c-1.337-12.768-5.035-27.07,4.837-37.378c4.383-4.575,10.076-5.753,12.741-0.878
	c2.457-6.095,3.797-12.426,10.564-15.569c4.004-1.86,8.621-2.415,11.083,0.675c2.856-4.728,9.101-8.055,14.348-5.518
	c9.807,4.741,4.806,15.815-1.707,21.029c5.25,0.274,10.764,3.071,8.211,9.324c-2.889,7.075-10.958,7.133-17.732,7.735
	c2.51,1.118,4.219,3.396,3.178,6.737c-1.307,4.193-4.896,5.975-8.807,7.254c-11.053,3.615-22.803,5.954-34.287,7.781
	c-4.155,4.873-8.29,9.763-12.436,14.645c-0.158,0.187-0.538,0.345-0.968,0.452c0.084,0.098,0.167,0.196,0.25,0.294
	c0.159,0.187,0.074,0.395-0.14,0.588c5.901-0.212,11.514,1.932,14.102,7.14c6.496-6.446,20.946-3.379,26.154,3.25
	c0.194,0.247,0.211,0.491,0.121,0.715C459.75,476.763,465.619,481.386,469.017,489.268z M425.621,445.719
	c4.024-4.699,8.074-9.376,12.194-13.992c8.966-10.044,18.104-21.242,29.233-29.008c0.614-0.429,3.538-0.616,2.268,0.271
	c-11.313,7.895-20.626,19.383-29.711,29.629c-4.338,4.892-8.609,9.84-12.856,14.809c7.958-1.308,15.896-3.021,23.71-4.982
	c3.772-0.946,8.232-1.664,11.634-3.646c5.302-3.089,4.605-11.013-2.324-10.694c-1.592,0.073-0.492-1.246,0.395-1.453
	c6.146-1.433,15.707,0.426,19.409-5.845c3.41-5.776-1.947-9.505-7.58-8.977c-0.938,0.088-1.773-0.458-0.677-1.14
	c5.294-3.291,11.074-11.561,5.923-17.631c-4.969-5.854-12.587-1.517-13.691,5.085c-0.132,0.786-2.686,1.52-2.895,0.583
	c-1.713-7.693-10.486-4.077-13.471,0.933c-2.551,4.283-3.338,9.253-5.697,13.617c-0.295,0.546-2.604,1.323-2.791,0.383
	c-0.351-1.761-0.855-4.899-2.868-5.621c-2.208-0.792-4.843,1.783-6.12,3.241c-1.807,2.06-3.581,4.401-4.368,7.066
	C422.663,427.399,424.562,436.575,425.621,445.719z M454.516,350.99c1.001-13.031-4.036-26.464-13.489-35.54
	c-11.757-11.288-27.878-13.832-43.283-9.59c-0.271,0.075-0.509,0.088-0.718,0.063c-0.182,0.182-0.428,0.343-0.793,0.435
	c-28.34,7.088-39.849,46.908-18.019,67.294C401.12,395.043,451.813,386.168,454.516,350.99z M394.813,448.333
	c-4.277-5.001-8.583-9.978-12.966-14.889c-8.907-9.978-17.985-21.117-29.037-28.83c-0.606-0.423,1.965-1.578,2.711-1.057
	c11.391,7.949,20.763,19.494,29.907,29.808c3.856,4.349,7.656,8.746,11.438,13.158c1.163-8.835,3.416-18.802-0.13-27.129
	c-2.136-5.018-10.945-15.826-13.085-5.083c-0.177,0.888-2.443,1.418-2.895,0.583c-2.471-4.572-2.876-10.627-6.42-14.588
	c-3.132-3.502-10.986-8.378-12.645-0.928c-0.168,0.755-2.734,1.54-2.895,0.583c-1.028-6.15-11.979-14.007-14.834-4.01
	c-1.902,6.664,1.774,12.223,7.342,15.683c1.244,0.773-1.529,1.477-2.057,1.427c-10.336-0.969-8.843,9.328-2.096,12.243
	c5.007,2.163,10.514,1.284,15.747,2.504c1.609,0.375-0.774,1.562-1.472,1.53c-4.59-0.211-5.901,4.212-3.967,7.418
	c1.073,1.78,2.641,2.94,4.553,3.693c3.785,1.492,7.771,2.478,11.722,3.428C380.705,445.555,387.74,447.103,394.813,448.333z
	 M438.146,365.147c-10.301,10.398-28.62,12.899-42.153,8.313c-28.729-9.737-24.37-51.139,3.767-58.301
	c0.156-0.04,0.287-0.052,0.419-0.067c0.179-0.112,0.393-0.217,0.688-0.298c15.935-4.332,33.142,0.662,40.87,16.145
	C447.15,341.784,447.109,356.099,438.146,365.147z M439.515,333.107c-7.018-14.888-22.596-21.398-38.327-17.122
	c-0.15,0.041-0.275,0.054-0.404,0.071c-0.18,0.111-0.398,0.216-0.703,0.293c-3.784,0.963-7.357,2.628-10.347,5.173
	c-10.625,9.042-14.273,25.974-7.104,38.25c9.139,15.647,34.27,18.93,48.72,8.888C442.842,360.673,445.313,345.41,439.515,333.107z
	 M420.472,352.037c-0.308,3.83-3.286,7.246-7.043,8.172c-0.681,0.168-1.337,0.263-1.973,0.302c0,1.026,0,2.052,0,3.079
	c0,0.995-2.902,1.603-2.902,0.344c0-1.237,0-2.474,0-3.71c-2.631-0.72-4.755-2.667-6.358-5.435
	c-0.609-1.054,2.213-1.962,2.691-1.137c0.843,1.457,2.132,3.146,3.667,4.238c0-4.527,0-9.055,0-13.582
	c-2.784-0.893-5.483-1.858-6.974-4.409c-2.974-5.089,1.734-10.273,6.974-12.173c0-1.372,0-2.744,0-4.115
	c0-0.995,2.902-1.603,2.902-0.344c0,1.256,0,2.512,0,3.767c2.94-0.324,5.631,0.6,6.77,3.404c0.374,0.922-2.483,1.797-2.898,0.776
	c-0.718-1.768-2.2-2.436-3.871-2.399c0,4.639,0,9.277,0,13.916C415.634,344.292,420.888,346.863,420.472,352.037z M408.554,341.643
	c0-4.048,0-8.096,0-12.144c-2.381,1.03-4.515,3.058-4.852,5.137C403.063,338.581,405.506,340.373,408.554,341.643z M417.28,350.478
	c-1.093-2.91-3.33-4.24-5.824-5.188c0,4.575,0,9.149,0,13.725c0.909,0.049,1.854-0.192,2.811-0.846
	C416.627,356.553,418.363,353.364,417.28,350.478z M155.713,441.149c-2.499-5.797-7.219-9.136-13.609-7.242
	c-1.744,0.517-2.145-1.046-0.418-1.558c0.874-0.259,1.728-0.439,2.563-0.559c-2.947-2.658-9.634-4.53-12.396-1.469
	c-0.168,0.187-0.414,0.318-0.688,0.402c0.041,0.138,0.09,0.267,0.125,0.41c0.173,0.697-2.73,1.45-2.897,0.776
	c-1.552-6.233-8.473-7.357-13.201-4.677c-0.085,0.26-0.573,0.555-1.127,0.749c-1.64,1.256-2.875,3.043-3.281,5.299
	c-0.13,0.723-2.991,1.218-2.861,0.499c0.444-2.469,1.982-4.559,4.074-6.129c-6.143-5.282-13.436,2.302-14.063,8.863
	c-0.073,0.766-2.957,1.36-2.871,0.461c0.057-0.597,0.171-1.193,0.328-1.783c-0.001-0.001-0.003-0.001-0.004-0.002
	c-3.657-2.934-8.046,1.472-9.148,4.954c-0.404,1.277-3.297,1.259-2.781-0.37c1.56-4.922,7.896-9.589,12.896-7.084
	c3.26-6.474,11.819-11.168,17.922-6.436c1.302-0.651,2.711-1.136,4.148-1.43c-2.662-3.139-5.318-6.283-7.988-9.416
	c-0.045,0-0.092,0-0.131-0.006c-7.807-1.252-16.646-2.437-23.928-5.627c-4.801-2.103-4.689-6.402-1.703-8.48
	c-4.871-0.458-12.388-0.938-12.103-6.629c0.153-3.046,2.534-4.467,5.177-4.965c-3.893-3.656-6.674-11.106-0.152-13.6
	c3.859-1.476,8.07-0.379,10.033,2.963c1.594-1.28,3.859-1.608,6.101-0.761c5.089,1.924,6.185,5.988,7.933,10.287
	c1.982-2.169,5.184-2.333,7.956,0.4c6.88,6.785,4.541,16.261,3.601,24.892c-0.014,0.124-0.081,0.241-0.183,0.349
	c1.913,2.241,3.818,4.487,5.723,6.735c0.026-15.633,0.183-31.266,0.191-46.899c-1.215-0.018-2.423-0.083-3.616-0.199
	c-14.12-1.379-26.108-10.825-26.3-25.826c-0.169-13.236,8.167-25.175,21.144-28.502c0.135-0.034,0.247-0.031,0.366-0.04
	c0.164-0.117,0.366-0.217,0.619-0.285c9.37-2.533,19.81-1.93,27.761,4.149c9.543,7.296,14.876,20.538,11.032,32.274
	c-3.982,12.157-16.059,17.766-28.111,18.379c-0.013,15.702-0.171,31.402-0.191,47.104c2.021-2.387,4.043-4.774,6.073-7.155
	c-0.128-0.069-0.215-0.167-0.23-0.305c-0.897-8.228-3.572-18.934,3.8-25.124c2.907-2.441,6.155-3.236,8.074-0.969
	c1.519-3.949,2.78-7.884,7.313-9.598c2.551-0.965,5.215-1.289,6.906,0.225c2.067-2.822,5.846-4.666,9.237-3.369
	c7.056,2.698,3.984,10.125-0.283,13.914c3.673,0.356,6.989,2.561,4.845,6.792c-2.024,3.996-6.496,4.385-10.614,4.725
	c1.211,0.752,1.974,1.979,1.51,3.789c-0.776,3.03-3.144,4.333-5.921,5.301c-7.186,2.506-14.983,3.948-22.503,5.163
	c-2.649,3.106-5.286,6.224-7.928,9.337c-0.094,0.11-0.266,0.21-0.479,0.297c0.007,0.007,0.013,0.015,0.019,0.022
	c0.089,0.105,0.096,0.216,0.053,0.328c3.605-0.027,6.976,1.26,8.763,4.22c4.681-3.749,13.885-1.833,17.354,2.581
	c0.111,0.142,0.166,0.283,0.176,0.42c4.752,0.498,8.572,3.511,10.791,8.66C159.027,441.339,156.174,442.219,155.713,441.149z
	 M130.186,411.102c2.392-2.783,4.797-5.556,7.244-8.292c5.846-6.537,11.782-13.735,19-18.83c0.613-0.433,3.535-0.624,2.269,0.271
	c-7.398,5.222-13.504,12.702-19.466,19.437c-2.672,3.019-5.306,6.069-7.926,9.131c4.484-0.767,8.95-1.718,13.365-2.792
	c2.438-0.593,4.963-1.127,7.31-2.032c3.408-1.313,5.57-7.203-0.107-7.128c-1.578,0.021-0.521-1.255,0.395-1.453
	c2.544-0.549,5.124-0.329,7.649-0.816c8.19-1.58,5.917-8.741-0.306-8.336c-1.008,0.065-1.034-0.698-0.312-1.165
	c2.876-1.863,6.028-5.567,4.562-9.316c-1.937-4.952-7.849-3.753-8.821,1.196c-0.153,0.78-2.653,1.528-2.894,0.583
	c-1.72-6.751-8.046,0.038-9.209,3.382c-0.709,2.04-1.335,4.06-2.33,5.98c-0.292,0.564-2.585,1.312-2.791,0.383
	c-1.683-7.587-7.5,0.682-8.169,4.517C128.751,400.964,129.56,406.002,130.186,411.102z M133.543,369.627
	c12.931-5.321,17.832-19.476,12.593-32.193c-5.786-14.044-20.016-20.178-34.449-16.276c-0.14,0.038-0.269,0.056-0.392,0.066
	c-0.16,0.106-0.352,0.197-0.593,0.259c-13.715,3.516-21.665,18.845-17.854,32.33C97.634,370.755,118.426,375.849,133.543,369.627z
	 M108.628,413.294c-2.646-3.088-5.309-6.163-8.021-9.194c-5.787-6.471-11.662-13.61-18.804-18.651
	c-0.607-0.428,1.969-1.581,2.712-1.057c7.475,5.276,13.639,12.812,19.66,19.614c2.193,2.478,4.358,4.979,6.515,7.489
	c0.753-5.278,1.782-10.968-0.077-15.947c-1.004-2.689-6.272-10.504-7.71-4.022c-0.193,0.87-2.451,1.438-2.894,0.583
	c-1.467-2.831-1.81-6.68-3.907-9.139c-1.724-2.021-6.368-5.748-7.529-1.189c-0.189,0.741-2.703,1.557-2.894,0.583
	c-0.321-1.637-0.952-3.237-2.416-4.219c-3.014-2.021-7.346,0.682-6.643,4.354c0.629,3.289,2.519,5.456,5.265,7.234
	c0.85,0.55-1.611,1.353-1.924,1.332c-4.844-0.315-5.658,3.652-2.987,5.957c1.371,1.381,3.017,2.175,4.94,2.382
	c2.475,0.222,4.825,0.211,7.257,0.736c1.632,0.352-0.803,1.539-1.472,1.53c-3.17-0.042-2.803,3.833-1.339,5.216
	c0.926,0.876,1.816,1.378,2.982,1.784c2.8,0.976,5.688,1.691,8.576,2.355C101.47,411.842,105.04,412.629,108.628,413.294z
	 M128.975,365.063c-11.837,3.423-28.727,0.734-31.564-13.501c-2.237-11.218,4.406-21.976,15.447-24.879
	c0.058-0.015,0.102-0.015,0.157-0.026c0.156-0.079,0.342-0.152,0.566-0.211c11.55-3.063,24.224,1.136,28.365,13.213
	C145.733,350.705,140.326,361.779,128.975,365.063z M130.062,363.359c9.271-3.973,12.525-14.596,8.711-23.644
	c-4.243-10.067-14.318-14.879-24.874-12.08c-0.057,0.015-0.1,0.015-0.154,0.026c-0.157,0.079-0.343,0.152-0.569,0.211
	c-9.883,2.599-15.442,14.037-12.683,23.678C103.996,363.793,118.927,368.131,130.062,363.359z M126.932,350.892
	c-0.217,2.703-2.42,5.005-5.032,5.648c-0.292,0.072-0.57,0.105-0.852,0.145c0,0.583,0,1.166,0,1.749
	c0,0.995-2.902,1.603-2.902,0.344c0-0.761,0-1.522,0-2.284c-1.677-0.518-3.064-1.738-4.112-3.547
	c-0.61-1.054,2.212-1.962,2.69-1.137c0.333,0.576,0.828,1.306,1.421,1.945c0-2.556,0-5.111,0-7.667
	c-1.804-0.577-3.55-1.209-4.513-2.857c-1.987-3.399,0.998-6.817,4.513-8.243c0-0.841,0-1.682,0-2.523
	c0-0.995,2.902-1.603,2.902-0.344c0,0.729,0,1.458,0,2.187c1.941-0.104,3.672,0.581,4.417,2.417
	c0.375,0.922-2.483,1.797-2.897,0.776c-0.317-0.781-0.868-1.198-1.52-1.346c0,2.841,0,5.682,0,8.522
	C123.834,345.732,127.208,347.464,126.932,350.892z M118.146,343.508c0-2.227,0-4.454,0-6.681c-1.093,0.665-1.992,1.688-2.158,2.709
	C115.652,341.613,116.68,342.732,118.146,343.508z M123.843,350.072c-0.557-1.482-1.585-2.327-2.794-2.919c0,2.682,0,5.364,0,8.047
	c0.336-0.043,0.677-0.161,1.018-0.394C123.516,353.813,124.497,351.815,123.843,350.072z M341.273,433.219
	c3.432,10.486-1.696,20.827-12.37,24.023c-2.478,0.742-5.199,1.206-7.97,1.336c-0.015,6.807-0.131,13.612-0.134,20.419
	c-0.001,1.075-2.898,1.602-2.898,0.776c0.003-7.063,0.132-14.125,0.14-21.188c-8.824-0.35-17.445-4.283-19.576-13.706
	c-2.473-10.929,3.989-21.5,14.763-24.346c0.049-0.013,0.084-0.012,0.13-0.022c0.156-0.077,0.341-0.147,0.563-0.206
	C325.105,417.348,337.413,421.427,341.273,433.219z M338.112,433.279c-3.981-9.758-13.677-14.559-23.893-11.857
	c-0.048,0.013-0.084,0.013-0.13,0.023c-0.156,0.076-0.341,0.147-0.563,0.206c-9.626,2.542-14.926,13.916-11.957,23.216
	c2.425,7.597,9.537,11.896,17.11,12.561c0.854-0.468,2.262-0.551,2.262,0.024c0,0.021,0,0.043,0,0.064
	c3.1-0.025,6.207-0.652,9.038-1.915C338.583,451.761,341.568,441.75,338.112,433.279z M336.076,434.779
	c2.443,7.887-1.544,15.521-9.565,17.799c-8.28,2.35-20.494,0.848-22.655-9.229c-1.775-8.279,3.117-15.89,11.174-18.094
	c0.028-0.008,0.049-0.007,0.076-0.014c0.13-0.055,0.263-0.11,0.432-0.154C323.894,422.939,333.296,425.799,336.076,434.779z
	 M332.917,434.837c-2.918-6.95-9.69-10.453-17.062-8.558c-0.039,0.01-0.067,0.009-0.105,0.017c-0.123,0.053-0.245,0.107-0.402,0.15
	c-6.898,1.888-10.66,10.237-8.383,16.89c2.785,8.138,13.609,11.501,21.059,7.277C333.583,447.46,335.346,440.622,332.917,434.837z
	 M325.402,442.401c-0.166,2.07-1.94,3.756-3.91,4.242c-0.076,0.019-0.148,0.023-0.225,0.04c0,0.341,0,0.683,0,1.024
	c0,0.995-2.902,1.603-2.902,0.344c0-0.496,0-0.991,0-1.487c-1.152-0.396-2.126-1.226-2.861-2.494
	c-0.609-1.054,2.213-1.962,2.691-1.137c0.047,0.081,0.105,0.178,0.17,0.281c0-1.328,0-2.656,0-3.984
	c-1.258-0.401-2.474-0.847-3.144-1.992c-1.437-2.458,0.601-4.901,3.144-6.042c0-0.549,0-1.098,0-1.647
	c0-0.995,2.902-1.603,2.902-0.344c0,0.441,0,0.883,0,1.325c1.378,0.007,2.577,0.55,3.104,1.849c0.374,0.922-2.483,1.797-2.898,0.776
	c-0.058-0.141-0.129-0.257-0.206-0.36c0,1.706,0,3.411,0,5.117C323.271,438.684,325.6,439.948,325.402,442.401z M318.365,436.518
	c0-1.089,0-2.178,0-3.268c-0.342,0.354-0.592,0.767-0.657,1.167C317.551,435.385,317.845,436.035,318.365,436.518z M322.369,441.993
	c-0.246-0.657-0.635-1.127-1.102-1.493c0,1.528,0,3.057,0,4.586c0.006-0.003,0.011-0.005,0.017-0.009
	C322.223,444.435,322.784,443.097,322.369,441.993z M509.2,457.242c-2.467,0.739-5.177,1.203-7.936,1.334
	c-0.019,6.696-0.129,13.391-0.132,20.087c-0.001,1.075-2.898,1.602-2.898,0.776c0.003-6.952,0.126-13.902,0.137-20.853
	c-8.835-0.342-17.475-4.273-19.609-13.707c-2.474-10.929,3.988-21.5,14.762-24.346c0.049-0.013,0.084-0.012,0.13-0.022
	c0.156-0.077,0.341-0.147,0.563-0.206c11.185-2.958,23.492,1.121,27.353,12.913C525.002,443.704,519.873,454.046,509.2,457.242z
	 M518.408,433.279c-3.981-9.758-13.677-14.559-23.893-11.857c-0.049,0.013-0.084,0.012-0.13,0.022
	c-0.155,0.077-0.341,0.147-0.563,0.206c-9.627,2.542-14.925,13.916-11.956,23.216c2.386,7.474,9.308,11.758,16.742,12.527
	c0.684-0.714,2.666-0.959,2.666-0.276c0,0.132-0.003,0.265-0.003,0.397c3.09-0.029,6.185-0.655,9.005-1.914
	C518.879,451.761,521.865,441.75,518.408,433.279z M516.372,434.779c2.442,7.887-1.544,15.521-9.565,17.799
	c-8.28,2.35-20.493,0.848-22.654-9.229c-1.774-8.278,3.116-15.89,11.172-18.094c0.028-0.008,0.049-0.007,0.076-0.014
	c0.13-0.055,0.264-0.11,0.432-0.154C504.189,422.939,513.592,425.799,516.372,434.779z M513.213,434.837
	c-2.918-6.95-9.69-10.453-17.061-8.558c-0.039,0.01-0.068,0.009-0.106,0.017c-0.123,0.053-0.245,0.107-0.401,0.15
	c-6.899,1.888-10.659,10.238-8.383,16.89c2.785,8.138,13.608,11.501,21.057,7.277C513.879,447.46,515.642,440.622,513.213,434.837z
	 M505.699,442.401c-0.167,2.07-1.941,3.756-3.91,4.242c-0.077,0.019-0.149,0.023-0.226,0.04c0,0.341,0,0.683,0,1.024
	c0,0.995-2.902,1.603-2.902,0.344c0-0.496,0-0.991,0-1.487c-1.152-0.396-2.126-1.226-2.86-2.494
	c-0.61-1.054,2.212-1.962,2.689-1.137c0.047,0.081,0.105,0.178,0.171,0.282c0-1.328,0-2.657,0-3.985
	c-1.258-0.401-2.474-0.847-3.144-1.992c-1.437-2.458,0.6-4.901,3.144-6.042c0-0.549,0-1.098,0-1.647
	c0-0.995,2.902-1.603,2.902-0.344c0,0.441,0,0.883,0,1.325c1.378,0.007,2.577,0.55,3.105,1.849c0.374,0.921-2.483,1.797-2.898,0.776
	c-0.058-0.142-0.129-0.258-0.207-0.361c0,1.706,0,3.412,0,5.118C503.568,438.685,505.896,439.949,505.699,442.401z M498.661,436.519
	c0-1.09,0-2.179,0-3.269c-0.342,0.354-0.593,0.767-0.657,1.167C497.847,435.385,498.141,436.036,498.661,436.519z M502.666,441.993
	c-0.246-0.657-0.635-1.127-1.103-1.493c0,1.528,0,3.057,0,4.586c0.006-0.003,0.011-0.005,0.017-0.009
	C502.52,444.435,503.08,443.097,502.666,441.993z M382.677,270.508c-0.646,0-1.513,0.224-1.917,0.775
	c-0.407,0.554,0.343,0.792,0.769,0.792c0.41,0,0.82,0,1.23,0c0.646,0,1.513-0.224,1.917-0.775c0.407-0.554-0.343-0.792-0.769-0.792
	C383.497,270.508,383.087,270.508,382.677,270.508z M388.969,275.966c-0.111-0.043-0.09-0.039,0.064,0.015
	c-0.054-0.017,0.269,0.195,0.252,0.183c0.265,0.189,0.489,0.439,0.719,0.668c0.509,0.509,1.342,0.439,1.952,0.157
	c0.409-0.189,1.225-0.877,0.712-1.39c-0.756-0.755-1.533-1.518-2.658-1.596c-0.679-0.047-1.552,0.214-1.895,0.857
	C387.784,275.484,388.4,275.926,388.969,275.966z M398.016,285.481c0.518,0.542,1.32,0.556,1.974,0.237
	c0.463-0.226,1.193-0.988,0.675-1.53c-0.713-0.746-1.135-1.716-1.847-2.463c-0.517-0.542-1.321-0.555-1.974-0.237
	c-0.464,0.226-1.192,0.987-0.675,1.53C396.881,283.765,397.303,284.736,398.016,285.481z M402.404,290.184
	c-0.422,0.198-1.22,0.913-0.701,1.432c0.615,0.616,1.231,1.231,1.847,1.847c0.517,0.517,1.332,0.476,1.959,0.182
	c0.422-0.198,1.22-0.913,0.701-1.432c-0.615-0.616-1.231-1.231-1.847-1.847C403.847,289.849,403.031,289.89,402.404,290.184z
	 M407.069,300.884c0.098,0.075,0.181,0.174,0.271,0.257c0.242,0.22,0.593,0.231,0.899,0.254c0.66,0.048,1.484-0.22,2.049-0.549
	c0.098-0.057,0.395-0.222,0.35-0.393c-0.048-0.176-0.385-0.158-0.5-0.166c0.211,0.016,0-0.059-0.061-0.104
	c-0.097-0.075-0.18-0.174-0.271-0.257c-0.242-0.22-0.594-0.231-0.9-0.254c-0.661-0.048-1.484,0.22-2.049,0.549
	c-0.098,0.057-0.396,0.222-0.35,0.393c0.048,0.176,0.385,0.158,0.5,0.166C406.798,300.764,407.01,300.838,407.069,300.884z
	 M380.148,265.145c-0.422,0.544,0.356,0.744,0.756,0.744c0.821,0,1.643,0,2.463,0c0.641,0,1.508-0.23,1.92-0.763
	c0.422-0.544-0.356-0.744-0.756-0.744c-0.821,0-1.643,0-2.463,0C381.428,264.382,380.561,264.612,380.148,265.145z M393.929,268.322
	c-0.402-0.375-1.461-0.025-1.876,0.129c-0.216,0.081-1.253,0.506-0.847,0.885c0.553,0.515,1.294,0.716,1.847,1.231
	c0.401,0.375,1.462,0.025,1.875-0.129c0.217-0.081,1.254-0.506,0.848-0.885C395.223,269.038,394.481,268.836,393.929,268.322z
	 M400.479,276.872c0.537,0.537,1.3,0.596,1.98,0.26c0.462-0.229,1.2-1.033,0.664-1.57c-0.821-0.821-1.642-1.642-2.462-2.462
	c-0.537-0.537-1.3-0.597-1.98-0.26c-0.462,0.229-1.2,1.033-0.664,1.57C398.839,275.229,399.659,276.05,400.479,276.872z
	 M408.355,285.223c0.318,0.597,1.082,0.583,1.667,0.426c0.347-0.093,1.54-0.623,1.231-1.202c-0.749-1.402-2.078-2.194-3.188-3.281
	c-0.492-0.482-1.366-0.341-1.935-0.091c-0.365,0.161-1.242,0.785-0.743,1.272C406.333,283.272,407.719,284.029,408.355,285.223z
	 M412.334,290.417c1.085,0.581,1.651,1.756,2.178,2.809c0.458,0.915,3.264-0.045,2.898-0.776c-0.676-1.352-1.371-2.613-2.748-3.349
	c-0.569-0.305-1.535,0.014-2.043,0.301C412.218,289.629,411.753,290.107,412.334,290.417z M417.444,297.651
	c-0.575,0.456-0.638,1.092-0.128,1.603c0.242,0.242,0.849,0.825,0.865,1.062c0.052,0.739,0.648,1.089,1.365,1.045
	c0.57-0.035,1.633-0.49,1.582-1.225c-0.081-1.151-0.823-1.855-1.6-2.632C419.012,296.986,417.936,297.262,417.444,297.651z
	 M379.711,261.101c0.82,0,1.641,0,2.462,0c0.67,0,1.525-0.201,1.905-0.82c0.355-0.581-0.301-0.961-0.815-0.961
	c-0.82,0-1.642,0-2.462,0c-0.67,0-1.525,0.201-1.904,0.82C378.54,260.72,379.195,261.101,379.711,261.101z M389.538,262.248
	c1.365,0.027,2.518,0.516,3.721,1.117c0.605,0.303,1.51,0.047,2.05-0.277c0.396-0.237,0.873-0.801,0.261-1.107
	c-1.573-0.786-3.12-1.311-4.896-1.346c-0.646-0.013-1.521,0.226-1.914,0.785C388.359,261.985,389.096,262.24,389.538,262.248z
	 M402.709,268.188c0.682,0.03,1.472-0.187,2.049-0.549c0.471-0.296,0.38-0.607-0.17-0.632c0.15,0.007-0.225-0.052-0.276-0.066
	c-0.208-0.06-0.402-0.158-0.595-0.254c-0.424-0.212-0.822-0.485-1.165-0.813c-0.152-0.146-0.562-0.104-0.737-0.089
	c-0.384,0.032-0.767,0.124-1.129,0.254c-0.2,0.072-1.239,0.463-0.864,0.821C400.571,267.576,401.66,268.141,402.709,268.188z
	 M407.402,271.92c1.071,0.537,2.213,1.122,2.8,2.222c0.456,0.854,3.233-0.149,2.898-0.776c-0.729-1.363-2.022-2.037-3.354-2.704
	c-0.564-0.283-1.534,0.052-2.038,0.322C407.328,271.188,406.823,271.631,407.402,271.92z M415.359,279.975
	c0.945,0.021,1.807,0.763,2.23,1.555c0.445,0.832,3.217-0.18,2.898-0.776c-0.813-1.519-2.267-2.101-3.926-2.139
	c-0.62-0.014-1.505,0.254-1.929,0.732C414.174,279.866,415.031,279.967,415.359,279.975z M422.601,289.646
	c0.552,0.551,3.217-0.514,2.727-1.004c-0.616-0.615-1.231-1.231-1.847-1.847c-0.552-0.551-3.217,0.514-2.727,1.004
	C421.37,288.415,421.985,289.03,422.601,289.646z M429.002,299.826c0.661,0.353,1.474,0.272,2.077-0.178
	c0.437-0.325,0.813-1.136,0.159-1.486c-0.898-0.48-1.474-1.319-1.498-2.358c-0.016-0.722-0.687-0.99-1.336-0.939
	c-0.551,0.042-1.614,0.453-1.598,1.165C426.843,297.619,427.563,299.057,429.002,299.826z" fill="#8b572a"></path>
</svg>