<svg xmlns="http://www.w3.org/2000/svg" version="1.1" xmlns:xlink="http://www.w3.org/1999/xlink" xmlns:svgjs="http://svgjs.com/svgjs" width="512" height="512" x="0" y="0" viewBox="0 0 451.185 451.185" style="enable-background:new 0 0 512 512" xml:space="preserve" class=""><g><path d="M58.503 284.096C26.244 284.096 0 257.851 0 225.592s26.244-58.503 58.503-58.503c32.262 0 58.507 26.244 58.507 58.503s-26.244 58.504-58.507 58.504zm0-95.522c-20.411 0-37.018 16.607-37.018 37.018s16.607 37.018 37.018 37.018c20.415 0 37.022-16.607 37.022-37.018s-16.607-37.018-37.022-37.018zM225.592 284.096c-32.259 0-58.503-26.244-58.503-58.503s26.244-58.503 58.503-58.503 58.503 26.244 58.503 58.503-26.244 58.503-58.503 58.503zm0-95.522c-20.411 0-37.018 16.607-37.018 37.018s16.607 37.018 37.018 37.018 37.018-16.607 37.018-37.018-16.606-37.018-37.018-37.018zM392.681 284.096c-32.262 0-58.507-26.244-58.507-58.503s26.244-58.503 58.507-58.503c32.259 0 58.503 26.244 58.503 58.503s-26.244 58.503-58.503 58.503zm0-95.522c-20.415 0-37.022 16.607-37.022 37.018s16.607 37.018 37.022 37.018c20.411 0 37.018-16.607 37.018-37.018s-16.606-37.018-37.018-37.018z" fill="#efdca4" data-original="#000000" class=""></path></g></svg>