<svg xmlns="http://www.w3.org/2000/svg" version="1.1" xmlns:xlink="http://www.w3.org/1999/xlink" xmlns:svgjs="http://svgjs.com/svgjs" width="512" height="512" x="0" y="0" viewBox="0 0 512 512" style="enable-background:new 0 0 512 512" xml:space="preserve" class=""><g><path d="M487.2 24.693c-16.58-15.051-45.068-14.247-72.576 2.048-82.079 48.622-144.058 108.073-181.6 149.384a794.297 794.297 0 0 0-28.909 33.641c-6.131-63.327-45.821-95.538-79.215-111.566-38.188-18.333-75.432-19.779-77-19.831a5 5 0 0 0-4.018 8.187c21.1 25.463 48.334 64.627 58.245 106.61 3.481 14.747 3.824 25.776 3.514 32.369-18.555-10.1-36.09-13.449-52.327-9.952-27.892 6.008-41.159 30.029-41.71 31.049a5 5 0 0 0 4.928 7.349c18.087-1.926 31.859 1.671 40.93 10.7 13.268 13.2 13.154 34.614 12.878 40.181-11.055 14-21.28 29.541-27.7 49.878-7.528 23.834-7.155 42.272-3.422 56.209l-18.431 20.917a10.829 10.829 0 0 0 1.035 15.343L77.5 495.47a10.909 10.909 0 0 0 15.151-.918l17.493-19.33c1.6.4 3.229.772 4.906 1.078a78.63 78.63 0 0 0 14.111 1.277c21.456 0 43.358-8.767 65.294-26.174 69.506-55.154 102.33-77.47 152.016-28.435a9.8 9.8 0 0 0 16.62-8.03c-3.574-33.258-16.468-59.309-38.346-77.572 14.2-3.607 42.957-8.006 69.151 5.856 25.03 13.247 42.208 39.971 51.056 79.431a8 8 0 0 0 7.725 6.266h.108a7.962 7.962 0 0 0 7.746-6.034c7.767-30.809 8.182-58.927 1.236-83.575a119.31 119.31 0 0 0-30.743-52.344 143.348 143.348 0 0 0-47.934-31.422c61.429-67.64 91.273-117.783 105.532-148.211 16.995-36.269 16.478-66.39-1.422-82.64zM429.706 52.88q-9.529 7.186-19.91 15.656c-8.085-6.476-15.082-11.353-19.878-14.509q10.305-6.819 21.112-13.44a148.079 148.079 0 0 1 18.676 12.293zm-27.858 22.226q-10.1 8.448-20.93 18.009c-9.451-7.476-17.654-13.2-22.93-16.716q11.092-8.207 22.887-16.279a251.457 251.457 0 0 1 20.973 14.986zm-96.427 103.632q9.115-9.153 18.45-18.331c10.354 9.271 21.757 20.055 32.614 31.51q-9.138 9.672-19.006 19.885a414.125 414.125 0 0 0-32.058-33.064zm29.6-21.777q-2-1.826-3.965-3.584a1937.847 1937.847 0 0 1 22.8-21.852 306.051 306.051 0 0 1 30.422 30.411q-9.924 10.923-20.912 22.663-12.642-13.309-28.344-27.638zm26.28-32.405q10.017-9.321 19.955-18.236a279.167 279.167 0 0 1 28.451 27.03q-8.784 10.1-18.613 21.047a311.365 311.365 0 0 0-29.794-29.841zM391.708 102a326.979 326.979 0 0 0-2.864-2.427q10.6-9.345 20.926-17.966a257.057 257.057 0 0 1 24.053 23.283q-8.148 9.886-17.494 20.792A282.33 282.33 0 0 0 391.708 102zm-18.4-2.1q-9.609 8.631-19.769 18.1a248.419 248.419 0 0 0-25.456-18.329q10.325-8.442 21.394-16.9C353.827 85.614 362.7 91.6 373.3 99.9zM346.079 125q-10.984 10.367-22.589 21.683c-10.956-9.537-20.2-16.991-25.493-21.165q10.445-9.424 21.91-19.08a234.562 234.562 0 0 1 26.168 18.568zM316.3 153.727q-9.006 8.86-18.374 18.276a326.864 326.864 0 0 0-26.718-21.2q9.109-8.987 19.3-18.439c4.775 3.744 14.258 11.336 25.792 21.363zm-25.5 25.466c-1.328 1.345-2.645 2.672-3.983 4.033q-8.414 8.551-16.534 16.951c-11.354-9.992-20.891-17.267-26.3-21.215a815.1 815.1 0 0 1 20.016-20.967 319.646 319.646 0 0 1 26.801 21.198zm7.5 6.727a410.257 410.257 0 0 1 32.145 33.135 2702.878 2702.878 0 0 1-20.849 21.162 363.889 363.889 0 0 0-31.836-33.294q10.02-10.354 20.54-21.003zm4.127 61.467a2839.48 2839.48 0 0 1-23.218 22.877 394.214 394.214 0 0 0-30.78-32.639 3281.59 3281.59 0 0 1 22.295-23.411 360.054 360.054 0 0 1 31.698 33.173zm-30.474 29.919a2615.442 2615.442 0 0 1-18.958 18.154A338.146 338.146 0 0 0 222.7 265.2a3434.08 3434.08 0 0 1 18.8-20.2 391.3 391.3 0 0 1 30.448 32.306zM215.141 258.6a559.886 559.886 0 0 0-22.23-18.1 684.533 684.533 0 0 1 17.227-22.283c4.669 3.524 13.34 10.343 23.982 19.957a3424.85 3424.85 0 0 0-18.979 20.426zm-28.112-9.989a562.405 562.405 0 0 1 21.313 17.385 3450.037 3450.037 0 0 0-15.86 17.416c-5.228-4.732-9.49-8.155-11.838-9.973q-.218-7.367-.873-14.3c1.196-1.814 3.629-5.427 7.258-10.532zm-6.361 37.764a214.432 214.432 0 0 1 5.1 4.48q-3.087 3.437-5.62 6.273.387-5.48.52-10.757zm12.375 11.364a203.783 203.783 0 0 1 9.3 9.831 269.836 269.836 0 0 0-20.107 2.261c2.63-2.968 6.282-7.063 10.807-12.096zm21.855 9.183a205.431 205.431 0 0 0-15.138-16.627c4.753-5.251 10.167-11.2 16.135-17.7A328.871 328.871 0 0 1 245.7 302.33c-2.429 2.279-4.276 4-5.467 5.106a240.9 240.9 0 0 0-16.436-.623c-3.051-.019-6.017.023-8.897.105zm49.757 3.724a126.96 126.96 0 0 0-5.32-7.42 2553.982 2553.982 0 0 0 18.95-18.133 301.181 301.181 0 0 1 24.923 36.563c-.443.4-.854.777-1.221 1.11a151.743 151.743 0 0 0-37.332-12.124zm46.08 4.054a316.944 316.944 0 0 0-25.188-36.652 2892.95 2892.95 0 0 0 23.188-22.83 229.683 229.683 0 0 1 24.332 37.965 1119.465 1119.465 0 0 1-22.332 21.517zm29.77-28.945a246.135 246.135 0 0 0-24.587-37.717 2787.646 2787.646 0 0 0 21.007-21.3 392.737 392.737 0 0 1 26.164 35.623 1200.636 1200.636 0 0 1-22.584 23.39zm29.6-30.938a408.12 408.12 0 0 0-26.131-35.34q10.036-10.377 19.319-20.2c10.007 11.092 19.207 22.623 26.249 33.867a1055.019 1055.019 0 0 1-19.442 21.669zm.091-62.874q10.8-11.53 20.58-22.282a304.714 304.714 0 0 1 23.757 33.594 892.676 892.676 0 0 1-18.178 22 269.5 269.5 0 0 0-26.162-33.316zm27.414-29.833q9.868-10.964 18.687-21.1c8.463 10.365 15.748 21.55 20.383 33.122q-7.586 10.53-15.557 20.76a319.086 319.086 0 0 0-23.516-32.786zm25.362-28.811q9.333-10.858 17.476-20.724a186.073 186.073 0 0 1 18.962 27.556c-5.034 8.206-10.391 16.376-15.985 24.456a149.044 149.044 0 0 0-20.456-31.292zm23.967-28.645q8.612-10.6 15.862-19.988a225.877 225.877 0 0 1 15.563 20.934c-3.936 8.206-8.331 16.454-13.094 24.691a203.208 203.208 0 0 0-18.334-25.641zM440.266 97a262.906 262.906 0 0 0-22.584-21.912c6.86-5.578 13.574-10.839 20.092-15.718a208.939 208.939 0 0 1 18.305 17.634Q448.851 86.387 440.266 97zm5.834-43.728a270.737 270.737 0 0 1 34.192-21.332c.061.054.125.1.185.158a28.035 28.035 0 0 1 4.356 5.078c-5.905 8.878-13.316 19.418-22.575 31.72A217.13 217.13 0 0 0 446.1 53.272zm24.01-27.254a315.025 315.025 0 0 0-32 20.641 172.214 172.214 0 0 0-17.236-11.979c17.979-10.333 35.968-13.308 49.236-8.662zM237.2 186.421c4.9 3.586 14.476 10.86 26.046 21.048a3135.663 3135.663 0 0 0-22.2 23.334c-10.74-9.688-19.567-16.609-24.563-20.358a792.762 792.762 0 0 1 20.717-24.024zM59.049 89.437c13.646 1.755 37.586 6.284 61.519 17.773 21.138 10.147 38.067 23.666 50.317 40.181 15 20.216 23.034 45.133 23.938 74.062-7.254 9.32-12.927 17.088-16.966 22.806-6.856-41.695-24.23-69.389-33.771-81.973a8.394 8.394 0 0 0-15.074 5.391c1.085 28.075-2.759 49.2-9.5 66.537q-2.154-1.518-4.293-2.925c1.759-13.83 3.246-66.005-56.17-141.852zm5.517 168.2c-9.341-9.326-22.228-14.072-38.407-14.168 5.639-6.526 15.419-15.171 29.376-18.141 17.817-3.793 37.951 2.354 59.891 18.255-8.631 17.838-20.371 31.722-32.445 45.977l-3.009 3.557c-1.117-10.517-4.729-24.817-15.406-35.479zM52.17 357.746c8.23-26.055 22.905-43.38 38.442-61.723 24.446-28.86 49.7-58.682 48.541-123.52 14.5 20.773 39.91 69.3 28.915 143.169-12.656 62.454-78.133 115.561-93.534 127.311a140.102 140.102 0 0 0-7.73-6.582c-28.53-22.484-19.739-62.496-14.634-78.655zm33.066 130.1a.854.854 0 0 1-1.186.071l-55.679-48.265a.828.828 0 0 1-.08-1.176l14.785-16.789a61.367 61.367 0 0 0 17.538 22.568c3.284 2.589 6.59 5.481 10.106 8.844a92.525 92.525 0 0 0 28.985 18.754zm267.915-71.836 4.968-.534-4.97.553zm-.064-.558c-55.284-54.239-94.6-27.623-164.848 28.121-50.857 40.356-88.756 20.679-106.162 6.255a355.1 355.1 0 0 0 39.586-35.838c20.705-21.8 46.832-55.41 55.518-93.166 15.884-2.871 88.93-13.681 135.742 20.014 22.99 16.545 36.502 41.647 40.164 74.61zm99.055-73.426c5.858 20.786 6.047 44.395.579 70.283-10.05-38.059-28.272-64.267-54.238-77.969-35.529-18.75-73.76-7.9-83.871-4.446q-1.643-1.069-3.315-2.077c10.49-9.594 35.724-33.251 64.5-64.311a133.685 133.685 0 0 1 48.144 30.519 109.418 109.418 0 0 1 28.201 47.997zm31.027-247.172A236.59 236.59 0 0 0 469.045 76.5C477.2 65.716 483.98 56.236 489.6 48c2.618 10.1 2.37 25.115-6.431 46.854z" fill="#000000" data-original="#000000"></path></g></svg>