<svg xmlns="http://www.w3.org/2000/svg" version="1.1" xmlns:xlink="http://www.w3.org/1999/xlink" xmlns:svgjs="http://svgjs.com/svgjs" width="512" height="512" x="0" y="0" viewBox="0 0 511.999 511.999" style="enable-background:new 0 0 512 512" xml:space="preserve" class=""><g><path d="M493.832 18.168c-14.501-14.502-43.555-27.774-99.617-8.662-45.102 15.376-99.32 48.683-161.295 99.055-4.968-10.845-11.809-16.637-17.569-19.717a10.003 10.003 0 0 0-11.787 1.748c-28.431 28.431-57.832 53.997-83.771 76.554C54.015 224.345 2.059 269.526.06 326.913c-1.314 37.72 18.993 76.206 63.906 121.121 43.638 43.636 81.059 63.962 117.768 63.964h.007c58.947 0 104.918-52.862 163.111-119.787 22.558-25.94 48.125-55.343 76.559-83.775a10.001 10.001 0 0 0 1.747-11.787c-3.246-6.068-9.117-12.77-19.685-17.609 50.354-61.958 83.649-116.161 99.022-161.255 19.113-56.062 5.839-85.116-8.663-99.617zm-158.28 233.676 20.744 20.744c-14.524.888-30.875 3.707-48.607 8.531a3691.773 3691.773 0 0 0 27.863-29.275zm-45.197 18.439-48.638-48.639a3743.404 3743.404 0 0 1 32.59-31.046l47.094 47.095a3671.796 3671.796 0 0 1-31.046 32.59zm44.713-47.21-46.142-46.141a2619.188 2619.188 0 0 1 33.252-30.385l43.275 43.275a2613.125 2613.125 0 0 1-30.385 33.251zm2.084-89.836c11.987-10.556 23.408-20.358 34.246-29.392l36.757 36.757c-9.034 10.839-18.836 22.26-29.392 34.246l-41.611-41.611zm49.784-42.139a967.019 967.019 0 0 1 20.193-15.869 678.716 678.716 0 0 1 15.836-11.739l25.546 25.545a676.603 676.603 0 0 1-11.739 15.836 966.3 966.3 0 0 1-15.869 20.193l-33.967-33.966zm52.791-39.13c25.26-16.488 35.835-18.891 39.403-19.1-.208 3.569-2.609 14.145-19.098 39.405l-20.305-20.305zm14.079-31.289c-8.191 4.021-17.723 9.66-28.51 16.857l-12.722-12.722c16.393-4.434 30.107-5.586 41.232-4.135zm-62.473 11.18 17.307 17.307a668.364 668.364 0 0 0-5.056 3.705c-9.636 7.139-19.936 15.149-30.873 24.002l-24.41-24.409c15.696-8.766 30.032-15.562 43.032-20.605zm-60.857 31.063 26.715 26.716c-10.841 9.061-22.255 18.879-34.213 29.423l-30.713-30.713c13.458-9.601 26.192-18.049 38.211-25.426zm-54.54 37.383 32.077 32.077a2671.537 2671.537 0 0 0-33.242 30.395l-34.443-34.443c12.357-10.163 24.22-19.483 35.608-28.029zm-36.534 55.388 20.755 20.756a3694.125 3694.125 0 0 0-29.359 27.945c4.781-17.499 7.687-33.924 8.604-48.701zm-12.053 79.868 49.09 49.09a4524.465 4524.465 0 0 1-10.3 10.552 468.985 468.985 0 0 0-29.637 13.149l-32.901-32.9a494.447 494.447 0 0 0 3.918-8.276 458.106 458.106 0 0 0 9.148-21.187c3.591-3.518 7.15-6.991 10.682-10.428zm-9.574 82.348c-20.254 10.843-41.163 23.693-62.332 38.629 15.993-22.7 28.67-43.791 38.605-62.357l23.727 23.728zm-171.11 79.892c18.942-23.959 31.091-46.628 35.652-55.743 2.472-4.939.472-10.947-4.467-13.418a9.995 9.995 0 0 0-13.418 4.467c-3.938 7.867-13.908 26.515-29.348 46.977-10.647-18.623-15.611-36.018-15.038-52.475 1.697-48.696 50.757-91.359 112.87-145.37 24.256-21.094 51.507-44.79 78.38-71.157 3.569 4.488 5.607 10.686 6.772 16.412.014.072.027.145.042.216.246 1.228.454 2.435.625 3.595 2.929 19.758-.2 46.019-9.416 76.265a9.963 9.963 0 0 0-1.068 3.433c-2.466 7.786-5.326 15.823-8.586 24.073a9.932 9.932 0 0 0-1.275 3.183c-23.29 57.536-65.638 124.958-127.318 188.426-9.473-9.953-17.594-19.567-24.407-28.884zm283.094-18.713c-54.856 63.085-98.185 112.914-148.025 112.91-17.129-.001-35.279-5.948-54.788-18.025 20.604-15.596 39.432-25.667 47.348-29.628 4.939-2.473 6.939-8.479 4.467-13.418-2.473-4.939-8.479-6.939-13.418-4.467-9.1 4.553-31.702 16.665-55.602 35.538-7.915-6.086-16.048-13.098-24.424-21.072 48.082-46.735 101.386-85.33 154.682-111.937 46.735-23.334 92.704-36.716 126.122-36.716 15.75 0 27.913 3.016 34.782 8.447-26.361 26.869-50.057 54.117-71.144 78.368zm53.907-107.417-34.443-34.442a2670.198 2670.198 0 0 0 30.395-33.242l32.077 32.077c-8.546 11.389-17.867 23.252-28.029 35.607zm39.985-51.936-30.713-30.713c10.546-11.959 20.364-23.372 29.423-34.214l26.715 26.715c-7.375 12.02-15.823 24.754-25.425 38.212zm35.886-56.037-24.409-24.408c8.853-10.939 16.864-21.238 24.003-30.874a668.364 668.364 0 0 0 3.705-5.056l17.306 17.306c-5.044 13-11.839 27.337-20.605 43.032zm27.647-64.272-12.721-12.722c7.197-10.787 12.835-20.319 16.856-28.509 1.452 11.124.299 24.837-4.135 41.231z" fill="#000000" data-original="#000000" class=""></path><path d="M87.92 301.88c-5.239-1.744-10.91 1.121-12.657 6.359-1.779 5.228 1.016 10.91 6.244 12.689 1.068.363 2.155.537 3.224.537 4.163 0 8.05-2.621 9.466-6.781l.067-.199c1.74-5.239-1.105-10.863-6.344-12.605zM199.293 414.299c-5.239-1.744-10.91 1.121-12.657 6.359-1.779 5.228 1.016 10.91 6.244 12.689 1.068.363 2.155.537 3.224.537 4.163 0 8.05-2.621 9.466-6.781l.067-.199c1.74-5.238-1.105-10.863-6.344-12.605z" fill="#000000" data-original="#000000" class=""></path><path d="m192.564 414.634.002.004c.05-.018.097-.041.148-.059l-.15.055z" fill="#000000" data-original="#000000" class=""></path></g></svg>