<svg xmlns="http://www.w3.org/2000/svg" version="1.1" xmlns:xlink="http://www.w3.org/1999/xlink" xmlns:svgjs="http://svgjs.com/svgjs" width="512" height="512" x="0" y="0" viewBox="0 0 64 64" style="enable-background:new 0 0 512 512" xml:space="preserve" class=""><g><path d="M2.738 15.863a1 1 0 0 0-1.154.567c-.164.371-3.967 9.139.823 13.5 3.493 3.178 4.95 9.36 5.272 10.93l-.043.013c.034.115.077.226.112.34v.017a29.378 29.378 0 0 0 7.2 12.354 12.459 12.459 0 0 0 7.019 3.726l1.333 4.435a3 3 0 1 0 5.746-1.727l-1.34-4.456a9.839 9.839 0 0 0 2.262-2.791c5.373-.027 11.886-4.512 16.541-11.412l.009.006a62.15 62.15 0 0 1 5.664-6.853C56.416 29.926 58.6 23 58.691 22.706a1 1 0 0 0-1.83-.78 26.334 26.334 0 0 1-3.235 4.243 24.156 24.156 0 0 0 2.317-8.612c1.973-6.2 6.967-7.481 7.176-7.532a1 1 0 0 0 .181-1.888A9.9 9.9 0 0 0 53.013 9.77c-.035-.024-.064-.055-.1-.079a6.289 6.289 0 0 0-3.8-.958 8.091 8.091 0 0 0-1.56-4.88 1 1 0 0 0-1.763.825c.2.95-1.313 3.77-5.129 7.934l-.357.3c-.009.006-.017.015-.026.022a28.375 28.375 0 0 0-2.24 2.15A14.849 14.849 0 0 1 42.4 9.206a1 1 0 0 0-.87-1.767c-.389.114-9.549 2.847-9.8 9.32a15.543 15.543 0 0 1-1.914 6.33 1 1 0 1 0 1.776.911 17.487 17.487 0 0 0 2.133-7.166c.1-2.453 2.065-4.285 4.067-5.523a16.244 16.244 0 0 0-2.68 11.408c.882 6.79-2.143 13.252-3.471 15.7a35.211 35.211 0 0 0-.89-3.972h.013a61.823 61.823 0 0 1-1.6-8.745c-.789-6.187-4.684-12.318-4.85-12.576a1 1 0 0 0-1.774.9 26.385 26.385 0 0 1 1.164 5.2 25.326 25.326 0 0 0-4.491-6.719c-.194-.2-.391-.374-.587-.559-3.509-5.518-1.26-10.184-1.164-10.377a1 1 0 0 0-1.333-1.35 9.9 9.9 0 0 0-5.368 8.92c-.041.012-.084.014-.125.026a6.285 6.285 0 0 0-3.181 2.293 8.1 8.1 0 0 0-4.738-1.948 1.026 1.026 0 0 0-1 .741 1 1 0 0 0 .492 1.14c.854.458 2.04 3.428 2.769 9.027v.503a28.482 28.482 0 0 0 .2 3.1A14.851 14.851 0 0 1 3.5 16.9a1 1 0 0 0-.762-1.037zm12.4 1.347-3.831 1.151-1.151-3.83 3.831-1.151zm7.293 4.073-3.651 1.1-1.151-3.83 2.967-.891a28.555 28.555 0 0 1 1.839 3.621zm.118 13.834a.968.968 0 0 0-.027-.287l-1.439-4.787 2.639-.793a41.934 41.934 0 0 1-1.169 5.867zm1.07-10.537c.139.463.262.924.378 1.383-.015.371-.037.75-.065 1.134l-3.424 1.03L19.36 24.3l3.8-1.141c.159.465.317.941.463 1.421zm-8.858 5.274-1.151-3.83 3.831-1.152L18.6 28.7zm2.1-6.9-3.831 1.151-1.151-3.83 3.831-1.151zm-8.817-8.49L9.4 18.937l-2.373.713a15.735 15.735 0 0 1 1.025-5.184zm1.92 6.387 1.151 3.83-3.634 1.097a28.728 28.728 0 0 1-.463-4.037zM11.7 26.6l1.15 3.83-.933.28a22.73 22.73 0 0 0-1.688-1.217 15.092 15.092 0 0 1-2.261-1.772zm7.473 4.019 1.151 3.83-3.73 1.122a26.752 26.752 0 0 0-2.888-3.308zm2.684 5.458a.99.99 0 0 0 .554-.435 44.149 44.149 0 0 1-1.947 5.4c-.105.243-.184.467-.283.7a33.99 33.99 0 0 0-2.4-4.446zm5.282 24.518a1 1 0 0 1-1.916.575l-1.173-3.9a6.389 6.389 0 0 0 1.913-.585zm20.053-49.468-2.555 3.9-2.072-1.356a15.72 15.72 0 0 1 4.627-2.544zM48.5 12.78l3.347 2.19-2.19 3.347-3.347-2.19zM36.542 31.246a26.9 26.9 0 0 0 .673-4.34l.592.387 4.182 2.738-2.189 3.347zm4.385 4.065 2.738-4.184 2.3 1.508a41.723 41.723 0 0 1-5.2 2.859.991.991 0 0 0 .162-.183zm8.55-5.759c-.265.4-.539.8-.815 1.18-.294.227-.6.453-.909.68l-2.993-1.959 2.191-3.347 3.315 2.17c-.252.424-.513.853-.789 1.276zm1.753-3.035-3.184-2.084 2.19-3.347 2.583 1.691a28.953 28.953 0 0 1-1.589 3.74zm.1-7.1 2.57-3.926a15.6 15.6 0 0 1-.49 5.287zm-2.768.579-2.191 3.346-3.346-2.19 2.19-3.346zm-3.286 5.02-2.19 3.347-3.347-2.19 2.19-3.347zm-7.211.061-.816-.534a21.289 21.289 0 0 0-.155-2.074 15.137 15.137 0 0 1-.1-2.872l3.26 2.134zm-2.083 8.2 3.56 2.323a1 1 0 0 0 .547.163.981.981 0 0 0 .134-.017 44.092 44.092 0 0 1-5.376 1.983c-.245.073-.479.149-.716.224a33.858 33.858 0 0 0 1.852-4.683zm14.736-.114a70.555 70.555 0 0 0-5.582 6.7l-.011-.006c-3.98 6.082-9.62 10.336-14.23 10.857a17.487 17.487 0 0 0 .625-2.1 25.545 25.545 0 0 0 .423-7.747c1.045-.427 2.2-.833 3.473-1.21a43.258 43.258 0 0 0 18.232-10.56 23.328 23.328 0 0 1-2.929 4.059zm9.1-23.822a13.028 13.028 0 0 0-4.245 4.271 7.555 7.555 0 0 0-1.115-2.424 8.489 8.489 0 0 1 5.359-1.854zm-6.636 3.6-.237.363-3.345-2.197.234-.359a3.8 3.8 0 0 1 3.35 2.186zM47.009 7.47a5.168 5.168 0 0 1 .076 1.6 12.551 12.551 0 0 0-1.3.423 17.725 17.725 0 0 0 1.224-2.023zm-6.047 7.547 2.58 1.688-2.19 3.347-3.182-2.082a28.5 28.5 0 0 1 2.792-2.953zM27.181 25.951a70.518 70.518 0 0 0 1.535 8.585h-.011a27.566 27.566 0 0 1 .865 13.625c-.837 3.716-2.626 6.171-5.038 6.938a4.412 4.412 0 0 1-3.642-1.579c-1.048-1.445-1.655-4.645 1.407-11.685a43.245 43.245 0 0 0 3.656-20.751 23.347 23.347 0 0 1 1.228 4.867zm-7.728-10.036-2.4.72-1.35-4.493a12.855 12.855 0 0 1 2.071 1.758 19.144 19.144 0 0 1 1.679 2.015zM14.808 3.653a13.013 13.013 0 0 0 .536 6 7.513 7.513 0 0 0-2.577-.71 8.457 8.457 0 0 1 2.041-5.29zm-3.6 7.43a4.123 4.123 0 0 1 2.077-.038l.126.419-3.827 1.151-.123-.41a4.064 4.064 0 0 1 1.751-1.122zm-4.8 2.141a12.2 12.2 0 0 0-.515 1.268 17.664 17.664 0 0 0-.76-2.246 5.186 5.186 0 0 1 1.274.978zm2.741 17.953c6.279 4.026 9.273 11.342 10 13.347-1.37 4.208-1.434 7.432-.189 9.624a14.218 14.218 0 0 1-2.619-2.007 27.323 27.323 0 0 1-6.649-11.417C9.464 39.5 7.966 32.285 3.753 28.45 1.938 26.8 1.8 24.111 2.146 21.782a16.237 16.237 0 0 0 7.003 9.395z" fill="#000000" data-original="#000000" class=""></path></g></svg>