<svg xmlns="http://www.w3.org/2000/svg" version="1.1" xmlns:xlink="http://www.w3.org/1999/xlink" xmlns:svgjs="http://svgjs.com/svgjs" width="512" height="512" x="0" y="0" viewBox="0 0 64 64" style="enable-background:new 0 0 512 512" xml:space="preserve" class=""><g><path d="M63.671 28.665A.749.749 0 0 0 63 28.25a16.168 16.168 0 0 0-3.62.414 9.242 9.242 0 0 1 3.07-4.064.741.741 0 0 0 .234-.838.787.787 0 0 0-.74-.513 15.172 15.172 0 0 0-4.3.63C56.967 10.341 52.974.25 48 .25c-5.249 0-9.4 11.239-9.727 25.908A15.966 15.966 0 0 0 33 25.25a.75.75 0 0 0-.6 1.2 28.889 28.889 0 0 1 3.363 5.823A16.074 16.074 0 0 0 35 32.25a.75.75 0 0 0-.45 1.35 9.278 9.278 0 0 1 3.7 7.4v8a9.763 9.763 0 0 0 7 9.349V61a2.75 2.75 0 0 0 5.5 0v-2.651a9.763 9.763 0 0 0 7-9.349v-2a29.437 29.437 0 0 1 5.85-17.55.748.748 0 0 0 .071-.785zM59.928 24.9a10.756 10.756 0 0 0-2.19 3.962c0-.288.012-.571.012-.861q0-1.3-.041-2.562a13.756 13.756 0 0 1 2.219-.539zM56.25 28c0 .378-.01.749-.015 1.123a39.9 39.9 0 0 0-4.488-.678V28c0-.49 0-1.2-.01-2.051a38.43 38.43 0 0 1 4.5.7q.013.673.013 1.351zm-1.278 2.4a16.09 16.09 0 0 0-3.272 2.473c.02-.97.034-1.943.042-2.925a37.32 37.32 0 0 1 3.23.452zm1.229-5.28a39.829 39.829 0 0 0-4.479-.673c-.012-.766-.028-1.606-.05-2.5a38.121 38.121 0 0 1 4.4.675c.056.81.1 1.642.128 2.494zm-.244-4.053a39.875 39.875 0 0 0-4.327-.63c-.025-.809-.056-1.648-.093-2.5a38.36 38.36 0 0 1 4.154.61q.152 1.218.266 2.516zm-.483-4.091a39.5 39.5 0 0 0-4.007-.554c-.042-.833-.09-1.674-.146-2.513q1.865.162 3.711.5.242 1.232.442 2.563zM54.7 12.83q-1.734-.294-3.484-.436c-.066-.857-.141-1.7-.224-2.524 1 .08 2.008.2 3.024.364.241.816.471 1.679.684 2.596zm-1.2-4.189q-1.346-.187-2.675-.285a55.183 55.183 0 0 0-.356-2.522c.639.044 1.289.111 1.946.187a24.508 24.508 0 0 1 1.085 2.62zM51.52 4.43c-.45-.041-.9-.086-1.346-.111a17.788 17.788 0 0 0-.53-1.981A7.484 7.484 0 0 1 51.52 4.43zM45.9 36.32a217.7 217.7 0 0 1-.074-2.505c.724-.04 1.448-.065 2.172-.065.707 0 1.431.028 2.175.071-.007.266-.01.537-.017.8a16.071 16.071 0 0 0-1.088 1.652 40.579 40.579 0 0 0-3.168.047zm2.4 1.446c-.194.433-.375.874-.531 1.328a15.264 15.264 0 0 0-.973-1.313 39.777 39.777 0 0 1 1.504-.015zM48 32.25c-.737 0-1.474.024-2.209.064-.015-.821-.018-1.66-.024-2.5a38.755 38.755 0 0 1 4.47 0q-.009 1.259-.03 2.5A46.429 46.429 0 0 0 48 32.25zm-2.247-3.93V28c0-.744.005-1.464.011-2.18a38.447 38.447 0 0 1 4.478 0c.006.716.011 1.436.011 2.18v.32a40.121 40.121 0 0 0-4.5 0zm4.28-10.512c.036.809.069 1.643.1 2.507a40.356 40.356 0 0 0-4.26 0c.028-.864.061-1.7.1-2.507a38.835 38.835 0 0 1 4.06 0zm-3.99-1.5c.046-.868.1-1.712.151-2.509q1.8-.084 3.612 0c.055.8.105 1.641.151 2.509q-1.957-.097-3.914-.001zm4.128 5.508q.032 1.22.05 2.5a40.135 40.135 0 0 0-4.442 0q.02-1.284.05-2.5a39.307 39.307 0 0 1 4.342-.001zM48 1.964a9.617 9.617 0 0 1 .679 2.306 38.423 38.423 0 0 0-1.358 0A9.617 9.617 0 0 1 48 1.964zm-.955 3.815a35.772 35.772 0 0 1 1.91 0c.118.736.233 1.573.343 2.494q-1.3-.043-2.6 0c.114-.921.229-1.758.347-2.494zm2.419 4q.12 1.179.228 2.518-1.692-.071-3.384 0 .108-1.338.228-2.518a35.737 35.737 0 0 1 2.928-.002zm-3.108-7.441a17.788 17.788 0 0 0-.53 1.981c-.443.025-.9.07-1.346.111a7.484 7.484 0 0 1 1.876-2.092zm-2.767 3.683a40.913 40.913 0 0 1 1.946-.186c-.132.788-.25 1.636-.356 2.521q-1.331.1-2.675.285a24.508 24.508 0 0 1 1.085-2.62zm-1.6 4.213a39.846 39.846 0 0 1 3.024-.364c-.083.823-.158 1.667-.224 2.524q-1.749.141-3.484.436c.208-.917.438-1.78.681-2.596zm-1.018 4.175q1.845-.342 3.711-.5c-.056.839-.1 1.68-.146 2.513a39.5 39.5 0 0 0-4.007.554q.195-1.336.439-2.567zm-.659 4.129a38.36 38.36 0 0 1 4.154-.61c-.037.857-.068 1.7-.093 2.5a39.875 39.875 0 0 0-4.327.63q.111-1.292.263-2.52zm4.022 15.394c.013.5.028 1 .044 1.5a14.992 14.992 0 0 0-1.925-1.27q.935-.138 1.878-.23zm-4.361-.865-.054-.019a77.87 77.87 0 0 1-.12-2.4 38.112 38.112 0 0 1 4.472-.7c.007.83.009 1.666.024 2.483a39.9 39.9 0 0 0-4.325.636zm-.044-10.451a38.121 38.121 0 0 1 4.4-.675c-.022.9-.038 1.736-.05 2.5a39.829 39.829 0 0 0-4.479.673c.028-.85.072-1.682.126-2.498zm-.165 4.038a38.43 38.43 0 0 1 4.5-.7c-.008.854-.01 1.561-.01 2.051v.445a40.07 40.07 0 0 0-4.485.677c0-.374-.019-.747-.019-1.122q0-.684.011-1.351zm-5.254.173a14.474 14.474 0 0 1 3.745.913V28c0 1.557.055 3.1.142 4.628-.3-.068-.61-.126-.92-.176a30.548 30.548 0 0 0-2.97-5.625zM49.25 61a1.25 1.25 0 0 1-2.5 0v-2.339a8.823 8.823 0 0 0 2.5 0zm7-14v2a8.25 8.25 0 0 1-16.5 0v-8a10.79 10.79 0 0 0-2.686-7.1 13.635 13.635 0 0 1 10.265 7.44.734.734 0 0 0 .753.41.751.751 0 0 0 .646-.562l.089-.359a14.6 14.6 0 0 1 12.676-11A30.972 30.972 0 0 0 56.25 47zM31 28.25a16.168 16.168 0 0 0-3.62.414 9.242 9.242 0 0 1 3.07-4.064.741.741 0 0 0 .234-.838.787.787 0 0 0-.74-.513 15.172 15.172 0 0 0-4.3.63C24.967 10.341 20.974.25 16 .25c-5.249 0-9.4 11.239-9.727 25.908A15.966 15.966 0 0 0 1 25.25a.75.75 0 0 0-.6 1.2 28.889 28.889 0 0 1 3.363 5.823A16.074 16.074 0 0 0 3 32.25a.75.75 0 0 0-.45 1.35 9.278 9.278 0 0 1 3.7 7.4v8a9.763 9.763 0 0 0 7 9.349V61a2.75 2.75 0 0 0 5.5 0v-2.651a9.763 9.763 0 0 0 7-9.349v-2a29.437 29.437 0 0 1 5.85-17.55.75.75 0 0 0-.6-1.2zm-3.072-3.35a10.756 10.756 0 0 0-2.19 3.962c0-.288.012-.571.012-.861q0-1.3-.041-2.562a13.756 13.756 0 0 1 2.219-.539zM24.25 28c0 .378-.01.749-.015 1.123a39.9 39.9 0 0 0-4.488-.678V28c0-.49 0-1.2-.01-2.051a38.43 38.43 0 0 1 4.5.7q.012.673.013 1.351zm-1.278 2.4a16.09 16.09 0 0 0-3.272 2.473c.02-.97.034-1.943.042-2.925a37.32 37.32 0 0 1 3.23.452zm1.229-5.28a39.829 39.829 0 0 0-4.479-.673c-.012-.766-.028-1.606-.05-2.5a38.121 38.121 0 0 1 4.4.675c.056.81.1 1.642.128 2.494zm-.244-4.053a39.875 39.875 0 0 0-4.327-.63c-.025-.809-.056-1.648-.093-2.5a38.36 38.36 0 0 1 4.154.61q.152 1.218.266 2.516zm-.483-4.091a39.5 39.5 0 0 0-4.007-.554c-.042-.833-.09-1.674-.146-2.513q1.864.162 3.711.5.242 1.232.442 2.563zM22.7 12.83q-1.734-.294-3.484-.436c-.066-.857-.141-1.7-.224-2.524 1 .08 2.008.2 3.024.364.241.816.471 1.679.684 2.596zm-1.2-4.189q-1.345-.187-2.675-.285a55.183 55.183 0 0 0-.356-2.522c.639.044 1.289.111 1.946.187a24.508 24.508 0 0 1 1.085 2.62zM19.52 4.43c-.45-.041-.9-.086-1.346-.111a17.788 17.788 0 0 0-.53-1.981A7.484 7.484 0 0 1 19.52 4.43zM13.9 36.32a217.7 217.7 0 0 1-.074-2.505c.724-.04 1.448-.065 2.172-.065.707 0 1.431.028 2.175.071-.007.266-.01.537-.017.8a16.071 16.071 0 0 0-1.088 1.652 40.579 40.579 0 0 0-3.168.047zm2.4 1.446c-.194.433-.375.874-.531 1.328a15.264 15.264 0 0 0-.973-1.313 39.777 39.777 0 0 1 1.504-.015zM16 32.25c-.737 0-1.474.024-2.209.064-.015-.821-.018-1.66-.024-2.5a38.755 38.755 0 0 1 4.47 0q-.009 1.259-.03 2.5A46.429 46.429 0 0 0 16 32.25zm-2.247-3.93V28c0-.744.005-1.464.011-2.18a38.447 38.447 0 0 1 4.478 0c.006.716.011 1.436.011 2.18v.32a40.121 40.121 0 0 0-4.5 0zm4.28-10.512c.036.809.069 1.643.1 2.507a40.356 40.356 0 0 0-4.26 0c.028-.864.061-1.7.1-2.507a38.835 38.835 0 0 1 4.06 0zm-3.99-1.5c.046-.868.1-1.712.151-2.509q1.8-.084 3.612 0c.055.8.105 1.641.151 2.509q-1.957-.097-3.914-.001zm4.128 5.508q.032 1.22.05 2.5a40.135 40.135 0 0 0-4.442 0q.02-1.284.05-2.5a39.307 39.307 0 0 1 4.342-.001zM16 1.964a9.617 9.617 0 0 1 .679 2.306 38.423 38.423 0 0 0-1.358 0A9.617 9.617 0 0 1 16 1.964zm-.955 3.815a35.772 35.772 0 0 1 1.91 0c.118.736.233 1.573.343 2.494q-1.3-.043-2.6 0c.114-.921.229-1.758.347-2.494zm2.419 4q.12 1.179.228 2.518-1.692-.071-3.384 0 .108-1.338.228-2.518a35.737 35.737 0 0 1 2.928-.002zm-3.108-7.441a17.788 17.788 0 0 0-.53 1.981c-.443.025-.9.07-1.346.111a7.484 7.484 0 0 1 1.876-2.092zm-2.767 3.683a40.913 40.913 0 0 1 1.946-.186c-.132.788-.25 1.636-.356 2.521q-1.331.1-2.675.285a24.508 24.508 0 0 1 1.085-2.62zm-1.6 4.213a39.846 39.846 0 0 1 3.024-.364c-.083.823-.158 1.667-.224 2.524q-1.749.141-3.484.436c.208-.917.438-1.78.681-2.596zm-1.021 4.175q1.845-.342 3.711-.5c-.056.839-.1 1.68-.146 2.513a39.5 39.5 0 0 0-4.007.554q.198-1.336.442-2.567zm-.659 4.129a38.36 38.36 0 0 1 4.154-.61c-.037.857-.068 1.7-.093 2.5a39.875 39.875 0 0 0-4.327.63q.114-1.292.266-2.52zm4.022 15.394c.013.5.028 1 .044 1.5a14.992 14.992 0 0 0-1.925-1.27q.938-.138 1.881-.23zm-4.361-.865-.054-.019a77.87 77.87 0 0 1-.12-2.4 38.112 38.112 0 0 1 4.472-.7c.007.83.009 1.666.024 2.483a39.9 39.9 0 0 0-4.322.636zm-.044-10.451a38.121 38.121 0 0 1 4.4-.675c-.022.9-.038 1.736-.05 2.5a39.829 39.829 0 0 0-4.479.673c.031-.85.075-1.682.129-2.498zm-.165 4.038a38.43 38.43 0 0 1 4.5-.7c-.008.854-.01 1.561-.01 2.051v.445a40.07 40.07 0 0 0-4.485.677c0-.374-.019-.747-.019-1.122q.003-.684.014-1.351zm-5.254.173a14.474 14.474 0 0 1 3.745.913V28c0 1.557.055 3.1.142 4.628-.3-.068-.61-.126-.92-.176a30.548 30.548 0 0 0-2.967-5.625zM17.25 61a1.25 1.25 0 0 1-2.5 0v-2.339a8.823 8.823 0 0 0 2.5 0zm7-14v2a8.25 8.25 0 0 1-16.5 0v-8a10.79 10.79 0 0 0-2.686-7.1 13.635 13.635 0 0 1 10.265 7.44.734.734 0 0 0 .753.41.751.751 0 0 0 .646-.562l.089-.359a14.6 14.6 0 0 1 12.676-11A30.972 30.972 0 0 0 24.25 47z" fill="#000000" data-original="#000000" class=""></path></g></svg>