<svg xmlns="http://www.w3.org/2000/svg" version="1.1" xmlns:xlink="http://www.w3.org/1999/xlink" xmlns:svgjs="http://svgjs.com/svgjs" width="512" height="512" x="0" y="0" viewBox="0 0 64 64" style="enable-background:new 0 0 512 512" xml:space="preserve" class=""><g><path d="m61.64 26.231-1.558-1.3a16.969 16.969 0 0 0-26.272 5.928L33 32.613v-6a35.873 35.873 0 0 1 2.153-12.268A7.238 7.238 0 0 0 40.8 19.98a.932.932 0 0 0 .2.02 1 1 0 0 0 1-1v-1.9a7.17 7.17 0 0 0-.332-2.138 5.132 5.132 0 0 0 3.265-1.48l.774-.774a1 1 0 0 0 0-1.414l-.774-.775a5.143 5.143 0 0 0-2.551-1.389A8.971 8.971 0 0 0 44 4a1 1 0 0 0-1-1 8.961 8.961 0 0 0-5.128 1.618 5.143 5.143 0 0 0-1.391-2.551l-.774-.774a1 1 0 0 0-1.414 0l-.774.774a5.127 5.127 0 0 0-1.48 3.265A7.17 7.17 0 0 0 29.9 5H28a1 1 0 0 0-.98 1.2 7.233 7.233 0 0 0 6.907 5.8A37.861 37.861 0 0 0 31 26.616v6l-.81-1.754a16.969 16.969 0 0 0-26.271-5.929l-1.559 1.3a1 1 0 0 0 .8 1.755l2.24-.374a18.271 18.271 0 0 1 14.662 3.98A8.141 8.141 0 0 0 16.814 34H14a4 4 0 0 0-1.572 7.676l-.44.733a13.946 13.946 0 0 0 6.3 19.921 7.7 7.7 0 0 0 3.152.67h21.13a7.732 7.732 0 0 0 3.153-.669 13.948 13.948 0 0 0 6.294-19.922l-.44-.733A4 4 0 0 0 50 34h-2.814a8.141 8.141 0 0 0-3.247-2.406 18.262 18.262 0 0 1 14.661-3.98l2.235.372a1 1 0 0 0 .8-1.755ZM40 17.625a5.238 5.238 0 0 1-3-4.725v-.526a5.238 5.238 0 0 1 3 4.726ZM43.586 12l-.067.067a3.217 3.217 0 0 1-2.85.871 7.222 7.222 0 0 0-1.242-1.354l.074-.049a3.248 3.248 0 0 1 4.018.4Zm-1.67-6.917A6.973 6.973 0 0 1 39.552 9.3a5.156 5.156 0 0 0-1.16.568l-.847.564a7.335 7.335 0 0 0-.72-.26 7.224 7.224 0 0 0-.26-.719l.564-.847a5.174 5.174 0 0 0 .567-1.16 6.973 6.973 0 0 1 4.22-2.363ZM34 5.733a3.162 3.162 0 0 1 .933-2.252L35 3.414l.067.068a3.183 3.183 0 0 1 .4 4.018l-.049.073a7.236 7.236 0 0 0-1.352-1.241A3.182 3.182 0 0 1 34 5.733ZM29.375 7h.525a5.238 5.238 0 0 1 4.724 3H34.1a5.238 5.238 0 0 1-4.725-3Zm.881 29h3.488a32.381 32.381 0 0 1 6.056 4H24.2a32.381 32.381 0 0 1 6.056-4ZM6.58 25.448A14.968 14.968 0 0 1 28.374 31.7l.741 1.606-1.931-1.158A8.02 8.02 0 0 0 23.053 31c-.21 0-.418.013-.625.029A20.26 20.26 0 0 0 6.58 25.448ZM23.053 33a6.024 6.024 0 0 1 3.1.859l1.818 1.09A34.84 34.84 0 0 0 15.837 46.5l1.255-8.361A6.064 6.064 0 0 1 23.053 33ZM14 36h1.63a7.91 7.91 0 0 0-.517 1.838L14.789 40H14a2 2 0 0 1 0-4Zm30.9 24.5a5.722 5.722 0 0 1-2.339.5H21.435a5.714 5.714 0 0 1-2.34-.5A11.947 11.947 0 0 1 13.7 43.438l.76-1.266-1.452 9.68a1 1 0 0 0 .687 1.1A.986.986 0 0 0 14 53a1 1 0 0 0 .895-.553l1-2A32.577 32.577 0 0 1 22 42h20.01a32.577 32.577 0 0 1 6.1 8.447l1 2A1 1 0 0 0 50 53a.986.986 0 0 0 .3-.047 1 1 0 0 0 .687-1.1l-1.452-9.68.76 1.266A11.948 11.948 0 0 1 44.9 60.5ZM50 36a2 2 0 0 1 0 4h-.789l-.324-2.162A7.91 7.91 0 0 0 48.37 36Zm-3.092 2.135 1.255 8.365a34.84 34.84 0 0 0-12.135-11.551l1.818-1.09a6.027 6.027 0 0 1 9.062 4.276Zm-5.336-7.106a8.097 8.097 0 0 0-.625-.029 8.02 8.02 0 0 0-4.131 1.145L34.885 33.3l.741-1.606a14.968 14.968 0 0 1 21.794-6.246 20.263 20.263 0 0 0-15.848 5.581Z" data-name="Layer 20" fill="#000000" data-original="#000000" class=""></path></g></svg>