<svg xmlns="http://www.w3.org/2000/svg" version="1.1" xmlns:xlink="http://www.w3.org/1999/xlink" xmlns:svgjs="http://svgjs.com/svgjs" width="512" height="512" x="0" y="0" viewBox="0 0 64 64" style="enable-background:new 0 0 512 512" xml:space="preserve" class=""><g><path d="M60 51v-3.47a10.407 10.407 0 0 0-.535-3.3 3.263 3.263 0 0 0-2.273-2.127l.408-.3a1 1 0 0 0 .3-1.247l-.659-1.317A5.823 5.823 0 0 0 52 36a1 1 0 0 0-.445-.832l-1.471-.98A7.046 7.046 0 0 0 46.162 33a5.382 5.382 0 0 0-4.85 3.04 5.9 5.9 0 0 0-5.077 4.686 12.143 12.143 0 0 0-.218 2.023 20.353 20.353 0 0 0-2.6 2.377 33.626 33.626 0 0 0-3.111-7.826 5.141 5.141 0 0 0-.825-6.228 7 7 0 0 0-4.114-2.013 3.889 3.889 0 0 1 3.34 1.067l1.586 1.586a1 1 0 0 0 1.684-.924l-.726-3.266q.468-.942 1-1.856a1 1 0 0 0 .688.337.991.991 0 0 0 .894-.443l5.613-8.421A.315.315 0 0 1 40 17.3a3.7 3.7 0 0 1-.855 2.36l-3.914 4.7a1 1 0 0 0-.179.959l.052.153A5.152 5.152 0 0 0 40 29a1 1 0 0 0 .919-.606l2.686-6.269a.213.213 0 0 1 .4.08 1.62 1.62 0 0 1-.272.9l-1.095 1.642a3.768 3.768 0 0 0 2.221 5.746 6.1 6.1 0 0 1 2.826 1.6l.613.613a1 1 0 0 0 1.414 0l3.865-3.865a4.876 4.876 0 0 0-1.266-7.808l-1.272-.633a.641.641 0 0 1 .856-.336l3.658 1.83a1 1 0 0 0 1.342-.448l1.623-3.246a4.577 4.577 0 0 0-3.526-6.586l-2.7-.337a2.5 2.5 0 0 1 1.923-.153l2.466.822a1 1 0 0 0 1.219-1.393l-1.712-3.411a5.68 5.68 0 0 0-6.194-3.032 1 1 0 0 0-.287-.817l-.3-.3A6.812 6.812 0 0 0 38.5 4.766l-.128.255A9.014 9.014 0 0 0 30 14v2a1 1 0 0 0 1.6.8l2.14-1.606a8.566 8.566 0 0 0 .735-.617L32.8 16.526a7.544 7.544 0 0 0-1.532 6.9 32.8 32.8 0 0 0-.749 1.225 5.935 5.935 0 0 0-9.674-1.917l-.169.168A7.011 7.011 0 0 0 14 18a8.211 8.211 0 0 0-4.229 1.172l-3.286 1.971a1 1 0 0 0 .4 1.851l1.272.142a5.067 5.067 0 0 0-3.794 3.925L4.02 28.8A1 1 0 0 0 5 30a9.832 9.832 0 0 1 4.329 1 5.555 5.555 0 0 0-5.164 4.21A5.619 5.619 0 0 0 4 36.562V40a1 1 0 0 0 1.318.948l.153-.052a17.449 17.449 0 0 1 3.434-.77l-.394.526a7.555 7.555 0 0 0-.435 8.419l2.067 3.444a1 1 0 0 0 .637.461A1.036 1.036 0 0 0 11 53a1.007 1.007 0 0 0 .555-.168A19.736 19.736 0 0 1 17.74 50.1l2.254-.564A3.963 3.963 0 0 0 23 45.682a5.039 5.039 0 0 0-.5-2.206l1.132.453a1 1 0 0 0 1.266-.482l.102-.211a9.508 9.508 0 0 0 .784-2.28L24 62.919l2 .162 1.873-23.1c.023 0 .045.012.068.013a1.013 1.013 0 0 0 .894-.443l.232-.348a31.758 31.758 0 0 1 2.767 7.884A20.551 20.551 0 0 0 28 59v4h2v-4a18.5 18.5 0 0 1 2.317-8.935c.073.655.128 1.312.16 1.971L33 63.048l2-.1-.525-11.008a33.414 33.414 0 0 0-.51-4.368A18.511 18.511 0 0 1 36 45.367V46a1 1 0 0 0 1.447.9l.211-.106-.458.606a1 1 0 0 0-.2.6v.4a7.72 7.72 0 0 0 3.445 6.437 1 1 0 0 0 1.387-.277L44 51.3a7.884 7.884 0 0 0 2.292 5.406 1 1 0 0 0 1.414 0l1.613-1.613a6.875 6.875 0 0 0 4.022 4.319 2.645 2.645 0 0 1 1.383 1.274l.38.76A1 1 0 0 0 56 62h.093a1 1 0 0 0 .869-.722l1.9-6.644A3.658 3.658 0 0 0 58.618 52H59a1 1 0 0 0 1-1ZM44.593 3a4.777 4.777 0 0 1 2.969 1.024l-2.269 2.269a1 1 0 0 0 1.154 1.6l3.011-1.506A3.707 3.707 0 0 1 51.105 6 3.661 3.661 0 0 1 54.4 8.036l.626 1.251-.176-.058a4.506 4.506 0 0 0-4.573 1.081l-.983.983a1 1 0 0 0 .583 1.7l4.868.609a2.577 2.577 0 0 1 1.985 3.707l-1.176 2.35-2.764-1.382A2.619 2.619 0 0 0 49 20.618a1.607 1.607 0 0 0 .9 1.447l1.516.758a2.876 2.876 0 0 1 .747 4.605l-2.394 2.394-.521-4.688a33.378 33.378 0 0 0-9.039-19.317l.079-.157A4.788 4.788 0 0 1 44.593 3ZM34.322 17.828l3.895-4.545A3.265 3.265 0 0 0 39 11.162a2.162 2.162 0 0 0-4.213-.683 6.417 6.417 0 0 1-2.246 3.121L32 14a7 7 0 0 1 6.581-6.979 31.354 31.354 0 0 1 8.674 18.333l.472 4.249a8.053 8.053 0 0 0-2.387-1.048 1.77 1.77 0 0 1-1.043-2.7l1.1-1.641A3.612 3.612 0 0 0 46 22.205a2.205 2.205 0 0 0-4.232-.868l-2.4 5.6a3.156 3.156 0 0 1-2.225-1.746l3.539-4.248A5.7 5.7 0 0 0 42 17.3a2.3 2.3 0 0 0-4.219-1.278l-4.588 6.883a5.7 5.7 0 0 1-.193-1.5 5.5 5.5 0 0 1 1.322-3.577Zm1.312-4.6a8.466 8.466 0 0 0 1.05-2.114.162.162 0 0 1 .316.051 1.256 1.256 0 0 1-.3.82ZM9 45.185a5.6 5.6 0 0 1 1.11-3.332L11.8 39.6A1 1 0 0 0 11 38a19.464 19.464 0 0 0-5 .652v-2.09a3.657 3.657 0 0 1 .105-.865A3.558 3.558 0 0 1 9.562 33H13a1 1 0 0 0 .515-1.857l-2.428-1.456a11.8 11.8 0 0 0-4.88-1.625l.122-.609A3.059 3.059 0 0 1 9.321 25a3.028 3.028 0 0 1 2.158.894l1.4 1.4A2.414 2.414 0 0 0 17 25.586a3.883 3.883 0 0 0-3.46-3.865l-3.485-.388.745-.446A6.217 6.217 0 0 1 14 20a4.993 4.993 0 0 1 4.976 4.766 54.018 54.018 0 0 0-6.9 17.259l-1.53 7.275-.755-1.258A5.561 5.561 0 0 1 9 45.185Zm2.542-21.674 1.777.2A1.886 1.886 0 0 1 15 25.586a.43.43 0 0 1-.707.293l-1.4-1.4a5.1 5.1 0 0 0-1.351-.968Zm9.774 10.541a1 1 0 0 0-1.023 1.655l3.7 3.7a7.544 7.544 0 0 1-.5 2.315l-4.116-1.647a1 1 0 0 0-1.078 1.636l1.801 1.808a3.035 3.035 0 0 1 .9 2.163 1.968 1.968 0 0 1-1.491 1.911l-2.253.563A21.716 21.716 0 0 0 12.444 50l1.591-7.557A52 52 0 0 1 20.8 25.62l1.468-1.469A3.96 3.96 0 0 1 25.043 23a3.91 3.91 0 0 1 3.839 3.079l.435 1.959a5.824 5.824 0 0 0-7.438.669l-.586.586A1 1 0 0 0 22 31h2.49a5.025 5.025 0 0 1 3.577 1.481 3.183 3.183 0 0 1 .4 4.018l-.471.706a6.36 6.36 0 0 0-2.8-1.86Zm3.391 3.24a4.374 4.374 0 0 1 1.341.8c-.029.248-.056.5-.08.747a.988.988 0 0 0-.261-.547ZM51 53a1 1 0 0 0-.617-.924A.987.987 0 0 0 50 52a1 1 0 0 0-.707.293l-2.231 2.23A5.875 5.875 0 0 1 46 51.172V48a1 1 0 0 0-1.832-.555l-3.4 5.1A5.722 5.722 0 0 1 39 48.4l2.8-3.8a1 1 0 0 0-1.247-1.5L38 44.382V43.1a10.143 10.143 0 0 1 .2-1.981 3.881 3.881 0 0 1 3.476-3.089A37.136 37.136 0 0 1 54.11 57.57c-.009 0-.016-.01-.025-.013A4.885 4.885 0 0 1 51 53Zm7-3h-2a1 1 0 0 0-.446 1.9l.541.27a1.64 1.64 0 0 1 .842 1.916l-.874 3.056a39.151 39.151 0 0 0-12.84-20.419A3.378 3.378 0 0 1 46.162 35a5.046 5.046 0 0 1 2.813.852l.638.425-1.445 2.168a1 1 0 0 0 1.387 1.387l2.732-1.821a3.826 3.826 0 0 1 3.16 2.12l.285.57L52.4 43.2a1 1 0 0 0 .916 1.748l2.653-.884a1.293 1.293 0 0 1 1.6.8A8.437 8.437 0 0 1 58 47.53Z" data-name="Layer 32" fill="#000000" data-original="#000000" class=""></path></g></svg>