<?xml version="1.0" standalone="no"?>
<svg version="1.1" id="Layer_1_14_" xmlns="http://www.w3.org/2000/svg" xmlns:xlink="http://www.w3.org/1999/xlink" x="0px" y="0px" viewBox="0 0 595.276 595.276" enable-background="new 0 0 595.276 595.276" xml:space="preserve">
<path id="color_x5F_5" fill="#7ed321" d="M293.282,450.55c-0.765,5.353-0.068,15.617-0.01,16.45
	c-0.874,0.837-1.485,1.723-1.822,2.658c-0.336,0.933-0.339,1.757-0.23,2.396c-1.858-0.079-3.752,0.619-4.697,1.028
	c-0.446-0.627-1.192-1.756-1.596-2.806c-0.336-0.875,0.052-4.517,0.35-5.807c0.649-2.813,0.17-37.25,0.042-44.416
	c2.461,1.571,7.187,4.499,9.286,5.216c-0.983,2.839-5.189,15.496-5.277,19.91c-0.006,0.3,0.233,0.82,0.533,0.82
	c0.004,0,0.008,0,0.011,0c0.295,0,0.538-0.503,0.544-0.8c0.094-4.718,5.359-19.821,5.413-19.972c0.057-0.16,0.035-0.414-0.061-0.557
	c-0.096-0.143-0.251-0.27-0.422-0.279c-1.124-0.062-6.729-3.474-10.291-5.778c-5.375-5.041-1.581-9.67-1.158-10.15
	c3.269-3.141,10.333-2.592,10.403-2.617c5.326,0.468,26.816-3.822,26.855-3.837c10.723-4.051,15.048-3.338,16.671-2.551
	c0.967,0.469,1.154,1.032,1.156,1.032c0.054,0.223,0.203,0.41,0.409,0.513c0.204,0.103,0.445,0.108,0.656,0.017
	c8.708-3.786,17.12-2.23,19.189-0.334c1.046,0.958,0.68,2.376-0.003,4.611c-0.409,1.337-0.832,2.721-0.832,4.146
	c0,2.689-0.453,4.543-1.475,5.939c-0.266-0.666-0.55-1.934-0.72-2.69c-0.207-0.921-0.386-1.715-0.591-2.192
	c-0.759-1.774-4.005-1.614-4.648-1.637c-0.959-0.034-6.726-2.011-11.751-4.342c-0.138-0.064-0.297-0.038-0.411,0.059
	c-3.014,2.557-10.733,0.244-12.819-1.463c-1.564-1.277-2.589-0.373-4.631,1.429c-1.32,1.164-3.127,2.76-5.943,4.675
	c-5.831,3.964-11.55,1.414-16.145-0.634c-0.977-0.437-1.9-0.848-2.75-1.16c-3.748-1.374-5.925,1.019-7.674,2.945
	c-0.6,0.659-1.167,1.283-1.723,1.67c-1.898,1.317-3.669-0.982-3.744-1.081c-0.129-0.171-0.372-0.205-0.544-0.077
	c-0.172,0.129-0.206,0.372-0.077,0.544c0.564,0.754,1.77,1.8,3.152,1.8c0.535,0,1.097-0.157,1.658-0.548
	c0.628-0.436,1.224-1.092,1.854-1.786c1.675-1.844,3.575-3.935,6.83-2.736c0.826,0.303,1.736,0.71,2.701,1.14
	c4.521,2.015,10.71,4.774,16.898,0.566c2.857-1.942,4.687-3.557,6.023-4.734c2.122-1.873,2.607-2.241,3.623-1.41
	c2.249,1.841,10.154,4.206,13.62,1.608c1.299,0.577,7.746,3.405,11.122,4.258c-0.209,1.94-0.804,3.168-1.774,3.648
	c-1.588,0.787-3.825-0.55-3.847-0.564c-0.346-0.214-0.8-0.122-1.037,0.209c-6.489,9.013-15.691,3.709-16.08,3.479
	c-0.185-0.109-0.408-0.137-0.611-0.079c-0.206,0.06-0.379,0.201-0.477,0.391c-4.973,9.635-13.398,8.706-18.432,8.15
	c-1.003-0.11-1.87-0.204-2.592-0.21c0.815-1.021,1.771-2.212,2.826-3.515c3.185-3.935,13.938-11.729,24.024-13.251
	c0.297-0.045,0.502-0.322,0.456-0.619c-0.044-0.297-0.323-0.498-0.619-0.458c-10.865,1.641-21.62,9.828-24.708,13.643
	c-1.807,2.232-3.34,3.85-4.348,5.121C298.401,431.024,293.781,447.06,293.282,450.55z M284.104,406.594
	c-0.074-1.447-0.413-4.016-1.977-7.572c-2.208-5.016-16.034-13.959-16.622-14.338c-0.165-0.105-0.362-0.146-0.557-0.111
	c-5.109,0.908-10.824-0.634-16.35-2.127c-3.715-1.003-7.557-2.04-11.248-2.355c-9.555-0.807-25.239,5.016-29.983,9.958
	c-2.045,2.13-2.889,2.383-3.096,2.41c-0.023-0.073-0.041-0.202-0.037-0.333c-0.181-9.006,9.72-12.137,10.142-12.266
	c0.183-0.056,0.34-0.179,0.439-0.343c0.281-0.465,1.233-1.727,2.245-1.979c0.857-0.218,1.615,1.473,1.621,1.488
	c0.127,0.305,0.435,0.501,0.765,0.477c1.857-0.111,4.297-0.603,7.115-1.282c2.297-0.279,5.184-0.552,6.379-0.343
	c0.381,0.068,1.163,0.35,2.151,0.705c4.637,1.67,14.284,5.145,23.565,2.265c6.925-2.148,9.251-0.697,10.951,0.361
	c0.697,0.435,1.329,0.829,2.115,0.829c0.371,0,0.776-0.089,1.238-0.302c0.195-0.089,0.28-0.321,0.19-0.516
	c-0.09-0.195-0.32-0.281-0.516-0.19c-1.06,0.489-1.645,0.122-2.615-0.482c-1.724-1.075-4.329-2.698-11.594-0.443
	c-9.033,2.803-18.515-0.612-23.07-2.254c-1.064-0.384-1.833-0.661-2.28-0.739c-0.45-0.079-1.109-0.097-1.87-0.074
	c0.678-0.179,1.369-0.362,2.073-0.549c11.922-3.168,26.757-7.11,35.607-3.648c3.379,1.322,5.291,2.968,5.682,4.893
	c0.518,2.549-1.835,4.885-1.857,4.906c-0.172,0.166-0.257,0.403-0.232,0.641c0.025,0.238,0.158,0.451,0.361,0.578
	c2.996,1.872,10.858,9.911,10.937,9.993c0.224,0.229,0.564,0.297,0.859,0.172c0.295-0.123,0.483-0.416,0.475-0.736l-1.361-52.879
	c-0.003-0.108-0.028-0.214-0.073-0.312c-0.016-0.034-1.573-3.347-3.49-7.756c-0.896-2.06-1.891-3.227-2.763-3.888
	c-0.4-0.589-2.846-4.252-3.406-6.492c-0.052-0.208-0.264-0.336-0.471-0.282c-0.208,0.052-0.335,0.263-0.283,0.471
	c0.429,1.718,1.831,4.113,2.749,5.566c-0.471-0.136-0.801-0.122-0.899-0.115c-1.072,0.113-2.135-0.314-3.244-1.311
	c-6.61-5.944-10.866-28.566-10.866-31.355c0-1.115-0.561-2.563-1.056-3.842c-0.197-0.511-0.464-1.201-0.601-1.682
	c0.501,0.243,1.472,0.833,3.321,2.253c8.152,6.256,15.709,17.946,15.76,18.077c0.817,2.043,3.995,9.476,0.838,15.883
	c-1.515-1.69-5.896-6.817-8.087-11.982c-0.084-0.198-0.312-0.289-0.51-0.207c-0.198,0.084-0.29,0.312-0.206,0.51
	c2.59,6.107,8.149,12.132,8.718,12.739c0.686,1.379,2.178,4.474,2.178,5.967c0,0.292,0.231,0.349,0.522,0.349
	c0.008,0,0.015,0,0.022,0c0.282,0,0.52-0.022,0.542-0.306c0.032-0.396,0.757-8.685,0.203-12.041
	c-0.643-3.89-2.066-9.126-2.921-10.948c-0.578-2.088-0.34-7.938,0.143-8.195c0.526-0.282,1.646,2.609,2.131,4.543
	c0.095,0.379,0.7,3.008,0.778,4.751c0.009,0.209,0.182,0.196,0.388,0.196c0.006,0,0.012,0,0.018,0c0.214,0,0.38-0.001,0.371-0.215
	c-0.101-2.261-0.476-3.912-0.577-5.188c-0.534-6.693,1.149-14.195,2.656-14.898c0.332-0.155,0.497-0.055,0.626,0.032
	c1.088,0.729,1.779,4.868,1.573,9.398c-0.188,4.138-3.437,15.464-3.469,15.578c-0.028,0.097-0.037,0.202-0.026,0.302l4.706,35.67
	c0.03,0.217,0.186,0.395,0.398,0.453c0.046,0.013,0.094,0.02,0.141,0.02c0.165,0,0.325-0.075,0.43-0.211
	c0.114-0.146,2.807-3.632,3.408-6.542c0.05-0.245-0.075-0.494-0.3-0.602c-0.028-0.014-2.69-1.397-4.686-6.127
	c-0.251-0.596-1.898-14.896-1.838-15.027c2.321-5.087,7.927-6.156,7.984-6.167c0.138-0.024,0.268-0.087,0.374-0.18
	c7.766-6.78,12.794-8.202,15.495-8.965c1.553-0.439,2.781-0.787,2.654-2.188c-0.007-0.072-0.011-0.135-0.013-0.191
	c0.021,0.017,0.042,0.031,0.06,0.047c9.867,10.665,6.79,25.183,3.749,30.548c-2.253,3.977-10.682,6.267-15.719,7.636
	c-2.104,0.572-3.625,0.985-4.386,1.395c-2.789,1.502-7.786,11.845-7.991,17.767c-0.194,5.627,3.354,40.378,3.467,41.048
	C288.319,404.438,285.648,405.613,284.104,406.594z M294.688,337.514c0.579,0.991,1.48,4.219,1.672,4.916
	c-0.719,1.095-1.177,1.739-1.195,1.765c-0.175,0.245-0.119,0.585,0.125,0.76c0.096,0.069,0.207,0.102,0.316,0.102
	c0.17,0,0.337-0.079,0.443-0.229c0.031-0.042,1.252-1.761,2.887-4.434c0.03-0.011,0.061-0.009,0.089-0.026
	c2.745-1.778,7.193-4.473,8.2-4.606c0.212-0.028,0.362-0.225,0.334-0.438c-0.029-0.213-0.228-0.363-0.438-0.334
	c-1.168,0.156-5.229,2.585-7.318,3.902c1.319-2.24,2.797-4.891,4.107-7.891c0.001,0,0.002,0,0.004,0c1.75-1,6.624-4.889,8.278-4.723
	c0.195,0.02,0.403-0.111,0.422-0.324c0.021-0.215-0.138-0.39-0.352-0.409c-1.752-0.158-5.715,2.61-7.704,4.09
	c0.676-1.59,1.282-3.21,1.771-4.819c0.953-0.886,3.271-2.76,4.732-2.76c0.214,0,0.389-0.173,0.389-0.388
	c0-0.215-0.175-0.389-0.389-0.389c-1.397,0-3.179,1.235-4.312,2.153c0.409-1.355,0.844-2.576,1.29-3.664
	c0.042-0.023,0.082-0.051,0.116-0.09c0.798-0.979,3.157-3.478,4.497-3.265c0.208,0.033,0.411-0.11,0.445-0.322
	c0.034-0.213-0.111-0.411-0.323-0.445c-1.194-0.191-2.677,0.933-3.764,1.97c2.221-4.475,4.376-6.077,4.404-6.098
	c0.246-0.174,0.305-0.514,0.133-0.759c-0.174-0.245-0.511-0.306-0.759-0.132c-0.156,0.11-3.35,2.442-6.048,9.45
	c-0.379-1.733-1.31-4.609-3.405-5.475c-0.197-0.082-0.426,0.012-0.508,0.21c-0.082,0.198,0.013,0.426,0.211,0.508
	c2.571,1.064,3.158,6.146,3.164,6.196c0,0.011,0.007,0.018,0.008,0.028c-0.25,0.729-0.495,1.487-0.728,2.308
	c-0.254,0.892-0.548,1.79-0.871,2.686l-2.736-4.961c-0.104-0.188-0.341-0.256-0.529-0.153c-0.188,0.104-0.256,0.341-0.152,0.529
	l3.06,5.545c-1.02,2.648-2.276,5.25-3.526,7.586c-0.144-1.902-0.686-5-2.551-8.169c-0.109-0.186-0.347-0.247-0.532-0.14
	c-0.186,0.11-0.247,0.348-0.138,0.532c2.3,3.91,2.496,7.799,2.489,9.117c-1.133,2.032-2.218,3.8-3.073,5.134
	c-0.354-1.241-1.052-3.559-1.564-4.438c-0.108-0.185-0.346-0.247-0.532-0.139C294.643,337.091,294.58,337.328,294.688,337.514z"></path>
<path id="color_x5F_4" fill="#9b9b9b" d="M487.356,62.39l-45.854,37.156l-0.087,0.3c-2.939,10.116-7.736,16.022-10.243,18.581
	c0.04-0.334,0.066-0.674,0.077-1.02c0.159-4.994-2.595-13.58-6.772-17.288c1.642-0.479,3.464-1.291,5.421-2.625
	c0.456-0.311,0.574-0.933,0.263-1.39c-0.311-0.456-0.932-0.574-1.39-0.263c-5.901,4.024-10.287,2.794-11.392,2.374
	c-0.189-0.761-0.408-1.529-0.688-2.305c-0.188-0.519-0.763-0.786-1.28-0.6c-0.52,0.188-0.788,0.761-0.601,1.281
	c1.338,3.698,1.544,7.355,0.526,9.316c-0.319,0.614-0.73,0.994-1.224,1.129c-0.169,0.046-0.265,0.04-0.288,0.025
	c-0.306-0.19-0.553-1.47-0.717-2.316c-0.3-1.549-0.639-3.306-1.705-4.623c-0.828-1.023-1.729-1.724-2.454-2.287
	c-1.371-1.066-1.335-1.123-0.983-1.665c0.783-1.211,1.246-3.186,1.736-5.276c0.431-1.836,0.876-3.735,1.479-4.693
	c1.869-2.97,12.896-4.972,19.406-5.537l0.453-0.039l30.101-41.137c3.925-1.56,7.666-1.484,11.124,0.227
	C481.527,44.297,486.397,59.171,487.356,62.39z M405.745,104.522c0.49,3.442,11.881,19.285,15.984,19.733
	c1.38,0.151,3.333,0.166,5.201-1.495c1.412-1.255,2.248-3.166,2.32-5.417c0.161-5.099-3.207-14.717-7.524-16.693
	c-0.435,0.041-0.855,0.067-1.246,0.067c-1.081,0-1.974-0.137-2.669-0.299c0.343,2.551,0.119,4.831-0.7,6.41
	c-0.579,1.114-1.434,1.853-2.474,2.137c-0.706,0.194-1.339,0.125-1.871-0.206c-1.046-0.652-1.314-2.034-1.623-3.635
	c-0.255-1.319-0.544-2.815-1.296-3.744c-0.577-0.713-1.211-1.245-1.802-1.711C407.895,99.798,405.359,101.812,405.745,104.522z"></path>
<path id="color_x5F_3" fill="#8b572a" d="M241.118,480.599c-7.12-3.133-12.315-2.887-17.372,0.822
	c-6.015,4.409-9.038,3.309-13.222,1.781l-0.334-0.122c-3.893-1.412-17.439,4.126-25.814,8.512
	c-4.535,2.377-8.019,0.731-10.563-0.468c-2.6-1.227-3.556-1.545-4.664,0.534c-3.277,6.145-9.698,6.615-9.97,6.632
	c-0.038,0.001-0.075,0.003-0.113-0.002c-18.061-1.506-27.738,7.449-27.809,7.562c-0.462,0.728-1.069,1.968-0.56,3.396
	c0.961,2.695,5.02,5.317,12.897,7.544c11.275,3.187,64.779,5.71,103.846,7.554c6.939,0.327,13.36,0.629,18.915,0.907
	c53.059,2.654,145.631,2.562,170.502,1.814c43.269-1.304,66.888-7.467,69.958-11.428c-6.867-9.087-25.122-1.542-25.307-1.465
	c-0.204,0.085-0.433,0.08-0.633-0.013c-0.198-0.094-0.35-0.268-0.413-0.479c-1.352-4.477-11.358-6.732-18.666-8.381
	c-3.145-0.708-5.858-1.32-7.578-2.008c-2.6-1.04-7.13-4.075-12.377-7.59c-6.702-4.488-14.298-9.576-19.359-11.456
	c-2.88-1.071-5.177-1.124-6.826-0.165c-1.985,1.158-2.37,3.425-2.374,3.448c-0.045,0.277-0.236,0.51-0.501,0.605
	c-0.262,0.097-0.56,0.044-0.773-0.14c-1.726-1.479-1.908-1.4-3.641-0.673c-1.378,0.579-3.46,1.455-7.408,2.02
	c-8.508,1.213-11.321-2.658-16.435-9.688c-0.642-0.882-1.32-1.815-2.056-2.801c-5.914-7.925-10.541-5.003-10.736-4.873
	c-0.25,0.164-0.573,0.173-0.83,0.021c-0.257-0.153-0.405-0.439-0.378-0.737c0.008-0.093-0.008-0.18-0.114-0.299
	c-1.161-1.311-7.138-1.487-11.093-1.604c-1.025-0.029-1.99-0.059-2.833-0.101c-5.298-0.266-10.355-2.959-10.568-3.073
	c-0.087-0.046-0.163-0.108-0.228-0.185c-11.932-14.183-18.479-9.631-21.995-7.185c-0.413,0.288-0.784,0.544-1.116,0.743
	c-1.532,0.919-2.942,1.054-5.078,1.257c-2.78,0.266-6.982,0.665-14.791,3.096c-6.967,2.169-9.164,4.587-9.778,6.233
	c-0.531,1.42,0.068,2.416,0.094,2.458c0.17,0.274,0.155,0.63-0.042,0.887c-0.196,0.256-0.527,0.365-0.838,0.275
	c-1.88-0.564-4.615,0.517-5.51,0.981c-0.333,0.173-0.74,0.084-0.97-0.209c-0.062-0.078-1.506-1.927-2.188-3.701
	c-0.604-1.568-0.003-5.623,0.255-7.145c-3.62-2.126-6.324-2.752-7.84-1.816c-1.786,1.107-1.545,4.176-1.542,4.206
	c0.02,0.236-0.068,0.469-0.239,0.632c-0.171,0.162-0.408,0.243-0.641,0.207c-5.454-0.748-9.288-0.039-11.088,2.05
	c-1.917,2.225-1.03,5.355-1.021,5.386c0.103,0.355-0.056,0.732-0.381,0.906c-0.326,0.173-0.729,0.094-0.964-0.19
	c-2.269-2.737-4.798-2.183-8.301-1.418c-1.603,0.351-3.42,0.748-5.34,0.792c-0.681,0.015-1.147,0.167-1.385,0.453
	c-0.462,0.555-0.264,1.766-0.091,2.833c0.21,1.289,0.407,2.506-0.445,3.165C243.776,481.42,242.78,481.33,241.118,480.599z
	 M371.632,500.691c0.097-0.105,2.395-1.691,5.189-1.691c0.008,0,0.015,0,0.022,0c1.395,0,2.645-0.318,3.717,0.871
	c2.611,2.9,4.849,2.064,9.749,1.669c1.088-0.086,2.29-0.319,3.631-0.39c2.977-0.159,5.017,0.39,6.06,1.761
	c1.174,1.541,0.577,3.358,0.551,3.438c-0.109,0.325-0.412,0.514-0.737,0.514c-0.082,0-0.164-0.012-0.246-0.039
	c-0.407-0.135-0.628-0.567-0.491-0.975c0.001-0.006,0.357-1.142-0.323-2.023c-0.706-0.916-2.351-1.29-4.732-1.16
	c-1.325,0.068-2.512,0.262-3.588,0.348c-4.928,0.393-7.903,0.595-11.028-2.877c-0.778-0.864-1.617-1.136-2.568-1.136
	c-0.004,0-0.011,0-0.015,0c-1.757,0-3.513,1.438-4.043,2.014c-0.291,0.318-0.78,0.34-1.099,0.051
	C371.363,500.773,371.342,501.008,371.632,500.691z M247.91,501.178c-0.785-1.438-2.326-4.978-0.789-8.436
	c1.593-3.584,5.965-5.901,12.995-6.886c7.024-0.985,12.308,0.101,15.705,3.221c2.372,2.178,3.289,4.865,3.639,6.784
	c1.298-1.521,3.404-2.767,6.284-1.807c4.363,1.453,8.767,0.786,19.521-6.895c11.192-7.998,33.385,6.743,34.325,7.375
	c0.355,0.24,0.45,0.723,0.212,1.079c-0.241,0.355-0.723,0.452-1.08,0.212c-0.222-0.147-22.229-14.774-32.554-7.4
	c-11.295,8.068-16.066,8.722-20.917,7.103c-3.914-1.3-5.569,2.863-5.638,3.041c-0.138,0.356-0.518,0.564-0.889,0.481
	c-0.375-0.08-0.635-0.42-0.614-0.802c0.002-0.047,0.196-4.792-3.357-8.042c-3.04-2.779-7.893-3.726-14.422-2.811
	c-6.457,0.904-10.421,2.911-11.786,5.969c-1.604,3.593,1.02,7.562,1.046,7.601c0.225,0.335,0.158,0.786-0.154,1.04
	c-0.045,0.036-3.184,2.525-7.773,2.525c-2.117,0-4.542-0.53-7.115-2.074c-2.55-1.53-4.761-2.03-6.565-1.488
	c-1.982,0.595-2.821,2.304-2.83,2.321c-0.185,0.386-0.649,0.552-1.035,0.368c-0.387-0.184-0.554-0.642-0.373-1.03
	c0.044-0.095,1.114-2.33,3.759-3.139c2.25-0.687,4.889-0.139,7.844,1.635C241.298,504.693,246.296,502.198,247.91,501.178z"></path>
<path id="color_x5F_2" fill="#FBC02D" d="M296.822,174.638l3.777,24.061l7.092-10.309c-1.34-1.465-2.626-4.261-1.009-7.77
	L296.822,174.638z M377.865,84.537c-3.556,2.665-22.495,16.963-33.349,27.257c-10.523,9.981-21.849,24.207-24.48,27.562
	c2.028-0.366,9.138-3.995,33.838-26.164c22.156-19.886,24.188-26.48,24.033-28.392C377.898,84.698,377.884,84.611,377.865,84.537z
	 M309.394,187.269l71.517,3.687c0.815-7.184-8.479-10.946-9.823-11.451l-62.483,1.729
	C306.949,184.531,308.707,186.623,309.394,187.269z M422.408,143.418c1.954-1.5,10.857-9.139,7.688-21.512
	c-0.481,0.903-1.098,1.704-1.853,2.362c-0.376,0.328-0.781,0.618-1.209,0.869c0.364,2.874,0.576,10.613-6.529,15.637
	C420.563,141.523,420.881,142.935,422.408,143.418z M390.23,201.894l-10.957-9.02c0,0,2.46,0.126,2.478,0.126
	c0.468,0,0.877-0.327,0.976-0.789c2.163-10.005-11.022-14.613-11.155-14.658c-0.113-0.038-10.626,0.231-10.626,0.231l-44.671-36.78
	c2.506-4.378,17.96-29.006,64.965-61.609l11.508,16.9c0.028,0.041,0.07,0.064,0.103,0.1c-0.827,0.61-1.648,1.322-2.45,2.164
	l-0.131,0.137l-0.071,0.176c-0.092,0.226-0.865,2.251,0.176,3.894c0.668,1.054,1.869,1.636,3.57,1.731l0.617,0.027l0.308-0.531
	c0.049-0.084,0.589-0.976,1.879-1.824l24.221,35.574c0.011,0.015,0.024,0.026,0.035,0.041c-0.6,0.57-1.28,1.118-2.056,1.631
	l-0.412,0.273l-0.034,0.493c-0.108,1.562,0.578,4.679,3.941,5.302l0.409,0.076l0.342-0.237c0.032-0.022,0.79-0.563,1.862-1.573
	l11.371,16.703C435.54,164.037,427.663,191.076,390.23,201.894z M379.367,84.398c-0.202-1.192-0.989-1.553-1.078-1.59
	c-0.242-0.102-0.522-0.068-0.736,0.09c-0.219,0.163-22.05,16.409-34.069,27.808c-12.027,11.408-25.072,28.292-25.202,28.461
	c-0.141,0.182-0.189,0.417-0.134,0.64c0.17,0.678,0.748,1.083,1.547,1.083c3.693,0,15.529-8.943,35.182-26.582
	C371.66,99.244,380.129,88.901,379.367,84.398z M391.996,99.788c-0.139,0.447-0.3,1.336,0.07,1.915
	c0.246,0.384,0.732,0.633,1.448,0.744c1.095-1.413,4.65-4.837,12.448-3.547c0.194-0.207,0.381-0.394,0.545-0.543
	c-0.669-0.726-1.058-1.621-0.467-2.833C403.67,94.948,397.463,94.171,391.996,99.788z"></path>
<path id="color_x5F_1" fill="#8b572a" d="M294.688,337.514c-0.108-0.186-0.045-0.423,0.14-0.531
	c0.186-0.108,0.424-0.046,0.532,0.139c0.512,0.879,1.209,3.196,1.564,4.438c0.855-1.334,1.94-3.102,3.073-5.134
	c0.007-1.318-0.19-5.207-2.489-9.117c-0.109-0.185-0.047-0.422,0.138-0.532c0.185-0.107,0.423-0.046,0.532,0.14
	c1.865,3.169,2.408,6.267,2.551,8.169c1.25-2.336,2.507-4.939,3.526-7.586l-3.06-5.545c-0.103-0.189-0.036-0.425,0.152-0.529
	c0.188-0.103,0.425-0.034,0.529,0.153l2.736,4.961c0.323-0.896,0.617-1.795,0.871-2.686c0.232-0.82,0.478-1.578,0.728-2.308
	c-0.001-0.011-0.008-0.018-0.008-0.028c-0.006-0.051-0.593-5.132-3.164-6.196c-0.198-0.082-0.293-0.31-0.211-0.508
	c0.082-0.198,0.311-0.292,0.508-0.21c2.096,0.866,3.026,3.742,3.405,5.475c2.698-7.008,5.892-9.34,6.048-9.45
	c0.248-0.174,0.585-0.113,0.759,0.132c0.172,0.245,0.113,0.585-0.133,0.759c-0.028,0.02-2.184,1.623-4.404,6.098
	c1.087-1.037,2.569-2.161,3.764-1.97c0.212,0.034,0.357,0.232,0.323,0.445c-0.034,0.212-0.237,0.355-0.445,0.322
	c-1.34-0.213-3.699,2.286-4.497,3.265c-0.034,0.039-0.074,0.066-0.116,0.09c-0.446,1.088-0.881,2.309-1.29,3.664
	c1.134-0.918,2.916-2.153,4.312-2.153c0.214,0,0.389,0.175,0.389,0.39c0,0.215-0.175,0.389-0.389,0.389
	c-1.461,0-3.779,1.876-4.732,2.762c-0.489,1.609-1.096,3.232-1.771,4.822c1.989-1.479,5.952-4.241,7.704-4.083
	c0.215,0.02,0.373,0.208,0.352,0.423c-0.018,0.213-0.227,0.316-0.422,0.297c-1.654-0.166-6.528,3.723-8.278,4.723
	c-0.002,0-0.003,0-0.004,0c-1.31,3-2.788,5.65-4.107,7.891c2.089-1.317,6.15-3.773,7.318-3.93c0.209-0.029,0.408,0.135,0.438,0.348
	c0.028,0.213-0.122,0.416-0.334,0.444c-1.007,0.134-5.455,2.831-8.2,4.609c-0.028,0.018-0.06,0.018-0.089,0.028
	c-1.635,2.674-2.856,4.394-2.887,4.436c-0.106,0.149-0.273,0.229-0.443,0.229c-0.109,0-0.22-0.032-0.316-0.102
	c-0.244-0.175-0.301-0.515-0.125-0.76c0.018-0.025,0.476-0.67,1.195-1.765C296.168,341.732,295.267,338.505,294.688,337.514z
	 M393.939,501.061c-1.341,0.07-2.543,0.215-3.631,0.301c-4.9,0.395-7.138,1.409-9.749-1.491c-1.071-1.189-2.322-0.871-3.717-0.871
	c-0.007,0-0.014,0-0.022,0c-2.795,0-5.093,1.586-5.189,1.691c-0.29,0.316-0.269,0.295,0.048,0.585
	c0.318,0.29,0.808,0.143,1.099-0.175c0.53-0.576,2.286-2.102,4.043-2.102c0.004,0,0.011,0,0.015,0c0.951,0,1.79,0.27,2.568,1.135
	c3.125,3.471,6.101,3.06,11.028,2.667c1.076-0.086,2.263-0.175,3.588-0.243c2.381-0.13,4.025,0.296,4.732,1.212
	c0.681,0.881,0.324,2.044,0.323,2.05c-0.137,0.407,0.084,0.85,0.491,0.984c0.082,0.027,0.164,0.04,0.246,0.04
	c0.325,0,0.628-0.196,0.737-0.522c0.026-0.078,0.623-1.915-0.551-3.457C398.956,501.495,396.916,500.902,393.939,501.061z
	 M305.265,487.16c-10.753,7.681-15.158,8.348-19.521,6.895c-2.88-0.961-4.986,0.285-6.284,1.807
	c-0.35-1.919-1.268-4.606-3.639-6.784c-3.397-3.12-8.681-4.206-15.705-3.221c-7.03,0.984-11.402,3.302-12.995,6.886
	c-1.537,3.458,0.004,6.998,0.789,8.436c-1.614,1.021-6.612,3.516-12.56-0.054c-2.955-1.773-5.594-2.321-7.844-1.635
	c-2.645,0.809-3.714,3.044-3.759,3.139c-0.181,0.389-0.014,0.847,0.373,1.03c0.386,0.184,0.85,0.018,1.035-0.368
	c0.008-0.018,0.847-1.727,2.83-2.321c1.805-0.542,4.015-0.042,6.565,1.488c2.573,1.544,4.998,2.074,7.115,2.074
	c4.589,0,7.728-2.489,7.773-2.525c0.313-0.254,0.379-0.705,0.154-1.04c-0.027-0.039-2.65-4.008-1.046-7.601
	c1.364-3.058,5.329-5.064,11.786-5.969c6.529-0.914,11.382,0.032,14.422,2.811c3.553,3.25,3.359,7.995,3.357,8.042
	c-0.021,0.382,0.239,0.722,0.614,0.802c0.371,0.083,0.75-0.125,0.889-0.481c0.068-0.178,1.724-4.341,5.638-3.041
	c4.851,1.618,9.621,0.965,20.917-7.103c10.324-7.374,32.332,7.253,32.554,7.4c0.357,0.24,0.839,0.143,1.08-0.212
	c0.238-0.356,0.143-0.839-0.212-1.079C338.649,493.903,316.457,479.162,305.265,487.16z M508.4,516.05
	c-2.672,5.129-28.637,11.278-71.497,12.569c-9.003,0.272-26.878,0.456-48.53,0.456c-38.211,0-88.205-0.575-122.096-2.271
	c-5.554-0.278-11.973-0.581-18.911-0.908c-39.142-1.847-92.748-4.375-104.195-7.61c-11.422-3.227-13.452-6.494-13.985-8.67
	c-0.016-0.067-0.846-2.771,1.021-4.887c0.374-0.424,10.162-9.545,28.925-7.995c0.613-0.054,5.895-0.653,8.643-5.809
	c1.861-3.489,4.321-2.33,6.7-1.207c2.498,1.177,5.328,2.512,9.178,0.496c5.779-3.026,21.908-10.476,27.067-8.596l0.336,0.122
	c4.007,1.462,6.426,2.344,11.769-1.574c5.491-4.026,11.327-4.331,18.918-0.991c1.41,0.621,1.759,0.487,1.773,0.479
	c0.088-0.181-0.064-1.116-0.154-1.675c-0.215-1.327-0.484-2.978,0.43-4.078c0.538-0.646,1.395-0.987,2.546-1.014
	c1.769-0.039,3.433-0.403,5.042-0.756c2.925-0.641,5.718-1.251,8.21,0.442c0.003-1.36,0.321-3.123,1.611-4.621
	c2.083-2.417,5.979-3.323,11.587-2.686c0.06-1.294,0.44-3.567,2.276-4.711c1.969-1.225,4.957-0.726,8.888,1.471
	c0.297-6.754,0.069-27.883-0.199-42.524c-5.604-5.487-2.093-10.72-1.169-11.897c-0.005-0.878-0.157-4.036-1.882-7.957
	c-1.869-4.249-13.892-12.25-15.789-13.492c-5.368,0.857-11.138-0.701-16.723-2.209c-3.648-0.985-7.422-2.004-10.975-2.306
	c-9-0.766-24.302,4.873-28.729,9.483c-2.291,2.386-3.795,3.239-4.872,2.77c-0.751-0.328-0.974-1.174-0.937-1.798
	c-0.187-9.229,9.203-13.005,10.961-13.63c0.412-0.607,1.53-2.06,3.04-2.438c1.486-0.372,2.603,0.839,3.183,1.883
	c3.074-0.284,7.701-1.514,13.013-2.926c12.141-3.228,27.251-7.241,36.574-3.593c3.909,1.529,6.144,3.562,6.642,6.042
	c0.488,2.426-0.842,4.561-1.68,5.618c2.569,1.89,6.883,6.106,9.091,8.313l-1.306-50.756c-0.324-0.694-1.743-3.745-3.44-7.649
	c-1.641-3.772-3.475-3.811-3.522-3.811h0c-1.476,0.16-2.973-0.414-4.407-1.704c-7.071-6.359-11.382-29.523-11.382-32.511
	c0-0.824-0.505-2.129-0.951-3.281c-0.695-1.795-1.196-3.092-0.332-3.74c0.728-0.546,1.771-0.308,5.45,2.515
	c6.198,4.756,11.884,12.327,14.547,16.137c-0.192-5.26,0.324-6.224,0.841-6.677c0.285-0.25,0.641-0.348,1.01-0.273
	c0.238,0.048,0.796,0.159,1.576,1.938c0.307-4.785,1.14-11.135,3.387-12.184c0.967-0.452,1.702-0.19,2.149,0.108
	c2.594,1.735,2.303,9.824,2.262,10.741c-0.187,4.105-3.085,14.369-3.487,15.781l0.516,4.896c2.66-3.602,6.675-4.688,7.67-4.909
	c7.944-6.894,13.339-8.419,15.939-9.155c0.665-0.188,1.416-0.4,1.551-0.553c-0.056-0.369-0.158-1.494,0.682-1.922
	c0.812-0.415,1.693,0.27,1.943,0.49c0.021,0.018,0.04,0.036,0.058,0.056c10.492,11.299,7.223,26.713,3.995,32.407
	c-2.573,4.54-11.053,6.846-16.664,8.37c-1.853,0.503-3.453,0.938-4.057,1.263c-2.113,1.139-6.984,10.943-7.174,16.45
	c-0.182,5.271,3.137,37.636,3.47,40.853c1.983,0.721,15.006-1.288,26.836-3.719c10.867-4.098,15.792-3.56,18.013-2.386
	c0.703,0.372,1.141,0.806,1.41,1.174c8.592-3.484,17.486-2.269,20.203,0.222c1.821,1.669,1.115,3.979,0.433,6.212
	c-0.376,1.228-0.765,2.499-0.765,3.692c0,3.337-0.657,5.592-2.132,7.311c-0.466,0.544-0.96,0.518-1.213,0.457
	c-0.993-0.248-1.36-1.676-1.922-4.179c-0.175-0.775-0.354-1.575-0.502-1.922c-0.182-0.423-1.348-0.68-2.491-0.706
	c-0.346,2.142-1.202,3.56-2.55,4.226c-1.723,0.851-3.714,0.159-4.71-0.304c-6.19,7.975-14.532,4.905-17.011,3.738
	c-5.511,9.855-14.654,8.851-19.618,8.301c-0.983-0.108-1.834-0.202-2.48-0.202c-3.356,0-9.626,18.447-10.506,24.606
	c-0.612,4.278-0.237,12.119-0.066,15.033c1.821-1.261,4.318-2.392,7.489-3.378c7.962-2.48,12.262-2.889,15.107-3.16
	c2.06-0.195,3.194-0.305,4.425-1.041c0.306-0.185,0.648-0.422,1.028-0.688c3.633-2.524,11.188-7.778,23.974,7.344
	c0.804,0.409,5.284,2.599,9.783,2.823c0.833,0.042,1.787,0.069,2.801,0.101c6.009,0.178,10.723,0.447,12.211,2.127
	c0.089,0.1,0.166,0.204,0.232,0.312c1.946-0.704,6.665-1.351,11.909,5.678c0.738,0.99,1.422,1.93,2.066,2.815
	c4.912,6.757,7.385,10.15,14.956,9.064c3.751-0.535,5.722-1.363,7.025-1.913c1.783-0.748,2.653-1.004,4.333,0.194
	c0.395-1.009,1.199-2.427,2.776-3.345c2.07-1.209,4.812-1.191,8.151,0.05c5.232,1.943,12.909,7.085,19.681,11.622
	c4.96,3.32,9.644,6.458,12.09,7.436c1.605,0.644,4.265,1.242,7.344,1.936c7.698,1.736,17.185,3.876,19.504,8.663
	c3.685-1.413,19.71-6.85,26.499,2.364C508.223,514.918,508.557,515.751,508.4,516.05z M284.104,406.594
	c1.544-0.98,4.214-2.156,8.165-2.203c-0.114-0.67-3.661-35.421-3.467-41.048c0.205-5.922,5.202-16.265,7.991-17.767
	c0.761-0.409,2.282-0.822,4.386-1.395c5.037-1.369,13.466-3.659,15.719-7.636c3.041-5.365,6.118-19.883-3.749-30.548
	c-0.018-0.016-0.039-0.03-0.06-0.047c0.002,0.057,0.006,0.119,0.013,0.191c0.127,1.401-1.102,1.749-2.654,2.188
	c-2.701,0.763-7.729,2.185-15.495,8.965c-0.106,0.093-0.236,0.155-0.374,0.18c-0.057,0.011-5.663,1.08-7.984,6.167
	c-0.06,0.131,1.587,14.432,1.838,15.027c1.996,4.73,4.658,6.113,4.686,6.127c0.226,0.107,0.351,0.356,0.3,0.602
	c-0.602,2.91-3.294,6.396-3.408,6.542c-0.105,0.136-0.265,0.212-0.43,0.212c-0.047,0-0.095-0.007-0.141-0.02
	c-0.212-0.057-0.369-0.235-0.398-0.451l-4.706-35.668c-0.01-0.1-0.001-0.2,0.026-0.296c0.032-0.114,3.282-11.431,3.469-15.567
	c0.206-4.531-0.485-8.65-1.573-9.378c-0.129-0.087-0.295-0.146-0.626,0.009c-1.507,0.703-3.19,8.287-2.656,14.979
	c0.102,1.277,0.477,3.265,0.577,5.525c0.009,0.214-0.157,0.715-0.371,0.715c-0.006,0-0.012,0-0.018,0
	c-0.206,0-0.379-0.481-0.388-0.69c-0.078-1.742-0.683-4.779-0.778-5.158c-0.484-1.934-1.604-4.854-2.131-4.572
	c-0.483,0.258-0.721,6.111-0.143,8.2c0.855,1.821,2.279,7.102,2.921,10.99c0.554,3.357-0.171,12.033-0.203,12.43
	c-0.023,0.284-0.26,0.8-0.542,0.8c-0.007,0-0.015,0-0.022,0c-0.291,0-0.522-0.557-0.522-0.849c0-1.493-1.491-4.945-2.178-6.324
	c-0.568-0.607-6.127-6.704-8.718-12.809c-0.084-0.198,0.008-0.462,0.206-0.546c0.198-0.083,0.425-0.009,0.51,0.188
	c2.192,5.166,6.572,10.285,8.087,11.973c3.157-6.406-0.021-13.843-0.838-15.887c-0.051-0.13-7.608-11.822-15.76-18.079
	c-1.849-1.419-2.82-2.011-3.321-2.254c0.136,0.481,0.403,1.171,0.601,1.682c0.495,1.279,1.056,2.727,1.056,3.841
	c0,2.789,4.256,25.411,10.866,31.355c1.109,0.996,2.171,1.424,3.244,1.311c0.099-0.007,0.429-0.021,0.899,0.115
	c-0.918-1.453-2.32-3.849-2.749-5.566c-0.052-0.208,0.075-0.419,0.283-0.471c0.208-0.054,0.419,0.074,0.471,0.282
	c0.56,2.24,3.006,5.903,3.406,6.492c0.872,0.661,1.866,1.827,2.763,3.888c1.917,4.409,3.474,7.722,3.49,7.756
	c0.045,0.098,0.071,0.203,0.073,0.312l1.361,52.879c0.009,0.32-0.18,0.613-0.475,0.736c-0.294,0.125-0.635,0.057-0.859-0.172
	c-0.079-0.082-7.941-8.121-10.937-9.993c-0.203-0.127-0.336-0.34-0.361-0.578c-0.025-0.237,0.06-0.475,0.232-0.641
	c0.022-0.021,2.376-2.357,1.857-4.906c-0.391-1.925-2.303-3.57-5.682-4.893c-8.85-3.462-23.686,0.48-35.607,3.648
	c-0.704,0.187-1.395,0.37-2.073,0.549c0.761-0.022,1.42-0.005,1.87,0.074c0.447,0.078,1.215,0.355,2.28,0.739
	c4.556,1.642,14.037,5.057,23.07,2.254c7.265-2.255,9.87-0.632,11.594,0.443c0.97,0.604,1.556,0.972,2.615,0.482
	c0.196-0.092,0.426-0.006,0.516,0.19c0.09,0.194,0.005,0.427-0.19,0.516c-0.462,0.213-0.867,0.302-1.238,0.302
	c-0.786,0-1.418-0.395-2.115-0.829c-1.7-1.059-4.026-2.51-10.951-0.361c-9.281,2.881-18.928-0.595-23.565-2.265
	c-0.989-0.356-1.77-0.637-2.151-0.705c-1.195-0.209-4.082,0.064-6.379,0.343c-2.818,0.68-5.258,1.171-7.115,1.282
	c-0.33,0.024-0.637-0.172-0.765-0.477c-0.006-0.016-0.763-1.706-1.621-1.488c-1.012,0.252-1.963,1.514-2.245,1.979
	c-0.099,0.164-0.256,0.287-0.439,0.343c-0.421,0.129-10.322,3.26-10.142,12.266c-0.004,0.131,0.013,0.26,0.037,0.333
	c0.207-0.027,1.051-0.28,3.096-2.41c4.744-4.942,20.428-10.765,29.983-9.958c3.691,0.315,7.533,1.352,11.248,2.355
	c5.527,1.493,11.241,3.035,16.35,2.127c0.195-0.035,0.392,0.006,0.557,0.111c0.587,0.379,14.413,9.322,16.622,14.338
	C283.691,402.578,284.03,405.147,284.104,406.594z M280.179,326.24c0.257,0.521,0.853,1.765,1.37,3.104
	c0.075-2.012,0.107-4.571-0.063-6.751C281.216,323.799,280.795,325.023,280.179,326.24z M289.934,350.176
	c0.768-1.138,1.884-2.977,2.327-4.617c-0.673-0.424-2.099-1.511-3.475-3.754L289.934,350.176z M285.055,418.596
	c3.562,2.305,9.167,5.698,10.291,5.76c0.171,0.011,0.327,0.1,0.422,0.242c0.095,0.143,0.117,0.323,0.061,0.483
	c-0.054,0.151-5.319,15.401-5.413,20.119c-0.005,0.297-0.249,0.8-0.544,0.8c-0.003,0-0.007,0-0.011,0c-0.3,0-0.539-0.521-0.533-0.82
	c0.088-4.414,4.294-16.924,5.277-19.764c-2.099-0.717-6.824-3.718-9.286-5.288c0.128,7.166,0.606,41.565-0.042,44.378
	c-0.298,1.29-0.686,4.914-0.35,5.788c0.404,1.05,1.15,2.171,1.596,2.798c0.945-0.409,2.838-1.112,4.697-1.033
	c-0.108-0.639-0.106-1.465,0.23-2.398c0.337-0.935,0.948-1.824,1.822-2.661c-0.058-0.833-0.755-11.096,0.01-16.449
	c0.499-3.49,5.119-19.525,9.737-25.018c1.008-1.271,2.541-2.89,4.348-5.121c3.088-3.815,13.843-12.003,24.708-13.643
	c0.296-0.04,0.575,0.161,0.619,0.458c0.046,0.297-0.159,0.574-0.456,0.619c-10.086,1.522-20.839,9.316-24.024,13.251
	c-1.055,1.303-2.011,2.494-2.826,3.515c0.722,0.006,1.589,0.1,2.592,0.21c5.033,0.556,13.459,1.484,18.432-8.15
	c0.098-0.189,0.27-0.331,0.477-0.391c0.203-0.058,0.427-0.03,0.611,0.079c0.389,0.229,9.591,5.533,16.08-3.479
	c0.237-0.331,0.691-0.423,1.037-0.209c0.022,0.014,2.259,1.351,3.847,0.564c0.971-0.48,1.565-1.708,1.774-3.648
	c-3.376-0.853-9.823-3.681-11.122-4.258c-3.466,2.598-11.371,0.233-13.62-1.608c-1.016-0.831-1.501-0.463-3.623,1.41
	c-1.336,1.178-3.165,2.792-6.023,4.734c-6.188,4.208-12.377,1.448-16.898-0.566c-0.965-0.43-1.875-0.837-2.701-1.14
	c-3.255-1.198-5.155,0.893-6.83,2.736c-0.63,0.694-1.226,1.351-1.854,1.786c-0.561,0.391-1.123,0.548-1.658,0.548
	c-1.382,0-2.587-1.046-3.152-1.8c-0.129-0.172-0.095-0.415,0.077-0.544c0.171-0.128,0.415-0.094,0.544,0.077
	c0.075,0.099,1.847,2.398,3.744,1.081c0.556-0.387,1.123-1.011,1.723-1.67c1.75-1.927,3.926-4.319,7.674-2.945
	c0.85,0.312,1.772,0.724,2.75,1.16c4.595,2.048,10.313,4.598,16.145,0.634c2.816-1.915,4.623-3.511,5.943-4.675
	c2.042-1.802,3.067-2.706,4.631-1.429c2.086,1.707,9.806,4.02,12.819,1.463c0.114-0.097,0.273-0.122,0.411-0.059
	c5.025,2.331,10.792,4.308,11.751,4.342c0.644,0.022,3.89-0.138,4.648,1.637c0.205,0.478,0.384,1.272,0.591,2.192
	c0.17,0.757,0.454,2.024,0.72,2.69c1.021-1.396,1.475-3.25,1.475-5.939c0-1.426,0.423-2.81,0.832-4.146
	c0.683-2.235,1.049-3.653,0.003-4.611c-2.068-1.896-10.48-3.452-19.189,0.334c-0.211,0.092-0.452,0.085-0.656-0.017
	c-0.206-0.103-0.355-0.291-0.409-0.514c-0.002,0-0.19-0.562-1.156-1.031c-1.623-0.787-5.948-1.503-16.671,2.548
	c-0.039,0.015-21.529,4.304-26.855,3.836c-0.07,0.024-7.134-0.529-10.403,2.611C283.475,408.935,279.68,413.555,285.055,418.596z
	 M506.814,515.637c-6.867-9.087-25.122-1.542-25.307-1.465c-0.204,0.085-0.433,0.08-0.633-0.013
	c-0.198-0.094-0.35-0.268-0.413-0.479c-1.352-4.477-11.358-6.732-18.666-8.381c-3.145-0.708-5.858-1.32-7.578-2.008
	c-2.6-1.04-7.13-4.075-12.377-7.59c-6.702-4.488-14.298-9.576-19.359-11.456c-2.88-1.071-5.177-1.124-6.826-0.165
	c-1.985,1.158-2.37,3.425-2.374,3.448c-0.045,0.277-0.236,0.51-0.501,0.605c-0.262,0.097-0.56,0.044-0.773-0.14
	c-1.726-1.479-1.908-1.4-3.641-0.673c-1.378,0.579-3.46,1.455-7.408,2.02c-8.508,1.213-11.321-2.658-16.435-9.688
	c-0.642-0.882-1.32-1.815-2.056-2.801c-5.914-7.925-10.541-5.003-10.736-4.873c-0.25,0.164-0.573,0.173-0.83,0.021
	c-0.257-0.153-0.405-0.439-0.378-0.737c0.008-0.093-0.008-0.18-0.114-0.299c-1.161-1.311-7.138-1.487-11.093-1.604
	c-1.025-0.029-1.99-0.059-2.833-0.101c-5.298-0.266-10.355-2.959-10.568-3.073c-0.087-0.046-0.163-0.108-0.228-0.185
	c-11.932-14.183-18.479-9.631-21.995-7.185c-0.413,0.288-0.784,0.544-1.116,0.743c-1.532,0.919-2.942,1.054-5.078,1.257
	c-2.78,0.266-6.982,0.665-14.791,3.096c-6.967,2.169-9.164,4.587-9.778,6.233c-0.531,1.42,0.068,2.416,0.094,2.458
	c0.17,0.274,0.155,0.63-0.042,0.887c-0.196,0.256-0.527,0.365-0.838,0.275c-1.88-0.564-4.615,0.517-5.51,0.981
	c-0.333,0.173-0.74,0.084-0.97-0.209c-0.062-0.078-1.506-1.927-2.188-3.701c-0.604-1.568-0.003-5.623,0.255-7.145
	c-3.62-2.126-6.324-2.752-7.84-1.816c-1.786,1.107-1.545,4.176-1.542,4.206c0.02,0.236-0.068,0.469-0.239,0.632
	c-0.171,0.162-0.408,0.243-0.641,0.207c-5.454-0.748-9.288-0.039-11.088,2.05c-1.917,2.225-1.03,5.355-1.021,5.386
	c0.103,0.355-0.056,0.732-0.381,0.906c-0.326,0.173-0.729,0.094-0.964-0.19c-2.269-2.737-4.798-2.183-8.301-1.418
	c-1.603,0.351-3.42,0.748-5.34,0.792c-0.681,0.015-1.147,0.167-1.385,0.453c-0.462,0.555-0.264,1.766-0.091,2.833
	c0.21,1.289,0.407,2.506-0.445,3.165c-0.676,0.524-1.673,0.435-3.335-0.297c-7.12-3.133-12.315-2.887-17.372,0.822
	c-6.015,4.409-9.038,3.309-13.222,1.781l-0.334-0.122c-3.893-1.412-17.439,4.126-25.814,8.512
	c-4.535,2.377-8.019,0.731-10.563-0.468c-2.6-1.227-3.556-1.545-4.664,0.534c-3.277,6.145-9.698,6.615-9.97,6.632
	c-0.038,0.001-0.075,0.003-0.113-0.002c-18.061-1.506-27.738,7.449-27.809,7.562c-0.462,0.728-1.069,1.968-0.56,3.396
	c0.961,2.695,5.02,5.317,12.897,7.544c11.275,3.187,64.779,5.71,103.846,7.554c6.939,0.327,13.36,0.629,18.915,0.907
	c53.059,2.654,145.631,2.562,170.502,1.814C480.125,525.761,503.744,519.598,506.814,515.637z M378.289,82.808
	c-0.242-0.102-0.522-0.068-0.736,0.09c-0.219,0.163-22.05,16.409-34.069,27.808c-12.027,11.408-25.072,28.292-25.202,28.461
	c-0.141,0.182-0.189,0.417-0.134,0.64c0.17,0.678,0.748,1.083,1.547,1.083c3.693,0,15.529-8.943,35.182-26.582
	c16.784-15.064,25.253-25.407,24.491-29.91C379.165,83.206,378.378,82.845,378.289,82.808z M353.874,113.192
	c-24.7,22.169-31.81,25.797-33.838,26.164c2.632-3.355,13.957-17.581,24.48-27.562c10.853-10.294,29.793-24.592,33.349-27.257
	c0.019,0.074,0.033,0.161,0.042,0.263C378.061,86.712,376.03,93.306,353.874,113.192z M443.247,100.706l46.385-37.586l-0.165-0.625
	c-0.205-0.775-5.142-19.042-16.312-24.572c-4.073-2.017-8.458-2.077-13.037-0.18l-0.259,0.107l-29.898,40.861
	c-3.188,0.304-17.637,1.916-20.474,6.422c-0.78,1.241-1.243,3.213-1.733,5.302c-0.268,1.146-0.543,2.316-0.856,3.256
	c-1.97-0.509-7.161-1.378-12.427,1.645c-0.024-0.056-0.035-0.115-0.07-0.167l-12.074-17.733c-0.149-0.22-0.381-0.371-0.643-0.42
	c-0.261-0.05-0.53,0.009-0.752,0.16c-52.853,36.476-66.28,62.535-66.826,63.626c-0.208,0.417-0.101,0.923,0.259,1.219l43.538,35.847
	l-49.636,1.373l-12.248-7.43c-0.333-0.202-0.753-0.192-1.075,0.024c-0.323,0.217-0.492,0.601-0.431,0.986l4.499,28.667
	c0.064,0.404,0.367,0.729,0.767,0.82c0.074,0.017,0.148,0.025,0.222,0.025c0.324,0,0.635-0.158,0.824-0.433l8.684-12.623
	l66.428,3.424c0.015,0.014,0.022,0.032,0.037,0.045l13.392,11.025C389.546,203.921,389.77,204,390,204
	c0.091,0,0.183-0.012,0.272-0.038c41.611-11.782,48.148-43.206,48.209-43.523c0.051-0.262-0.005-0.532-0.155-0.753l-11.841-17.393
	c3.546-3.896,8.305-11.403,5.325-21.678C434.171,118.429,439.823,112.259,443.247,100.706z M408.046,99.669
	c0.591,0.466,1.225,0.998,1.802,1.711c0.752,0.929,1.041,2.424,1.296,3.744c0.31,1.601,0.577,2.983,1.623,3.635
	c0.532,0.331,1.165,0.401,1.871,0.206c1.04-0.284,1.895-1.022,2.474-2.137c0.819-1.579,1.043-3.859,0.7-6.41
	c0.695,0.162,1.588,0.299,2.669,0.299c0.391,0,0.811-0.026,1.246-0.067c4.317,1.976,7.685,11.594,7.524,16.693
	c-0.072,2.251-0.908,4.162-2.32,5.417c-1.868,1.661-3.821,1.646-5.201,1.495c-4.103-0.449-15.403-16.305-15.984-19.733
	C405.312,101.969,407.895,99.798,408.046,99.669z M403.755,104.728c0.386,3.72,12.365,20.948,17.766,21.517
	c0.359,0.038,0.716,0.057,1.066,0.057c0.886,0,1.739-0.126,2.547-0.358c0.227,2.209,0.172,6.532-2.758,10.315l-23.816-34.979
	c1.47-0.537,3.443-0.854,6.059-0.557C404.019,101.806,403.593,103.159,403.755,104.728z M406.041,95.523
	c-0.591,1.211-0.202,2.106,0.467,2.833c-0.164,0.149-0.351,0.337-0.545,0.543c-7.799-1.29-11.354,2.134-12.448,3.547
	c-0.716-0.111-1.202-0.36-1.448-0.744c-0.37-0.579-0.209-1.468-0.07-1.915C397.463,94.171,403.67,94.948,406.041,95.523z
	 M300.599,198.699l-3.777-24.061l9.86,5.981c-1.617,3.508-0.331,6.305,1.009,7.77L300.599,198.699z M309.394,187.269
	c-0.687-0.646-2.444-2.738-0.79-6.035l62.483-1.729c1.345,0.504,10.639,4.267,9.823,11.451L309.394,187.269z M436.428,160.452
	c-0.888,3.585-8.765,30.624-46.197,41.442l-10.957-9.02c0,0,2.46,0.126,2.478,0.126c0.468,0,0.877-0.327,0.976-0.789
	c2.163-10.005-11.022-14.613-11.155-14.658c-0.113-0.038-10.626,0.231-10.626,0.231l-44.671-36.78
	c2.506-4.378,17.96-29.006,64.965-61.609l11.508,16.9c0.028,0.041,0.07,0.064,0.103,0.1c-0.827,0.61-1.648,1.322-2.45,2.164
	l-0.131,0.137l-0.071,0.176c-0.092,0.226-0.865,2.251,0.176,3.894c0.668,1.054,1.869,1.636,3.57,1.731l0.617,0.027l0.308-0.531
	c0.049-0.084,0.589-0.976,1.879-1.824l24.221,35.574c0.011,0.015,0.024,0.026,0.035,0.041c-0.6,0.57-1.28,1.118-2.056,1.631
	l-0.412,0.273l-0.034,0.493c-0.108,1.562,0.578,4.679,3.941,5.302l0.409,0.076l0.342-0.237c0.032-0.022,0.79-0.563,1.862-1.573
	L436.428,160.452z M422.408,143.418c-1.527-0.483-1.845-1.895-1.902-2.645c7.105-5.024,6.893-12.763,6.529-15.637
	c0.428-0.251,0.833-0.541,1.209-0.869c0.755-0.658,1.371-1.459,1.853-2.362C433.266,134.279,424.362,141.918,422.408,143.418z
	 M431.172,118.426c0.04-0.334,0.066-0.674,0.077-1.02c0.159-4.994-2.595-13.58-6.772-17.288c1.642-0.479,3.464-1.291,5.421-2.625
	c0.456-0.311,0.574-0.933,0.263-1.39c-0.311-0.456-0.932-0.574-1.39-0.263c-5.901,4.024-10.287,2.794-11.392,2.374
	c-0.189-0.761-0.408-1.529-0.688-2.305c-0.188-0.519-0.763-0.786-1.28-0.6c-0.52,0.188-0.788,0.761-0.601,1.281
	c1.338,3.698,1.544,7.355,0.526,9.316c-0.319,0.614-0.73,0.994-1.224,1.129c-0.169,0.046-0.265,0.04-0.288,0.025
	c-0.306-0.19-0.553-1.47-0.717-2.316c-0.3-1.549-0.639-3.306-1.705-4.623c-0.828-1.023-1.729-1.724-2.454-2.287
	c-1.371-1.066-1.335-1.123-0.983-1.665c0.783-1.211,1.246-3.186,1.736-5.276c0.431-1.836,0.876-3.735,1.479-4.693
	c1.869-2.97,12.896-4.972,19.406-5.537l0.453-0.039l30.101-41.137c3.925-1.56,7.666-1.484,11.124,0.227
	c9.263,4.584,14.133,19.458,15.092,22.677l-45.854,37.156l-0.087,0.3C438.476,109.962,433.679,115.868,431.172,118.426z
	 M296.474,195.053c-0.247-0.123-0.548-0.023-0.671,0.224c-0.135,0.27-3.303,6.678-3.303,12.974c0,6.173-1.732,87.419-1.75,88.239
	c-0.006,0.276,0.213,0.505,0.489,0.511c0.004,0,0.007,0,0.011,0c0.271,0,0.494-0.217,0.5-0.489c0.018-0.82,1.75-82.077,1.75-88.261
	c0-6.055,3.165-12.462,3.197-12.526C296.821,195.477,296.721,195.176,296.474,195.053z M293.134,187.966
	c0.247-0.068,0.405-0.331,0.358-0.588c-0.05-0.272-0.31-0.482-0.583-0.432c-0.734,0.136-7.133,2.876-5.909,58.69
	c0.006,0.273,0.228,0.364,0.5,0.364c0.003,0,0.007,0,0.011,0c0.276,0,0.495-0.118,0.489-0.394
	C286.812,191.455,292.792,188.117,293.134,187.966z M283.755,194.719c-0.271-0.029-0.503,0.187-0.505,0.463l-0.75,69.438
	c-0.003,0.276,0.218,0.38,0.495,0.38c0.002,0,0.003,0,0.005,0c0.274,0,0.497-0.103,0.5-0.377l0.75-69.383
	C284.253,194.964,284.032,194.722,283.755,194.719z"></path>
</svg>