<?xml version="1.0" standalone="no"?>
<svg version="1.1" id="Layer_1" xmlns="http://www.w3.org/2000/svg" xmlns:xlink="http://www.w3.org/1999/xlink" x="0px" y="0px" width="595.276px" height="595.276px" viewBox="0 0 595.276 595.276" enable-background="new 0 0 595.276 595.276" xml:space="preserve">
<path id="color_x5F_6" fill-rule="evenodd" clip-rule="evenodd" fill="#7ed321" d="M157.778,430.116
	c0.458-0.005,0.892,0.068,1.291,0.228c1.036,0.415,1.838,1.462,2.403,2.971s0.877,3.446,0.975,5.481
	c0.196,4.071-0.47,8.564-1.396,10.878c-1.017,2.539-4.348,6.644-7.407,10.027c-2.987,3.303-5.584,5.826-5.712,5.95l-2.286-0.022
	l11.977-29.919c0.026-0.061,0.039-0.127,0.039-0.193c0-0.275-0.225-0.499-0.499-0.499c-0.006,0-0.011,0-0.017,0
	c-0.201,0.006-0.379,0.133-0.45,0.32l-12.12,30.282l-1.703-0.016c0.347-0.806,1.432-3.353,2.71-6.929
	c1.5-4.202,3.017-9.147,3.017-12.398c0-2.016-0.583-4.922-1.576-7.835c0.005-0.006,0.009-0.012,0.014-0.018
	c1.7-2.374,3.907-4.776,6.106-6.377C154.791,430.847,156.402,430.13,157.778,430.116z M138.576,429.068
	c1.117,0,2.25,0.673,3.336,1.865s2.094,2.875,2.941,4.729c1.695,3.707,2.747,8.123,2.747,10.615c0,2.928-1.472,7.897-2.959,12.062
	c-1.427,3.998-2.744,7.001-2.856,7.258l-2.595-0.023c0.011-0.042,0.016-0.086,0.016-0.129v-31.568c0-0.002,0-0.004,0-0.006
	c0-0.274-0.226-0.499-0.499-0.499c-0.003,0-0.005,0-0.008,0c-0.274,0.005-0.494,0.233-0.491,0.505v31.568
	c-0.001,0.041,0.004,0.081,0.013,0.121l-2.627-0.024c-0.112-0.251-1.486-3.337-2.971-7.369c-1.544-4.194-3.068-9.157-3.068-11.897
	c0-2.492,1.05-6.909,2.745-10.615c0.847-1.854,1.856-3.538,2.941-4.729S137.46,429.068,138.576,429.068z M118.965,430.139
	c1.402,0.053,3.093,0.852,4.816,2.144c2.268,1.7,4.534,4.183,6.227,6.529c-0.917,2.788-1.453,5.535-1.453,7.465
	c0,3.094,1.574,8.013,3.131,12.241c1.312,3.566,2.427,6.143,2.807,7.009l-2.391-0.039c0.065-0.128,0.072-0.279,0.019-0.411
	l-12.153-30.358c-0.074-0.192-0.259-0.319-0.464-0.32c0,0,0,0-0.001,0c-0.274,0-0.499,0.226-0.499,0.499
	c0,0.066,0.013,0.131,0.038,0.191l12.151,30.358c0.004,0.008,0.008,0.017,0.012,0.025l-2.671-0.043
	c-0.122-0.119-2.658-2.592-5.579-5.84c-2.99-3.326-6.25-7.372-7.268-9.916c-0.926-2.314-1.592-6.807-1.396-10.878
	c0.098-2.036,0.409-3.972,0.975-5.481c0.565-1.509,1.366-2.556,2.403-2.971C118.062,430.186,118.498,430.122,118.965,430.139z
	 M397.818,427.155c0.46,0,0.896,0.076,1.296,0.236c1.037,0.415,1.839,1.462,2.404,2.971s0.877,3.446,0.975,5.481
	c0.196,4.071-0.47,8.564-1.396,10.878c-1.017,2.539-4.348,6.646-7.407,10.029c-2.988,3.304-5.588,5.827-5.714,5.95l-2.284-0.022
	l11.977-29.919c0.026-0.061,0.039-0.127,0.039-0.193c0-0.275-0.226-0.499-0.499-0.499c-0.006,0-0.012,0-0.017,0
	c-0.201,0.006-0.379,0.133-0.451,0.32l-12.119,30.28l-1.701-0.016c0.364-0.847,1.441-3.381,2.708-6.928
	c1.5-4.201,3.017-9.146,3.017-12.397c0-2.052-0.6-5.03-1.627-7.997c0.001-0.001,0.001-0.002,0.002-0.002
	c0.004-0.006,0.008-0.012,0.012-0.018c1.698-2.371,3.914-4.733,6.124-6.293C394.812,427.846,396.434,427.155,397.818,427.155z
	 M378.623,426.117c1.117,0,2.249,0.673,3.336,1.865c1.086,1.192,2.096,2.873,2.943,4.726c1.695,3.707,2.745,8.126,2.745,10.618
	c0,2.928-1.472,7.894-2.959,12.06c-1.427,3.997-2.744,7-2.856,7.258l-2.593-0.023c0.01-0.042,0.015-0.085,0.014-0.127v-31.568
	c0-0.002,0-0.005,0-0.008c0-0.274-0.226-0.499-0.499-0.499c-0.003,0-0.006,0-0.008,0c-0.271,0.005-0.491,0.229-0.491,0.499
	c0,0.003,0,0.006,0,0.008v31.568c-0.001,0.04,0.003,0.08,0.011,0.119l-2.625-0.024c-0.112-0.251-1.485-3.335-2.969-7.368
	c-1.544-4.193-3.07-9.156-3.07-11.896c0-2.492,1.05-6.911,2.745-10.618c0.847-1.853,1.856-3.535,2.941-4.726
	C376.372,426.79,377.506,426.117,378.623,426.117z M359.011,427.185c1.402,0.054,3.093,0.854,4.816,2.146
	c2.268,1.7,4.536,4.183,6.229,6.529c-0.917,2.788-1.455,5.535-1.455,7.465c0,3.094,1.574,8.011,3.13,12.239
	c1.313,3.568,2.431,6.147,2.81,7.012l-2.394-0.039c0.066-0.128,0.073-0.279,0.02-0.411l-12.153-30.36
	c-0.074-0.192-0.259-0.319-0.464-0.32c0,0-0.001,0-0.002,0c-0.274,0-0.499,0.226-0.499,0.499c0,0.066,0.014,0.132,0.039,0.193
	l12.151,30.358c0.004,0.008,0.008,0.017,0.012,0.025l-2.669-0.043c-0.12-0.118-2.659-2.593-5.581-5.842
	c-2.99-3.326-6.25-7.372-7.268-9.916c-0.927-2.314-1.593-6.807-1.397-10.878c0.098-2.036,0.41-3.972,0.976-5.481
	c0.565-1.509,1.366-2.556,2.403-2.971C358.107,427.232,358.544,427.167,359.011,427.185z M457.61,365.791
	c0.455-0.006,0.886,0.067,1.285,0.227c1.037,0.414,1.84,1.461,2.405,2.971c0.565,1.509,0.876,3.446,0.974,5.481
	c0.196,4.071-0.47,8.564-1.397,10.878c-1.016,2.539-4.345,6.646-7.405,10.029c-2.988,3.303-5.589,5.827-5.715,5.95l-2.283-0.022
	l11.976-29.921c0.025-0.061,0.038-0.126,0.038-0.192c0-0.274-0.226-0.499-0.499-0.499c-0.006,0-0.011,0-0.017,0.001
	c-0.2,0.007-0.377,0.133-0.448,0.32l-12.122,30.279l-1.699-0.015c0.36-0.837,1.438-3.376,2.708-6.93
	c1.5-4.202,3.016-9.147,3.016-12.397c0-1.987-0.567-4.839-1.534-7.71c0.026-0.024,0.049-0.052,0.069-0.082
	c1.702-2.377,3.886-4.796,6.061-6.412C454.653,366.537,456.243,365.81,457.61,365.791z M438.403,364.742
	c1.117,0,2.252,0.675,3.338,1.867c1.086,1.192,2.094,2.874,2.941,4.726c1.695,3.706,2.746,8.124,2.746,10.616
	c0,2.928-1.472,7.896-2.959,12.061c-1.428,3.999-2.743,7.002-2.855,7.259l-2.594-0.024c0.01-0.042,0.016-0.085,0.015-0.128v-31.566
	c0-0.003,0-0.005,0-0.008c0-0.274-0.226-0.499-0.499-0.499c-0.002,0-0.005,0-0.008,0c-0.271,0.004-0.491,0.229-0.491,0.499
	c0,0.003,0,0.005,0,0.008v31.566c0,0.04,0.004,0.081,0.014,0.121l-2.63-0.024c-0.112-0.251-1.484-3.337-2.969-7.37
	c-1.543-4.193-3.07-9.156-3.07-11.896c0-2.492,1.051-6.91,2.745-10.616c0.848-1.853,1.856-3.535,2.942-4.726
	C436.154,365.418,437.286,364.742,438.403,364.742z M418.795,365.813c1.402,0.053,3.092,0.853,4.816,2.145
	c2.267,1.701,4.533,4.182,6.226,6.528c-0.917,2.788-1.455,5.534-1.455,7.465c0,3.093,1.574,8.012,3.131,12.241
	c1.312,3.565,2.427,6.142,2.807,7.009l-2.372-0.04c0.06-0.13,0.06-0.281,0-0.411l-12.151-30.357c-0.073-0.192-0.259-0.32-0.463-0.32
	c-0.001,0-0.001,0-0.001,0c-0.275,0-0.499,0.225-0.499,0.499c0,0.065,0.013,0.13,0.038,0.191l12.151,30.357
	c0.003,0.009,0.007,0.018,0.011,0.026l-2.67-0.043c-0.123-0.119-2.659-2.592-5.579-5.841c-2.99-3.326-6.25-7.372-7.269-9.915
	c-0.926-2.314-1.592-6.807-1.396-10.878c0.098-2.036,0.408-3.972,0.974-5.481c0.565-1.51,1.368-2.557,2.405-2.971
	C417.891,365.86,418.327,365.795,418.795,365.813z M347.087,239.219c1.767,0.022,3.623,0.607,5.249,1.791
	c3.207,2.332,4.402,6.182,3.176,9.174c-0.082,0.199,3.313,3.357,1.194,6.488c-0.575,0.852-2.991,1.733-2.991,1.979
	c0,0.066,0.013,0.132,0.038,0.193c0.973,2.31,0.814,4.836-0.635,6.766c-2.339,3.113-7.248,3.54-10.968,0.835
	c-0.788-0.573-7.805-4.188-8.611-4.774c-3.689-2.683-4.886-8.261-2.577-11.335c0.939-1.249,4.174-3.006,4.159-3.055
	c-0.391-1.246-0.234-2.537,0.526-3.551c1.057-1.405,3.011-1.887,4.883-1.29c0.215,0.068,0.744-0.467,0.839-0.593
	c1.17-1.557,2.982-2.443,4.967-2.601C346.583,239.224,346.834,239.216,347.087,239.219z M316.766,139.701
	c1.267-0.015,2.555,0.066,3.853,0.246c11.938,1.656,20.934,11.273,22.123,22.615c0.022,0.21,0.175,0.384,0.381,0.432
	c7.637,1.81,12.901,9.064,11.954,16.854c-0.454,3.734-2.256,6.955-4.871,9.262c-0.108,0.095-0.169,0.231-0.169,0.375
	c0,0.142,0.06,0.278,0.167,0.373c6.034,5.366,9.438,13.419,8.412,21.856c-1.656,13.618-14.216,23.111-28.062,21.191
	c-1.984-0.275-26.638,0.353-28.953,0.031c-3.931-0.545-7.679-2.12-10.993-4.415c-0.005-0.003-0.009-0.005-0.014-0.008
	c-2.558-1.121-8.488-6.335-10.669-13.054c-0.002-0.007-0.005-0.013-0.007-0.02c-1.738-4.058-2.506-8.432-1.989-12.696
	c0.665-5.462,3.084-10.258,6.637-13.922c0.184-0.19,0.187-0.493,0.008-0.687c-2.988-3.218-4.596-7.631-4.036-12.235
	c0.777-6.39,5.501-11.281,11.488-12.651c0.217-0.049,0.376-0.238,0.388-0.46c0.03-0.548,0.077-1.097,0.145-1.648
	C294.059,148.798,304.513,139.843,316.766,139.701z"></path>
<path id="color_x5F_5" fill-rule="evenodd" clip-rule="evenodd" fill="#FFD2BB" d="M317.714,240.284
	c-0.669,1.91-1.176,3.358-1.176,3.358c-0.019,0.053-0.028,0.109-0.028,0.165c0,0.274,0.225,0.499,0.499,0.499
	c0.103,0,0.203-0.032,0.287-0.091c0,0,1.568-1.104,3.219-2.267c0.803-0.565,1.818-0.741,2.765-0.479
	c0.947,0.262,1.725,0.932,2.124,1.83c0.082,0.184,0.165,0.373,0.25,0.561c0.855,1.929,0.91,4.116,0.152,6.085
	c-0.757,1.969-2.266,3.557-4.194,4.413c-0.513,0.228-0.915,0.406-1.434,0.636c-0.071,0.014-0.138,0.044-0.197,0.088
	c-2.273,1.01-4.59,2.039-6.273,2.786l-4.965-12.235c1.768-1.897,4.138-4.441,6.422-6.891c0.246-0.264,0.567-0.423,0.903-0.469
	c0.336-0.047,0.687,0.019,0.997,0.207h0.002c0.62,0.375,0.889,1.124,0.649,1.806h-0.002V240.284z M228.414,213.592h-15.93
	l0.53-14.791c0.985,0.41,5.185,1.092,5.974,0.7c1.204-0.597,2.615-2.127,3.86-3.758c0.623-0.816,2.365-3.827,2.452-4.404
	c0.037-0.249-0.12-0.489-0.363-0.555c-0.933-0.254-1.776-0.898-2.296-1.893c-1.017-1.941-0.364-4.439,1.422-5.54
	c1.738-1.073,3.884-0.488,4.937,1.33c0.089,0.154,0.702,0.193,0.796,0.092c0.541-0.579,0.942-1.407,1.036-2.501
	c0.089-1.031-0.204-1.783-0.618-2.286c-0.414-0.503-0.906-0.782-1.169-1.003c-0.131-0.11-0.256-0.339-0.207-0.491
	c0.098-0.306,0.549-0.966,1.602-1.992c0.562-0.549,1.324-0.791,2.254-0.808c0.558-0.01,1.178,0.061,1.852,0.194
	c1.797,0.354,3.894,1.145,5.962,1.834c2.066,0.689,4.103,1.288,5.889,1.19c0.075-0.004-0.137,7.923-0.458,15.111
	c-0.275,6.163-5.342,11.008-11.511,11.008c0,0-6.015,0.226-6.015,0.499L228.414,213.592L228.414,213.592z"></path>
<path id="color_x5F_4" fill-rule="evenodd" clip-rule="evenodd" fill="#8b572a" d="M220.089,159.361
	c6.968-3.38,11.949-0.358,13.766,0.396s3.53,1.486,5.336,1.529c1.806,0.043,3.664-0.657,5.606-2.6
	c0.362-0.362,0.651-0.458,0.95-0.435c0.3,0.023,0.584,0.297,1.046,0.57c3.913,2.316,3.935,12.863,2.696,16.626
	c-0.595,1.81-1.632,2.38-3.144,2.464s-3.478-0.457-5.518-1.138c-2.042-0.68-4.158-1.487-6.085-1.867
	c-1.928-0.379-3.753-0.335-4.998,0.88c-1.094,1.067-2.103,2.554-1.916,2.711c0.375,0.315,2.082,2.868,2.012,3.69
	c-0.055,0.637-0.313,0.971-0.542,1.344c-1.441-1.688-3.812-2.228-5.757-1.028c-2.258,1.393-3.042,4.45-1.783,6.853
	c0.549,1.05,1.441,1.734,2.427,2.138c-0.1,0.339-3.742,8.868-8.086,7.19c-0.91-0.352-5.481-1.575-6.537-3.385
	c-0.565-0.969-1.119-1.757-1.017-2.731c0.254-2.417-0.353-6.069-1.005-9.171c-0.636-3.031-1.301-5.392-1.332-5.503
	C206.235,177.682,208.055,165.198,220.089,159.361z"></path>
<path id="color_x5F_3" fill-rule="evenodd" clip-rule="evenodd" fill="#4a4a4a" d="M209.225,421.162h-21.556V304.448h63.525
	l-1.342,91.585c-0.089,0.151-0.092,0.338-0.008,0.491l-0.363,24.825l-22.229-0.183c-0.028-0.458-6.089-92.341-6.334-95.076
	c-0.123-1.367-0.23-2.441-0.322-3.183c-0.046-0.371-0.549-1.559-0.71-1.561h-3.01c-0.16,0.002-0.665,1.189-0.711,1.559
	c-0.094,0.742-0.205,1.816-0.332,3.183C215.579,328.822,209.247,420.824,209.225,421.162z M161.381,360.633l10.456,31.682
	c0.002,1.111-0.161,2.264-0.448,3.434c0,0-2.922-1.334-2.971-1.34c0,0-3.738-0.512-5.876-0.821h-0.002
	c-2.054-0.298-3.689,0.39-4.096,0.571l-1.7-1.338c-0.032-0.026-1.659-0.76-3.257-1.228c-0.59-0.172-1.17,0.037-1.68,0.34
	c-0.51,0.304-0.987,0.728-1.41,1.159c-0.77,0.784-1.246,1.468-1.348,1.612l-2.976,0.715c-1.159-0.884-3.225-3.495-3.43-3.495
	c-0.08,0-7.778,3.961-7.778,3.961l-8.011-23.725l13.083-4.368l4.066,12.179c0.067,0.203,0.259,0.342,0.473,0.342
	c0.054,0,0.107-0.009,0.158-0.026l6.052-2.021c0.204-0.068,0.342-0.26,0.342-0.474c0-0.054-0.009-0.107-0.026-0.158l-4.065-12.179
	L161.381,360.633z M307.009,306.807h18.03l-2.543,8.326c-0.064,0.207,0.015,0.432,0.193,0.555
	c5.348,3.717,9.116,11.326,9.116,16.795c0,3.788-1.655,5.786-4.487,6.993c-2.832,1.208-19.899,1.208-22.73,0
	c-2.832-1.208-4.489-3.205-4.489-6.993c0-5.571,3.914-13.36,9.418-16.999c0.188-0.125,0.27-0.362,0.198-0.575L307.009,306.807z
	 M118.687,274.274c-3.227,1.364-11.366,4.64-11.344,4.601c0.594-1.045,1.272-2.239,1.272-2.239l-0.004,0.002
	c0.044-0.076-0.03-0.596-0.188-0.685l-15.57-8.754l-6.242-18.146l28.922-10.366l6.707,17.98l-6.336,16.321
	c-0.023,0.058,0.166,0.657,0.423,0.679c0,0,1.105,0.093,2.293,0.193c0.103,0.009,0.162,0.375,0.069,0.414L118.687,274.274
	L118.687,274.274z M112.71,245.902c-0.06-0.166-0.597-0.318-0.64-0.302l-18.392,6.593c-0.258,0.092-0.395,0.381-0.303,0.638
	l4.574,12.765c0.044,0.122,11.946,6.059,11.946,6.059c0.027,0.013,1.422,0.087,1.972-0.837c1.988-3.342,5.46-12.028,5.416-12.15
	L112.71,245.902z"></path>
<path id="color_x5F_2" fill-rule="evenodd" clip-rule="evenodd" fill="#FBC02D" d="M218.052,436.023l-30.383,0.199v-14.061
	h21.87c0.353,0.239,5.524,3.749,9.159,7.288c1.881,1.831,3.265,3.711,3.373,4.8c0.053,0.544-0.079,0.869-0.661,1.201
	c-0.583,0.332-1.675,0.573-3.354,0.573L218.052,436.023L218.052,436.023z M257.647,436.023l-30.385,0.199v-14.057l22.203,0.183
	c0.004,0.003,0.008,0.006,0.012,0.008c0,0,5.403,3.641,9.046,7.231c1.821,1.796,3.14,3.636,3.213,4.69
	c0.036,0.527-0.107,0.851-0.706,1.18c-0.599,0.329-1.701,0.566-3.381,0.566H257.647z M116.166,276.424l33.729,101.055l-5.103,1.703
	l-33.604-100.654C112.886,277.811,114.393,277.173,116.166,276.424z M319.756,305.808h-6.915l0.138-45.391
	c0.006-0.003,2.173-2.495,2.037-2.475c-2.006,0.296,4.023-1.35,4.76-1.678l-0.043,24.636c0,0.001,0,0.001,0,0.001
	c0,0.274,15.379-17.13,15.379-17.13c0.739,0.401,3.809,1.994,4.466,2.343l-19.734,24.183
	C319.772,290.387,319.756,305.808,319.756,305.808z M251.201,303.449h-63.503c0.06-0.913,2.966-44.873,2.966-70.847
	c0-5.028,0.272-9.544,1.723-12.712c1.451-3.167,3.97-5.06,8.88-5.06h50.544c1.058,0,2.693,0.492,4.165,1.394
	c1.472,0.903,2.784,2.201,3.363,3.732c0.211,0.555,0.481,1.219,0.714,1.816c-0.151,0.09,13.005,30.243,15.377,35.424
	c0.232,0.506,0.655,0.9,1.179,1.093c0.522,0.194,1.1,0.171,1.606-0.061c6.039-2.777,28.395-13.053,29.127-13.39
	c0,0,0.281,1.113,0.497,1.225l5.328,13.131c-0.468,0.243-19.181,9.955-32.548,16.893c-6.843,3.552-15.254,0.921-18.85-5.899
	c-4.509-8.549-9.625-18.252-9.625-18.252c-0.086-0.165-0.942-0.043-0.942,0.232c0,0.001,0,0.002,0,0.003L251.201,303.449
	L251.201,303.449z M319.817,233.868l-0.014,7.029c-0.001,0.097-1.216,1.187-1.806,1.603c0.212-0.606,0.285-0.814,0.661-1.887
	c0.394-1.123-0.059-2.374-1.077-2.99c-0.509-0.308-1.093-0.417-1.651-0.34c-0.558,0.078-1.092,0.342-1.498,0.777
	c-0.493,0.529-0.888,0.953-1.386,1.488l0.015-5.454C315.32,234.026,317.612,233.942,319.817,233.868z M279.255,216.384
	c0.876,1.939,1.955,3.803,3.22,5.541c0.009,0.014,0.018,0.027,0.028,0.039c0.009,0.014,0.02,0.027,0.031,0.04
	c1.757,2.398,3.855,4.559,6.199,6.374l-21.761,7.29c-0.018,0.005-0.034,0.011-0.051,0.018c-2.036-4.695-3.983-9.332-5.558-13.31
	L279.255,216.384z"></path>
<path id="color_x5F_1" fill="#8b572a" d="M261.163,122.609c-0.542,0.008-0.984,0.456-0.984,0.999c0,0.005,0,0.01,0,0.016v5.199
	c0,0.004,0,0.009,0,0.014c0,0.547,0.451,0.999,0.999,0.999s1-0.451,1-0.999c0-0.005,0-0.01-0.001-0.014v-5.199
	c0.001-0.006,0.001-0.011,0.001-0.016c0-0.548-0.451-0.999-1-0.999C261.173,122.609,261.168,122.609,261.163,122.609z
	 M362.986,123.206c-0.547,0.007-0.993,0.464-0.985,1.012v5.201c0,0.005,0,0.01,0,0.014c0,0.548,0.45,1,0.999,1
	c0.547,0,0.999-0.451,0.999-1c0-0.004,0-0.009,0-0.014v-5.201c0-0.004,0-0.009,0-0.013c0-0.548-0.451-0.999-0.999-0.999
	C362.995,123.206,362.991,123.206,362.986,123.206z M254.522,125.366c-0.546,0.001-0.996,0.451-0.996,0.999
	c0,0.27,0.109,0.527,0.302,0.716l3.678,3.677c0.188,0.196,0.448,0.307,0.72,0.307c0.548,0,0.999-0.45,0.999-0.999
	c0-0.272-0.111-0.531-0.307-0.72l-3.678-3.678C255.052,125.474,254.793,125.365,254.522,125.366z M267.801,125.366
	c-0.259,0.007-0.505,0.116-0.686,0.302l-3.678,3.678c-0.196,0.189-0.307,0.448-0.307,0.72c0,0.548,0.45,1,0.999,1
	c0.272,0,0.532-0.112,0.72-0.308l3.678-3.677c0.194-0.189,0.303-0.447,0.303-0.717c0-0.547-0.451-0.999-0.999-0.999
	C267.821,125.365,267.811,125.365,267.801,125.366z M356.346,125.962c-0.547,0.002-0.997,0.452-0.997,0.999
	c0,0.27,0.109,0.528,0.302,0.716l3.676,3.678c0.189,0.196,0.448,0.307,0.721,0.307c0.547,0,0.999-0.45,0.999-0.999
	c0-0.272-0.112-0.532-0.308-0.72l-3.676-3.678C356.876,126.071,356.616,125.962,356.346,125.962z M369.625,125.962
	c-0.26,0.008-0.506,0.117-0.687,0.303l-3.678,3.678c-0.196,0.188-0.307,0.448-0.307,0.72c0,0.548,0.451,0.999,0.999,0.999
	c0.272,0,0.532-0.111,0.721-0.307l3.677-3.678c0.194-0.188,0.303-0.446,0.303-0.716c0-0.548-0.45-0.999-0.999-0.999
	C369.644,125.962,369.634,125.962,369.625,125.962z M251.782,132.019c-0.004,0-0.009,0-0.014,0c-0.548,0-0.999,0.45-0.999,0.999
	c0,0.547,0.45,0.999,0.999,0.999c0.005,0,0.01,0,0.014,0h5.201c0.005,0,0.01,0,0.014,0c0.548,0,1-0.451,1-0.999
	c0-0.548-0.451-0.999-1-0.999c-0.004,0-0.009,0-0.014,0H251.782z M265.373,132.019c-0.005,0-0.01,0-0.014,0c-0.548,0-1,0.45-1,0.999
	c0,0.547,0.451,0.999,1,0.999c0.004,0,0.009,0,0.014,0h5.201c0.004,0,0.009,0,0.014,0c0.548,0,0.999-0.451,0.999-0.999
	c0-0.548-0.45-0.999-0.999-0.999c-0.005,0-0.01,0-0.014,0H265.373z M353.606,132.615c-0.005-0.001-0.01-0.001-0.015-0.001
	c-0.547,0-0.999,0.451-0.999,1c0,0.547,0.451,0.999,0.999,0.999c0.005,0,0.01,0,0.015,0h5.201c0.004,0,0.009,0,0.014,0
	c0.547,0,0.999-0.451,0.999-0.999c0-0.548-0.451-1-0.999-1c-0.005,0-0.01,0-0.014,0.001H353.606z M367.196,132.615
	c-0.005-0.001-0.009-0.001-0.014-0.001c-0.548,0-0.999,0.451-0.999,1c0,0.547,0.45,0.999,0.999,0.999c0.005,0,0.009,0,0.014,0h5.199
	c0.005,0,0.009,0,0.014,0c0.548,0,0.999-0.451,0.999-0.999c0-0.548-0.45-1-0.999-1c-0.005,0-0.009,0-0.014,0.001H367.196z
	 M258.192,134.975c-0.259,0.008-0.505,0.116-0.686,0.303l-3.678,3.677c-0.196,0.189-0.307,0.448-0.307,0.721
	c0,0.547,0.45,0.999,0.999,0.999c0.272,0,0.532-0.111,0.72-0.308l3.678-3.677c0.193-0.189,0.303-0.446,0.303-0.717
	c0-0.547-0.451-0.999-0.999-0.999C258.212,134.974,258.202,134.975,258.192,134.975z M264.133,134.975
	c-0.547,0.001-0.997,0.451-0.997,0.999c0,0.27,0.109,0.527,0.302,0.716l3.676,3.677c0.188,0.188,0.441,0.294,0.707,0.294
	c0.548,0,1-0.451,1-1c0-0.265-0.106-0.518-0.293-0.706l-3.678-3.677C264.662,135.084,264.402,134.974,264.133,134.975z
	 M360.016,135.571c-0.26,0.008-0.506,0.117-0.687,0.303l-3.678,3.678c-0.196,0.188-0.307,0.448-0.307,0.72
	c0,0.548,0.45,0.999,0.999,0.999c0.272,0,0.532-0.111,0.72-0.307l3.678-3.678c0.194-0.188,0.303-0.446,0.303-0.716
	c0-0.548-0.45-0.999-0.999-0.999C360.035,135.571,360.025,135.571,360.016,135.571z M365.956,135.571
	c-0.547,0.002-0.997,0.452-0.997,1c0,0.269,0.109,0.527,0.302,0.715l3.676,3.678c0.189,0.196,0.448,0.307,0.72,0.307
	c0.548,0,1-0.45,1-0.999c0-0.272-0.112-0.532-0.308-0.72l-3.674-3.678C366.485,135.68,366.225,135.571,365.956,135.571z
	 M261.163,136.199c-0.547,0.009-0.991,0.465-0.984,1.013v5.201c0,0.005,0,0.01,0,0.014c0,0.548,0.451,0.999,0.999,0.999
	s1-0.45,1-0.999c0-0.004,0-0.009-0.001-0.014v-5.201c0.001-0.005,0.001-0.009,0.001-0.014c0-0.547-0.451-0.999-1-0.999
	C261.173,136.199,261.168,136.199,261.163,136.199z M362.986,136.797c-0.547,0.008-0.993,0.464-0.985,1.013v5.199
	c0,0.004,0,0.009,0,0.014c0,0.548,0.45,0.999,0.999,0.999c0.547,0,0.999-0.45,0.999-0.999c0-0.005,0-0.01,0-0.014v-5.199
	c0-0.005,0-0.009,0-0.014c0-0.548-0.451-0.999-0.999-0.999C362.995,136.797,362.991,136.797,362.986,136.797z M316.748,138.211
	c-0.447,0.005-0.892,0.021-1.334,0.049c-12.386,0.769-22.809,10.07-24.345,22.702c-0.045,0.373-0.068,0.742-0.097,1.113
	c-6.214,1.733-11.1,6.897-11.922,13.647c-0.577,4.746,1.001,9.269,3.892,12.725c-3.45,3.804-5.833,8.633-6.5,14.12
	c-0.517,4.254,0.177,8.568,1.754,12.594l-16.907,5.665c-0.175-0.451-0.388-0.969-0.548-1.395c-0.742-1.961-2.308-3.45-3.983-4.477
	c-1.676-1.027-3.454-1.617-4.947-1.617H229.91v-6.807h4.516c6.956,0,12.7-5.491,13.01-12.44c0.32-7.155,0.661-14.81,0.673-15.07
	c1.234-0.509,2.278-1.52,2.799-3.101c1.398-4.247,0.844-9.555-0.485-13.513c-0.665-1.979-1.501-3.621-2.597-4.666
	c-0.547-0.523-1.201-0.919-1.966-0.978c-0.766-0.059-1.541,0.285-2.124,0.868c-1.741,1.741-3.098,2.195-4.513,2.161
	c-1.414-0.033-2.976-0.659-4.797-1.414c-1.821-0.754-3.921-1.594-6.386-1.873c-2.465-0.278-5.295,0.004-8.574,1.497
	c-13.029,5.929-14.763,19.782-14.763,19.782c-0.017,0.132-0.007,0.266,0.029,0.395c0,0,0.698,2.485,1.338,5.532
	c0.639,3.047,1.191,6.708,0.981,8.706c-0.153,1.465,0.457,2.806,1.373,3.866c0.831,0.961,1.924,1.735,3.094,2.358l-0.529,14.695
	h-9.724c-5.315,0-8.602,2.349-10.244,5.934s-1.857,8.257-1.857,13.336c0,26.123-2.993,71.249-2.994,71.272
	c0,0.001-0.002,91.36-0.002,91.36l-13.111-0.117c0.182-0.958,0.29-1.917,0.283-2.866c-0.001-0.105-10.698-32.564-10.698-32.564
	c-0.14-0.424-0.549-0.706-0.997-0.685c-0.091,0.005-0.181,0.022-0.267,0.051l-14.447,4.822l-29.193-87.442
	c-0.012-0.04,1.077-0.589,1.529-0.781v0.002c0.724-0.305,1.15-1.078,1.027-1.849c-0.123-0.772-0.769-1.372-1.549-1.438
	c-0.5-0.042-0.571-0.049-0.966-0.082l5.923-15.254c0.089-0.228,0.091-0.481,0.006-0.71l-6.945-18.622
	c-0.144-0.385-0.511-0.644-0.923-0.649c-0.12-0.002-0.239,0.018-0.352,0.059l-29.85,10.699c-0.511,0.183-0.785,0.751-0.609,1.264
	l6.467,18.793c0.079,0.232,0.241,0.426,0.454,0.546l14.863,8.358c-0.252,0.443-0.414,0.729-0.777,1.367
	c-0.335,0.592-0.255,1.343,0.198,1.851c0.452,0.508,1.19,0.673,1.814,0.41c0.453-0.192,1.325-0.56,1.91-0.807l29.026,86.939
	l-13.084,4.37c-0.407,0.136-0.682,0.518-0.682,0.947c0,0.109,0.018,0.216,0.052,0.319l7.776,23.029l-45.2-0.037
	c-0.005,0-0.011,0-0.016,0c-0.547,0-0.999,0.45-0.999,0.999c0,0.547,0.451,0.999,0.999,0.999c0.005,0,0.009,0,0.014,0l45.885,0.037
	c0,0.036,1.888-0.592,1.871-0.665l6.654-2.851c0.111,0.179,1.677,2.061,3.08,3.096c0.237,0.175,0.539,0.236,0.825,0.168l3.395-0.817
	c0.237-0.057,2.689-2.706,3.017-2.901c0.329-0.195,3.269,0.828,3.36,0.868l1.794,1.414c0.299,0.236,0.707,0.282,1.05,0.118
	c0,0,3.55-0.55,3.551-0.55c2.149,0.311,8.441,1.167,8.441,1.167c-0.002,0.027,1.288,1.048,1.422,0.985l13.981,0.01v39.493
	c0,0.548,0.45,0.999,0.999,0.999c0.002,0,0.004,0,0.006,0l30.88-0.203c1.814,0,3.117-0.215,4.094-0.771
	c0.977-0.555,1.509-1.648,1.41-2.649c-0.198-2.003-1.858-3.815-3.819-5.725c-3.421-3.332-7.875-6.438-9.016-7.218
	c0.035-0.548,0.696-10.75,1.558-23.907l11.98,0.012c0.84,13.4,1.497,24.055,1.509,24.256c-0.006,0.048-0.01,0.095-0.009,0.143
	v15.064c0,0.548,0.45,0.999,0.999,0.999c0.002,0,0.005,0,0.007,0l30.878-0.203c1.813,0,3.12-0.213,4.103-0.751
	c0.982-0.539,1.548-1.598,1.48-2.595c-0.136-1.993-1.752-3.778-3.656-5.655c-3.116-3.072-7.17-5.958-8.601-6.949l0.357-24.288
	l38.553,0.033c-0.206,1.549-0.985,8.129,1.137,15.618c1.193,4.208,3.331,8.469,7.081,11.663s9.092,5.267,16.461,5.194
	c14.723-0.146,21.646-8.488,24.597-16.641c2.635-7.278,2.291-13.659,2.19-15.118l81.204-0.804c2.647,2.881,4.894,5.088,4.894,5.088
	c0.183,0.178,0.426,0.279,0.681,0.283l19.829,0.227c0.263,0.002,0.516-0.099,0.704-0.282c0,0,2.591-2.524,5.521-5.733
	c0.141,0.069,54.395-0.433,54.395-0.433l0,0c0.548,0,0.999-0.45,0.999-0.999c0-0.547-0.45-0.999-0.999-0.999
	c-0.007,0-0.013,0-0.02,0l-52.674,0.523c2.69-3.061,5.334-6.378,6.383-8.999c1.077-2.691,1.707-7.225,1.501-11.505
	c-0.103-2.14-0.418-4.203-1.067-5.935c-0.648-1.731-1.664-3.202-3.25-3.837c-0.591-0.237-1.197-0.346-1.81-0.347
	c-1.84-0.005-3.743,0.949-5.515,2.264c-1.986,1.475-3.874,3.489-5.485,5.564c-0.19-0.471-0.39-0.938-0.599-1.397
	c-0.891-1.949-1.952-3.746-3.197-5.113c-1.245-1.366-2.736-2.354-4.444-2.354s-3.196,0.988-4.442,2.354
	c-1.245,1.366-2.306,3.164-3.197,5.113c-0.244,0.533-0.472,1.077-0.689,1.625c-1.616-2.043-3.547-4.062-5.567-5.577
	c-1.856-1.391-3.83-2.438-5.718-2.468c-0.629-0.01-1.248,0.095-1.851,0.336c-1.586,0.635-2.602,2.106-3.25,3.837
	c-0.648,1.732-0.965,3.794-1.068,5.935c-0.206,4.28,0.425,8.814,1.502,11.505c1.097,2.74,3.893,6.213,6.654,9.345l-80.435,0.795
	c-0.544,0.006-0.989,0.454-0.989,0.999c0,0.031,0.001,0.062,0.004,0.092c0,0,0.694,7.686-2.075,15.337
	c-2.77,7.651-8.747,15.183-22.74,15.321c-6.99,0.069-11.776-1.848-15.144-4.715c-3.367-2.868-5.336-6.742-6.455-10.688
	c-2.236-7.892-1.007-15.919-1.007-15.919c0.008-0.051,0.012-0.102,0.012-0.154c0-0.547-0.449-0.998-0.997-0.999l-39.591-0.033
	l1.338-91.323c0-0.004,0-0.009,0-0.014V256.21c1.434,2.718,4.118,7.803,7.745,14.681c3.972,7.533,13.307,10.454,20.866,6.531
	c12.391-6.432,27.33-14.186,30.168-15.659l-0.135,43.549h-5.029l0,0c-0.548,0-1,0.45-1,0.999c0,0.107,0.018,0.214,0.052,0.316
	l2.721,8.144c-5.675,4.122-9.486,11.691-9.486,17.715c0,4.253,2.183,6.998,5.4,8.371c3.216,1.371,20.687,1.371,23.904,0
	c3.217-1.372,5.397-4.118,5.397-8.371c0-5.921-3.685-13.334-9.194-17.507l2.562-8.378c0.029-0.095,0.043-0.193,0.043-0.291
	c0-0.548-0.45-0.999-0.999-0.999l0,0h-4.46l-0.023-14.341l19.349-23.711c0.223,0.131,0.575,0.319,0.688,0.4
	c4.289,3.12,10.146,2.711,13.045-1.149c1.58-2.104,1.84-4.766,1.112-7.237c0.953-0.345,1.843-0.854,2.477-1.699
	c1.69-2.249,1.143-5.362-0.876-7.466c1.124-3.591-0.32-7.767-3.811-10.307c-2.144-1.56-4.679-2.239-7.042-2.045
	c-2.329,0.192-4.479,1.25-5.928,3.129c-2.181-0.434-4.46,0.165-5.796,1.945c-0.874,1.163-1.037,2.583-0.837,3.962
	c-1.491,0.512-2.867,1.336-3.849,2.643c-2.957,3.938-1.454,10.285,2.895,13.449c0.231,0.168,0.51,0.345,0.808,0.527l-12.23,14.72
	l0.037-21.983c0.343-0.152,0.608-0.269,0.947-0.419c2.29-1.017,4.084-2.904,4.984-5.244c0.901-2.339,0.835-4.941-0.182-7.231
	c-0.084-0.189-0.167-0.377-0.25-0.562c-0.58-1.306-1.717-2.285-3.095-2.666c-0.785-0.218-1.601-0.222-2.374-0.038l0.01-5.663
	c3.946-0.121,7.42-0.157,9.035,0.067c14.635,2.03,27.997-8.057,29.753-22.495v-0.002c1.044-8.582-2.312-16.722-8.216-22.385
	c2.483-2.477,4.222-5.73,4.678-9.478c1.013-8.333-4.456-16.043-12.458-18.277c-1.538-11.74-10.896-21.57-23.281-23.288
	C319.451,138.278,318.089,138.195,316.748,138.211z M316.77,140.206c1.242-0.014,2.505,0.064,3.778,0.24
	c11.711,1.625,20.529,11.06,21.695,22.171c0.044,0.42,0.351,0.77,0.762,0.868c7.396,1.752,12.488,8.773,11.572,16.306
	c-0.439,3.613-2.177,6.718-4.705,8.948c-0.214,0.19-0.337,0.462-0.337,0.748c0,0.285,0.122,0.556,0.335,0.746
	c5.919,5.264,9.254,13.155,8.248,21.423c-1.622,13.346-13.912,22.639-27.496,20.756c-0.001,0-0.001,0-0.002,0
	c-2.082-0.288-26.716,0.343-28.953,0.032c-3.849-0.534-7.532-2.078-10.792-4.339c-2.741-1.9-5.18-4.304-7.163-7.02
	c-1.333-1.826-2.46-3.792-3.336-5.839c-1.707-3.988-2.459-8.276-1.953-12.44c0.651-5.352,3.02-10.045,6.5-13.634
	c0.367-0.379,0.373-0.986,0.014-1.373c-2.893-3.116-4.448-7.383-3.906-11.835c0.752-6.18,5.315-10.9,11.104-12.223
	c0.433-0.1,0.75-0.477,0.774-0.921c0.029-0.537,0.077-1.076,0.143-1.615C294.523,149.11,304.753,140.343,316.77,140.206z
	 M226.188,158.356c0.576-0.012,1.131,0.019,1.666,0.082c2.142,0.252,3.992,1.033,5.808,1.785s3.578,1.52,5.514,1.566
	c1.937,0.047,3.961-0.736,5.972-2.747c0.287-0.287,0.416-0.3,0.559-0.289c0.144,0.012,0.405,0.112,0.739,0.431
	c0.67,0.639,1.479,2.063,2.081,3.856c1.206,3.587,1.67,8.651,0.484,12.253c-0.545,1.657-1.323,2.047-2.698,2.122
	c-1.375,0.076-3.306-0.438-5.334-1.114s-4.155-1.491-6.147-1.883c-1.993-0.392-4.024-0.372-5.441,1.011
	c-1.115,1.087-1.718,1.785-1.982,2.606c-0.132,0.411-0.129,0.901,0.035,1.287c0.164,0.387,1.408,1.373,1.609,1.617
	c0.201,0.245,0.143,1.501,0.092,1.688c-1.62-1.396-3.957-1.732-5.874-0.548c-2.495,1.54-3.341,4.875-1.961,7.51
	c0.518,0.989,1.337,1.653,2.24,2.132c-0.111,0.279-0.153,0.461-0.383,0.864c-0.392,0.684-0.926,1.479-1.514,2.249
	c-1.176,1.54-2.689,3.005-3.336,3.326c-0.225,0.112-1.095,0.216-2.139,0.034c-0.87-0.152-5.162-1.413-6.246-3.219
	c-0.53-0.882-0.983-1.544-0.898-2.354c0.269-2.557-0.357-6.203-1.012-9.323c-0.626-2.983-1.25-5.207-1.309-5.415
	c0.058-0.435,1.766-12.692,13.577-18.066C222.531,158.801,224.46,158.391,226.188,158.356z M233.25,176.212
	c0.368,0.026,0.766,0.083,1.2,0.168c1.732,0.341,3.818,1.125,5.899,1.818c1.963,0.654,3.914,1.239,5.743,1.216
	c-0.032,0.716-0.342,7.661-0.651,14.587c-0.264,5.901-5.107,10.532-11.015,10.532h-5.514c-0.548,0-0.999,0.451-0.999,0.999v7.566
	h-14.914l0.487-13.579c0.799,0.29,1.596,0.514,2.351,0.645c1.264,0.221,2.395,0.275,3.371-0.211c1.39-0.69,2.765-2.24,4.034-3.903
	c0.634-0.831,1.212-1.684,1.66-2.467c0.448-0.784,0.783-1.451,0.89-2.163c0.075-0.499-0.24-0.98-0.726-1.113
	c-0.798-0.217-1.525-0.766-1.984-1.642c-0.896-1.709-0.308-3.927,1.241-4.883c1.507-0.93,3.318-0.443,4.243,1.155
	c0.179,0.309,0.508,0.498,0.864,0.498c0.277,0,0.541-0.115,0.73-0.317c0.617-0.66,1.066-1.609,1.169-2.798
	c0.098-1.135-0.245-2.057-0.73-2.647s-1.028-0.894-1.234-1.068c-0.013-0.011,0,0.002-0.01-0.007
	c0.062-0.159,0.431-0.759,1.434-1.737C231.334,176.328,232.147,176.133,233.25,176.212z M385.82,200.764
	c-0.546,0.009-0.99,0.465-0.983,1.013v5.199c0,0.004,0,0.009,0,0.014c0,0.547,0.45,0.999,0.999,0.999s0.999-0.451,0.999-0.999
	c0-0.005,0-0.01,0-0.014v-5.199c0-0.005,0-0.01,0-0.014c0-0.548-0.45-0.999-0.999-0.999
	C385.831,200.764,385.826,200.764,385.82,200.764z M379.182,203.518c-0.001,0-0.001,0-0.002,0c-0.547,0-0.999,0.45-0.999,0.999
	c0,0.271,0.11,0.529,0.305,0.718l3.677,3.675c0.189,0.197,0.449,0.308,0.721,0.308c0.547,0,0.999-0.451,0.999-0.999
	c0-0.273-0.111-0.532-0.308-0.721l-3.674-3.676C379.711,203.628,379.452,203.518,379.182,203.518z M392.458,203.52
	c-0.26,0.007-0.506,0.116-0.687,0.302l-3.674,3.678c-0.196,0.189-0.308,0.448-0.308,0.72c0,0.548,0.451,0.999,1,0.999
	c0.272,0,0.531-0.111,0.72-0.307l3.677-3.677c0.194-0.189,0.304-0.447,0.304-0.717c0-0.547-0.451-0.999-1-0.999
	C392.479,203.519,392.468,203.519,392.458,203.52z M376.441,210.172c-0.005,0-0.01,0-0.014,0c-0.548,0-0.999,0.45-0.999,0.999
	c0,0.548,0.45,0.999,0.999,0.999c0.004,0,0.009,0,0.014,0h5.201c0.005,0,0.009,0,0.014,0c0.548,0,0.999-0.45,0.999-0.999
	c0-0.548-0.45-0.999-0.999-0.999c-0.005,0-0.009,0-0.014,0H376.441z M390.029,210.172c-0.004,0-0.009,0-0.014,0
	c-0.548,0-0.999,0.45-0.999,0.999c0,0.548,0.45,0.999,0.999,0.999c0.005,0,0.01,0,0.014,0h5.201c0.005,0,0.01,0,0.014,0
	c0.548,0,1-0.45,1-0.999c0-0.548-0.451-0.999-1-0.999c-0.004,0-0.009,0-0.014,0H390.029z M388.791,213.128c-0.001,0-0.001,0-0.002,0
	c-0.547,0-0.999,0.45-0.999,0.999c0,0.271,0.11,0.529,0.305,0.718l3.677,3.675c0.189,0.197,0.449,0.308,0.721,0.308
	c0.547,0,0.999-0.451,0.999-0.999c0-0.273-0.111-0.532-0.308-0.721l-3.674-3.675C389.32,213.238,389.062,213.128,388.791,213.128z
	 M382.849,213.13c-0.26,0.008-0.506,0.116-0.687,0.303l-3.674,3.675c-0.188,0.188-0.294,0.442-0.294,0.707c0,0.548,0.451,1,1,1
	c0.265,0,0.518-0.105,0.706-0.293l3.677-3.677c0.194-0.189,0.303-0.447,0.303-0.717c0-0.547-0.45-0.999-0.999-0.999
	C382.87,213.129,382.859,213.129,382.849,213.13z M385.82,214.352c-0.546,0.009-0.99,0.465-0.983,1.013v5.201
	c0,0.005,0,0.01,0,0.014c0,0.548,0.45,0.999,0.999,0.999s0.999-0.45,0.999-0.999c0-0.004,0-0.009,0-0.014v-5.201
	c0-0.004,0-0.009,0-0.014c0-0.547-0.45-0.999-0.999-0.999C385.831,214.352,385.826,214.352,385.82,214.352z M201.265,215.334h50.545
	c0.912,0,2.499,0.461,3.903,1.322c1.404,0.861,2.634,2.095,3.158,3.482c0.177,0.468,13.75,32.13,16.103,37.27
	c0.287,0.626,0.812,1.115,1.459,1.353c0.647,0.241,1.362,0.213,1.988-0.074c5.938-2.73,27.206-12.507,28.639-13.166
	c-0.043,0.352,5.471,13.443,5.471,13.443c-0.913,0.474-18.943,9.832-32.146,16.686c-6.605,3.428-14.708,0.891-18.179-5.691
	c-4.509-8.549-9.625-18.249-9.625-18.249c-0.173-0.328-0.513-0.533-0.884-0.533c-0.547,0-0.999,0.451-0.999,0.999c0,0,0,0,0,0.001
	v50.777h-62.474c0.118-1.794,2.937-44.607,2.937-70.347c0-5.012,0.289-9.476,1.676-12.505
	C194.225,217.074,196.49,215.334,201.265,215.334z M278.989,217.002c0.852,1.814,1.875,3.559,3.062,5.193
	c0.002,0.005,0.005,0.009,0.008,0.014c0.013,0.018,0.026,0.036,0.039,0.054c1.608,2.203,3.497,4.21,5.6,5.941l-20.502,6.867
	c-1.886-4.357-3.687-8.643-5.178-12.384L278.989,217.002z M289.562,229.62c0.047,0.032,0.091,0.067,0.137,0.099
	c0.013,0.01,0.026,0.02,0.039,0.029c3.489,2.419,7.458,4.093,11.654,4.674c2.411,0.335,6.119,0.321,10.168,0.219l-0.018,5.79
	c-1.081,1.16-2.136,2.292-3.052,3.275c-0.246-0.466-0.82-0.662-1.299-0.442c0,0-23.463,10.787-29.601,13.608
	c-0.146,0.067-0.731-0.149-0.798-0.295c-1.465-3.201-5.132-11.269-8.791-19.67l21.237-7.112
	C289.355,229.758,289.466,229.698,289.562,229.62z M319.313,234.389c0,0-0.012,6.558-0.01,6.582
	c-0.082,0.057-0.168,0.118-0.324,0.228c0.077-0.22,0.063-0.179,0.146-0.415c0.471-1.342-0.07-2.847-1.287-3.584
	c-0.609-0.368-1.31-0.498-1.98-0.406c-0.67,0.093-1.307,0.408-1.793,0.929c-0.185,0.198-0.333,0.358-0.519,0.557l0.01-3.701
	C315.489,234.52,317.421,234.454,319.313,234.389z M316.133,238.769c0.226-0.032,0.461,0.013,0.671,0.14
	c0.42,0.255,0.599,0.752,0.436,1.214c-0.669,1.91-1.176,3.359-1.176,3.359c-0.038,0.107-0.057,0.219-0.057,0.331
	c0,0.548,0.451,0.999,0.999,0.999c0.207,0,0.408-0.063,0.575-0.182c0,0,1.568-1.106,3.219-2.269c0.68-0.479,1.54-0.629,2.342-0.408
	c0.804,0.223,1.462,0.791,1.801,1.553c0,0.001,0,0.001,0,0.002c0.082,0.184,0.166,0.371,0.25,0.559
	c0.801,1.808,0.853,3.858,0.143,5.702c-0.71,1.846-2.123,3.333-3.931,4.136c-0.488,0.217-5.821,2.586-7.432,3.301l-4.652-11.463
	c1.75-1.878,3.998-4.289,6.205-6.656C315.694,238.907,315.908,238.8,316.133,238.769z M115.235,239.326l6.467,17.341
	c0,0-6.333,16.383-6.333,16.507c0,0.515,0.4,0.951,0.914,0.995c0,0,0.723,0.062,1.15,0.098c-2.897,1.225-6.541,2.765-9.077,3.837
	c0.267-0.471,0.648-1.145,0.663-1.171c0.009-0.015,0.157-0.367,0.157-0.54c0-0.361-0.195-0.693-0.508-0.87l-15.407-8.661
	l-6.02-17.503L115.235,239.326z M347.09,239.722c1.658,0.022,3.405,0.572,4.949,1.695c3.042,2.213,4.135,5.833,3.008,8.582
	c-0.162,0.396-0.052,0.854,0.271,1.134c1.735,1.5,2.097,3.762,0.986,5.244c-0.533,0.709-1.32,1.148-2.245,1.291
	c-0.485,0.075-0.847,0.496-0.847,0.987c0,0.133,0.027,0.264,0.078,0.387c0.914,2.169,0.758,4.496-0.575,6.271
	c-2.152,2.866-6.744,3.298-10.273,0.731c-0.883-0.641-7.879-4.241-8.611-4.773c-3.469-2.523-4.567-7.846-2.474-10.633
	c0.864-1.15,2.093-1.899,3.514-2.232c0.45-0.105,0.771-0.51,0.771-0.973c0-0.101-0.015-0.202-0.046-0.299
	c-0.35-1.115-0.211-2.227,0.447-3.102c0.912-1.215,2.632-1.655,4.332-1.114c0.43,0.137,0.903-0.033,1.146-0.413
	c0.077-0.121,0.159-0.24,0.246-0.355c1.077-1.433,2.762-2.258,4.619-2.404C346.618,239.727,346.853,239.719,347.09,239.722z
	 M112.262,245.077c-0.124-0.004-0.247,0.016-0.363,0.057l-18.394,6.593c-0.397,0.143-0.662,0.52-0.662,0.941
	c0,0.115,0.02,0.229,0.059,0.338l4.574,12.765c0.088,0.244,0.267,0.443,0.499,0.557l11.697,5.779c0.243,0.12,0.525,0.136,0.78,0.045
	l1.332-0.478c0.255-0.091,0.462-0.282,0.573-0.528l5.363-11.894c0.106-0.237,0.116-0.504,0.029-0.747l-4.574-12.766
	C113.038,245.351,112.674,245.088,112.262,245.077z M111.634,247.351l4.1,11.445l-5.023,11.141l-0.532,0.191l-10.956-5.413
	l-4.102-11.445L111.634,247.351z M319.273,257.037l-0.042,23.865c0,0.548,0.45,0.999,0.999,0.999c0.296,0,0.576-0.132,0.766-0.359
	l14.239-17.135c0.647,0.345,3.048,1.6,3.566,1.873l-19.345,23.705c-0.146,0.179-0.225,0.404-0.224,0.634l0.023,14.693h-5.917
	l0.137-44.587c0.022-0.011,0.784-0.408,0.784-0.408c0.455-0.236,0.659-0.787,0.466-1.262
	C315.998,258.491,317.649,257.759,319.273,257.037z M115.854,277.101l33.406,100.065l-4.157,1.387l-33.298-99.742
	C113.218,278.215,114.388,277.72,115.854,277.101z M188.166,304.951h62.518l-1.7,115.898l-21.265-0.175
	c-0.055-0.903-6.06-91.885-6.306-94.626c-0.123-1.369-0.231-2.448-0.324-3.201c-0.047-0.376-0.089-0.666-0.133-0.897
	c-0.022-0.116-0.04-0.212-0.08-0.336c-0.02-0.062-0.039-0.128-0.113-0.254c-0.037-0.063-0.085-0.144-0.205-0.252
	c-0.121-0.108-0.36-0.26-0.675-0.26h-3.01c-0.316,0-0.552,0.151-0.673,0.258c-0.12,0.107-0.17,0.19-0.207,0.252
	c-0.074,0.125-0.091,0.192-0.111,0.254c-0.041,0.124-0.06,0.218-0.082,0.334c-0.045,0.231-0.087,0.523-0.135,0.899
	c-0.095,0.753-0.207,1.832-0.334,3.202c-0.254,2.74-6.543,94.051-6.58,94.619h-20.586L188.166,304.951L188.166,304.951z
	 M307.699,307.31h16.663l-2.346,7.68c-0.127,0.414,0.029,0.865,0.384,1.112c5.18,3.601,8.903,11.139,8.903,16.385
	c0,3.635-1.481,5.382-4.184,6.535s-19.635,1.153-22.338,0c-2.704-1.153-4.185-2.9-4.185-6.535c0-5.344,3.868-13.06,9.194-16.582
	c0.377-0.249,0.54-0.723,0.397-1.151L307.699,307.31z M217.685,322.847h1.384c0.013,0.095,0.021,0.133,0.035,0.246
	c0.088,0.71,0.197,1.776,0.319,3.135c0.244,2.719,4.238,61.51,4.711,69.041l-11.721-0.012c0.494-7.527,4.656-66.308,4.908-69.027
	c0.127-1.359,0.237-2.425,0.326-3.135C217.662,322.981,217.671,322.943,217.685,322.847z M161.06,361.27l10.268,31.105
	c-0.002,0.62-0.057,1.257-0.155,1.906c0,0-6.431-0.876-8.564-1.185v0.002c-1.959-0.284-3.397,0.226-4.077,0.503l-1.482-1.169
	c-0.065-0.051-0.136-0.095-0.211-0.129c0,0-1.572-0.706-3.215-1.186c-0.001,0-0.001,0-0.002,0c-0.396-0.116-0.77-0.102-1.118-0.018
	c-0.349,0.084-0.668,0.239-0.954,0.409c-0.571,0.339-2.602,2.506-2.78,2.752l-2.562,0.615c-0.989-0.784-1.754-1.524-2.13-2.018
	c-0.43-0.564-1.031-1.429-1.439-1.429c-0.136,0-0.27,0.028-0.395,0.081l-7.282,3.118l-7.477-22.149l12.131-4.05l3.908,11.705
	c0.135,0.407,0.518,0.683,0.948,0.683c0.107,0,0.214-0.017,0.316-0.051l6.052-2.022c0.406-0.135,0.683-0.518,0.683-0.948
	c0-0.107-0.017-0.214-0.051-0.316l-3.907-11.705L161.06,361.27z M438.401,365.246c0.92,0,1.937,0.569,2.969,1.703
	c1.033,1.133,2.023,2.776,2.856,4.597c1.666,3.644,2.7,8.052,2.7,10.409c0,2.768-1.449,7.748-2.929,11.894
	c-1.362,3.814-2.514,6.441-2.724,6.926l-1.74-0.016v-31.2c0-0.005,0-0.01,0-0.016c0-0.547-0.451-0.999-0.999-0.999
	c-0.005,0-0.011,0-0.016,0c-0.542,0.009-0.983,0.457-0.983,0.999c0,0.006,0,0.011,0,0.016v31.181l-1.778-0.016
	c-0.21-0.475-1.42-3.189-2.84-7.044c-1.538-4.175-3.039-9.161-3.039-11.724c0-2.357,1.034-6.766,2.7-10.409
	c0.833-1.822,1.825-3.465,2.858-4.597C436.468,365.815,437.481,365.246,438.401,365.246z M457.596,366.298
	c0.404-0.008,0.776,0.053,1.112,0.188c0.854,0.342,1.585,1.246,2.122,2.682c0.537,1.436,0.848,3.329,0.944,5.33
	c0.193,4.001-0.487,8.481-1.363,10.669c-0.949,2.371-4.264,6.509-7.311,9.879c-2.904,3.211-5.313,5.546-5.556,5.784l-1.338-0.014
	l11.707-29.241c0.051-0.122,0.077-0.252,0.077-0.384c0-0.547-0.451-0.999-1-0.999c-0.011,0-0.023,0-0.035,0.001
	c-0.4,0.014-0.754,0.267-0.897,0.639l-11.993,29.964l-0.618-0.006c0.531-1.26,1.379-3.319,2.432-6.269
	c1.507-4.22,3.045-9.153,3.045-12.565c0-2.022-0.544-4.797-1.472-7.614c1.666-2.307,3.787-4.646,5.866-6.189
	C454.9,366.976,456.386,366.324,457.596,366.298z M418.791,366.324c1.24,0.06,2.837,0.777,4.517,2.037
	c2.145,1.608,4.316,3.968,5.967,6.218c-0.88,2.734-1.394,5.411-1.394,7.376c0,3.271,1.599,8.167,3.162,12.413
	c1.074,2.916,1.948,5.002,2.514,6.324l-1.112-0.018c-0.01-0.036-0.021-0.071-0.035-0.105l-12.151-30.358
	c-0.147-0.384-0.517-0.64-0.929-0.641c-0.001,0-0.003,0-0.004,0c-0.548,0-0.999,0.45-0.999,0.999c0,0.132,0.026,0.263,0.076,0.384
	l11.883,29.685l-1.709-0.027c-0.237-0.232-2.586-2.52-5.425-5.677c-2.977-3.312-6.221-7.387-7.174-9.767
	c-0.876-2.188-1.554-6.668-1.361-10.669c0.096-2.001,0.405-3.893,0.942-5.33c0.537-1.435,1.268-2.34,2.122-2.682
	C418.003,366.356,418.378,366.303,418.791,366.324z M394.282,400.169c-0.005,0-0.009,0-0.014,0c-0.548,0-0.999,0.451-0.999,0.999
	s0.45,0.999,0.999,0.999c0.005,0,0.009,0,0.014,0h28.017c0.005,0,0.009,0,0.014,0c0.548,0,0.999-0.45,0.999-0.999
	c0-0.547-0.45-0.999-0.999-0.999c-0.005,0-0.009,0-0.014,0H394.282z M458.312,401.37c-0.005-0.001-0.01-0.001-0.015-0.001
	c-0.547,0-0.999,0.451-0.999,1c0,0.547,0.451,0.999,0.999,0.999c0.005,0,0.01,0,0.015,0h14.923c0.005,0,0.009,0,0.014,0
	c0.548,0,0.999-0.451,0.999-0.999s-0.45-1-0.999-1c-0.005,0-0.009,0-0.014,0.001H458.312z M434.893,405.789
	c-0.004,0-0.009,0-0.014,0c-0.548,0-0.999,0.451-0.999,0.999s0.45,0.999,0.999,0.999c0.005,0,0.01,0,0.014,0h28.017
	c0.005,0,0.009,0,0.014,0c0.548,0,0.999-0.45,0.999-0.999c0-0.547-0.45-0.999-0.999-0.999c-0.005,0-0.009,0-0.014,0H434.893z
	 M188.166,422.664h21.212c0.656,0.446,5.508,3.776,8.968,7.145c1.854,1.806,3.147,3.709,3.224,4.493
	c0.039,0.393,0.04,0.459-0.411,0.716c-0.451,0.257-1.471,0.509-3.105,0.509c-0.003,0-0.005,0-0.008,0l-29.88,0.197L188.166,422.664
	L188.166,422.664z M227.759,422.672l21.546,0.177c0.312,0.212,5.388,3.669,8.866,7.097c1.793,1.768,3.013,3.629,3.064,4.37
	c0.026,0.371,0.023,0.449-0.448,0.708s-1.505,0.503-3.141,0.503c-0.002,0-0.004,0-0.005,0l-29.882,0.197L227.759,422.672
	L227.759,422.672z M378.619,424.623c-1.708,0-3.196,0.988-4.442,2.354c-1.246,1.366-2.306,3.164-3.197,5.113
	c-0.244,0.533-0.471,1.076-0.688,1.623c-1.616-2.042-3.547-4.06-5.568-5.575c-1.856-1.391-3.831-2.438-5.719-2.467
	c-0.629-0.01-1.249,0.092-1.852,0.334c-1.586,0.634-2.601,2.105-3.25,3.836c-0.648,1.732-0.964,3.794-1.067,5.935
	c-0.206,4.281,0.425,8.817,1.502,11.507c1.215,3.036,4.518,6.993,7.546,10.36c3.027,3.368,5.78,6.05,5.78,6.05
	c0.182,0.179,0.425,0.281,0.68,0.285l19.83,0.227c0.264,0.002,0.517-0.1,0.706-0.283c0,0,2.822-2.74,5.919-6.163
	c3.096-3.424,6.467-7.431,7.686-10.476c1.077-2.69,1.708-7.226,1.502-11.507c-0.103-2.14-0.419-4.203-1.067-5.935
	c-0.649-1.731-1.664-3.202-3.25-3.836c-0.588-0.236-1.195-0.347-1.809-0.356c-1.843-0.026-3.768,0.876-5.571,2.148
	c-2.009,1.418-3.921,3.373-5.542,5.428c-0.158-0.382-0.317-0.762-0.487-1.136c-0.891-1.949-1.952-3.746-3.197-5.113
	C381.818,425.61,380.328,424.623,378.619,424.623z M378.619,426.62c0.92,0,1.935,0.568,2.967,1.701s2.026,2.779,2.858,4.599
	c1.666,3.644,2.701,8.052,2.701,10.409c0,2.768-1.449,7.746-2.93,11.893c-1.362,3.814-2.514,6.443-2.724,6.927l-1.742-0.017v-31.201
	c0-0.004,0-0.009,0-0.013c0-0.548-0.45-1-0.999-1c-0.004,0-0.009,0-0.013,0.001c-0.548,0.007-0.993,0.464-0.986,1.012v31.183
	l-1.775-0.018c-0.21-0.475-1.421-3.189-2.841-7.043c-1.537-4.176-3.039-9.16-3.039-11.723c0-2.357,1.035-6.766,2.7-10.409
	c0.833-1.821,1.824-3.467,2.857-4.599S377.7,426.62,378.619,426.62z M138.574,427.574c-1.709,0-3.199,0.988-4.445,2.354
	c-1.245,1.366-2.304,3.164-3.195,5.113c-0.244,0.533-0.471,1.078-0.688,1.625c-1.616-2.043-3.547-4.061-5.568-5.577
	c-1.856-1.391-3.829-2.438-5.717-2.467c-0.629-0.01-1.249,0.094-1.852,0.336c-1.586,0.634-2.603,2.103-3.252,3.835
	c-0.648,1.731-0.964,3.795-1.067,5.936c-0.206,4.281,0.425,8.815,1.502,11.505c1.216,3.036,4.518,6.994,7.546,10.36
	c3.027,3.368,5.78,6.052,5.78,6.052c0.183,0.178,0.426,0.279,0.68,0.283l19.83,0.227c0.263,0.003,0.517-0.098,0.706-0.281
	c0,0,2.822-2.739,5.919-6.163c3.096-3.424,6.467-7.433,7.686-10.478c1.077-2.69,1.708-7.224,1.502-11.505
	c-0.103-2.14-0.418-4.205-1.067-5.936c-0.649-1.732-1.664-3.201-3.25-3.835c-0.591-0.237-1.2-0.346-1.815-0.35
	c-1.845-0.011-3.763,0.928-5.553,2.231c-1.99,1.449-3.882,3.427-5.493,5.482c-0.176-0.43-0.357-0.86-0.548-1.28
	c-0.891-1.949-1.952-3.746-3.197-5.113C141.772,428.562,140.282,427.574,138.574,427.574z M397.802,427.662
	c0.41-0.004,0.787,0.061,1.125,0.197c0.854,0.342,1.585,1.246,2.122,2.683c0.538,1.435,0.847,3.33,0.943,5.331
	c0.192,4.002-0.485,8.479-1.361,10.667c-0.95,2.371-4.267,6.51-7.314,9.879c-2.903,3.21-5.307,5.545-5.551,5.784l-1.34-0.014
	l11.705-29.239c0.051-0.122,0.077-0.253,0.077-0.385c0-0.547-0.451-0.999-0.999-0.999c-0.012,0-0.023,0.001-0.034,0.001
	c-0.4,0.014-0.754,0.267-0.898,0.64l-11.995,29.964l-0.614-0.006c0.544-1.294,1.39-3.354,2.431-6.268
	c1.507-4.22,3.045-9.153,3.045-12.565c0-2.091-0.58-4.99-1.569-7.906c1.653-2.271,3.779-4.521,5.868-5.997
	C395.05,428.292,396.571,427.672,397.802,427.662z M359.009,427.697c1.241,0.061,2.837,0.779,4.516,2.039
	c2.146,1.609,4.318,3.97,5.97,6.22c-0.881,2.734-1.395,5.41-1.395,7.374c0,3.271,1.599,8.167,3.162,12.413
	c1.075,2.917,1.949,5.002,2.515,6.324l-1.11-0.018c-0.011-0.036-0.024-0.072-0.04-0.107l-12.151-30.357
	c-0.147-0.384-0.517-0.639-0.928-0.64c-0.002,0-0.003,0-0.005,0c-0.547,0-0.999,0.45-0.999,0.999c0,0.132,0.026,0.263,0.077,0.385
	l11.884,29.686l-1.708-0.027c-0.235-0.229-2.585-2.522-5.425-5.681c-2.978-3.312-6.224-7.387-7.177-9.767
	c-0.876-2.188-1.554-6.665-1.361-10.667c0.096-2.001,0.405-3.895,0.942-5.331c0.538-1.436,1.269-2.341,2.122-2.683
	C358.221,427.729,358.596,427.677,359.009,427.697z M138.574,429.572c0.919,0,1.934,0.57,2.966,1.703
	c1.033,1.133,2.026,2.777,2.859,4.597c1.665,3.644,2.7,8.052,2.7,10.409c0,2.768-1.449,7.748-2.93,11.895
	c-1.361,3.813-2.513,6.44-2.723,6.925l-1.743-0.015v-31.203c0-0.004,0.001-0.009,0.001-0.013c0-0.548-0.451-0.999-1-0.999
	c-0.004,0-0.009,0-0.013,0c-0.548,0.007-0.993,0.464-0.986,1.012v31.183l-1.777-0.016c-0.21-0.474-1.419-3.188-2.839-7.043
	c-1.537-4.176-3.039-9.162-3.039-11.725c0-2.357,1.035-6.766,2.7-10.409c0.833-1.821,1.824-3.465,2.857-4.597
	C136.64,430.142,137.654,429.572,138.574,429.572z M157.763,430.621c0.408-0.008,0.783,0.055,1.119,0.189
	c0.853,0.342,1.584,1.249,2.122,2.685c0.537,1.435,0.846,3.329,0.942,5.33c0.193,4.001-0.485,8.48-1.361,10.668
	c-0.949,2.371-4.266,6.51-7.314,9.879c-2.903,3.21-5.307,5.543-5.551,5.782l-1.34-0.012c0,0,11.782-29.494,11.782-29.626
	c0-0.548-0.451-1-0.999-1c-0.012,0-0.023,0.001-0.034,0.001c-0.4,0.014-0.754,0.267-0.898,0.64l-11.994,29.964l-0.617-0.006
	c0.537-1.276,1.383-3.334,2.431-6.268c1.507-4.22,3.047-9.153,3.047-12.565c0-2.052-0.56-4.884-1.516-7.746
	c1.657-2.278,3.773-4.567,5.853-6.081C155.034,431.288,156.542,430.643,157.763,430.621z M118.963,430.648
	c1.24,0.061,2.837,0.779,4.516,2.039c2.146,1.609,4.318,3.97,5.97,6.221c-0.88,2.733-1.395,5.409-1.395,7.373
	c0,3.271,1.599,8.167,3.162,12.413c1.075,2.917,1.949,5.002,2.515,6.324l-1.11-0.017c-0.011-0.036-12.19-30.463-12.19-30.463
	c-0.148-0.385-0.517-0.64-0.929-0.642c-0.002,0-0.003,0-0.005,0c-0.547,0-0.999,0.45-0.999,0.999c0,0.132,11.961,30.07,11.961,30.07
	l-1.711-0.029c-0.237-0.232-2.585-2.519-5.423-5.676c-2.978-3.313-6.224-7.388-7.177-9.768c-0.876-2.188-1.553-6.667-1.361-10.668
	c0.096-2.001,0.405-3.894,0.943-5.33c0.537-1.436,1.268-2.343,2.122-2.685C118.175,430.68,118.55,430.628,118.963,430.648z
	 M398.97,459.748c-0.004,0-0.009,0-0.014,0c-0.547,0-0.999,0.45-0.999,0.999c0,0.547,0.451,0.999,0.999,0.999
	c0.005,0,0.01,0,0.014,0h30.258c0.005,0,0.01,0,0.015,0c0.547,0,0.999-0.451,0.999-0.999s-0.451-0.999-0.999-0.999
	c-0.005,0-0.01,0-0.015,0H398.97z M90.866,465.436c-0.005,0-0.009,0-0.014,0c-0.548,0-0.999,0.45-0.999,0.999
	s0.45,0.999,0.999,0.999c0.005,0,0.009,0,0.014,0h30.258c0.005,0,0.009,0,0.014,0c0.548,0,0.999-0.45,0.999-0.999
	s-0.45-0.999-0.999-0.999c-0.005,0-0.009,0-0.014,0H90.866z M393.75,465.845c-0.005,0-0.01,0-0.014,0
	c-0.548,0-0.999,0.451-0.999,0.999s0.45,0.999,0.999,0.999c0.004,0,0.009,0,0.014,0h14.923c0.005,0,0.01,0,0.014,0
	c0.548,0,1-0.45,1-0.999c0-0.547-0.451-0.999-1-0.999c-0.004,0-0.009,0-0.014,0H393.75z M332.337,466.566c-0.005,0-0.01,0-0.015,0
	c-0.547,0-0.999,0.45-0.999,0.999c0,0.548,0.451,0.999,0.999,0.999c0.005,0,0.01,0,0.015,0h30.258c0.004,0,0.009,0,0.014,0
	c0.547,0,0.999-0.45,0.999-0.999c0-0.548-0.451-0.999-0.999-0.999c-0.005,0-0.01,0-0.014,0H332.337z M103.556,469.601
	c-0.005,0-0.009,0-0.014,0c-0.548,0-0.999,0.45-0.999,0.999c0,0.548,0.45,0.999,0.999,0.999c0.005,0,0.009,0,0.014,0h14.921
	c0.005,0,0.01,0,0.015,0c0.547,0,0.999-0.45,0.999-0.999c0-0.548-0.451-0.999-0.999-0.999c-0.005,0-0.01,0-0.015,0H103.556z
	 M163.059,469.946c-0.005,0-0.009,0-0.014,0c-0.548,0-0.999,0.45-0.999,0.999c0,0.547,0.45,0.999,0.999,0.999
	c0.005,0,0.009,0,0.014,0h14.922c0.004,0,0.009,0,0.014,0c0.547,0,0.999-0.451,0.999-0.999s-0.451-0.999-0.999-0.999
	c-0.005,0-0.01,0-0.014,0H163.059z"></path>
</svg>