<svg xmlns="http://www.w3.org/2000/svg" version="1.1" xmlns:xlink="http://www.w3.org/1999/xlink" xmlns:svgjs="http://svgjs.com/svgjs" width="512" height="512" x="0" y="0" viewBox="0 0 469.333 469.333" style="enable-background:new 0 0 512 512" xml:space="preserve" class=""><g><path d="M441.823 0C347.99 0 234.667 67.375 234.667 151.042c0 19.467 7.359 37.155 21.154 52.889-13.993 35.889-20.949 77.185-21.154 124.569-3.757-9.898-8.161-19.324-12.935-28.488 8.436-12.979 12.935-27.099 12.935-42.303 0-83.667-113.323-151.042-207.156-151.042C12.344 106.667 0 119.01 0 134.177c0 93.833 67.375 207.156 151.052 207.156 20.71 0 39.477-8.126 55.939-23.74 18.658 39.378 27.676 85.846 27.676 141.073a10.66 10.66 0 0 0 10.667 10.667 10.66 10.66 0 0 0 10.667-10.667v-128c0-42.31 5.491-78.988 16.648-111.034 13.863 9.931 29.139 15.034 45.633 15.034 83.677 0 151.052-113.323 151.052-207.156C469.333 12.344 456.99 0 441.823 0zM209.139 278.326c-29.117-44.559-72.082-79.652-129.962-106.659-5.333-2.459-11.677-.157-14.177 5.156-2.49 5.333-.188 11.688 5.156 14.177 57.967 27.052 99.486 61.811 126.353 106.803-.87.956-1.529 1.966-2.467 2.905C181.24 313.51 166.771 320 151.052 320 81.187 320 21.333 217.823 21.333 134.177A6.184 6.184 0 0 1 27.51 128c83.646 0 185.823 59.854 185.823 129.708 0 7.159-1.522 14.019-4.194 20.618zm109.142-64.993c-13.479 0-25.965-5.064-37.342-14.495 22.736-49.477 61.478-86.56 118.436-114.599 5.292-2.604 7.458-9 4.865-14.281-2.625-5.281-9.021-7.448-14.281-4.865-58.068 28.592-99.043 66.928-124.301 116.921-6.29-9.63-9.658-19.97-9.658-30.973 0-69.854 102.177-129.708 185.823-129.708A6.184 6.184 0 0 1 448 27.51c0 83.646-59.854 185.823-129.719 185.823z" fill="#efdca4" data-original="#000000" class=""></path></g></svg>