<svg xmlns="http://www.w3.org/2000/svg" version="1.1" xmlns:xlink="http://www.w3.org/1999/xlink" xmlns:svgjs="http://svgjs.com/svgjs" width="512" height="512" x="0" y="0" viewBox="0 0 24 24" style="enable-background:new 0 0 512 512" xml:space="preserve" class=""><g><g data-name="Layer 2"><path d="M2.81 2.81c-1.42 1.41-1.42 6 0 7.38a5.58 5.58 0 0 0 3.69 1.06 5.58 5.58 0 0 0 3.69-1.06c1.42-1.41 1.42-6 0-7.38s-5.97-1.42-7.38 0zM2.81 13.81c-1.42 1.41-1.42 6 0 7.38a5.58 5.58 0 0 0 3.69 1.06 5.58 5.58 0 0 0 3.69-1.06c1.42-1.41 1.42-6 0-7.38s-5.97-1.42-7.38 0zM17.5 11.25a5.58 5.58 0 0 0 3.69-1.06c1.42-1.41 1.42-6 0-7.38s-6-1.42-7.38 0-1.42 6 0 7.38a5.58 5.58 0 0 0 3.69 1.06zM13.81 13.81c-1.42 1.41-1.42 6 0 7.38a5.58 5.58 0 0 0 3.69 1.06 5.58 5.58 0 0 0 3.69-1.06c1.42-1.41 1.42-6 0-7.38s-5.97-1.42-7.38 0z" fill="#3c6255" data-original="#000000" class=""></path></g></g></svg>