<svg xmlns="http://www.w3.org/2000/svg" version="1.1" xmlns:xlink="http://www.w3.org/1999/xlink" xmlns:svgjs="http://svgjs.com/svgjs" width="512" height="512" x="0" y="0" viewBox="0 0 24 24" style="enable-background:new 0 0 512 512" xml:space="preserve" class=""><g><path fill="#3c6255" fill-rule="evenodd" d="M3 7a4 4 0 1 1 8 0 4 4 0 0 1-8 0zm4-2a2 2 0 1 0 0 4 2 2 0 0 0 0-4zm6 2a4 4 0 1 1 8 0 4 4 0 0 1-8 0zm4-2a2 2 0 1 0 0 4 2 2 0 0 0 0-4zM3 17a4 4 0 1 1 8 0 4 4 0 0 1-8 0zm4-2a2 2 0 1 0 0 4 2 2 0 0 0 0-4zm6 2a4 4 0 1 1 8 0 4 4 0 0 1-8 0zm4-2a2 2 0 1 0 0 4 2 2 0 0 0 0-4z" clip-rule="evenodd" data-original="#000000" class=""></path></g></svg>