<svg xmlns="http://www.w3.org/2000/svg" version="1.1" xmlns:xlink="http://www.w3.org/1999/xlink" xmlns:svgjs="http://svgjs.com/svgjs" width="512" height="512" x="0" y="0" viewBox="0 0 24 24" style="enable-background:new 0 0 512 512" xml:space="preserve" class=""><g><g fill="#000"><path d="M7 10.75H5c-2.42 0-3.75-1.33-3.75-3.75V5c0-2.42 1.33-3.75 3.75-3.75h2c2.42 0 3.75 1.33 3.75 3.75v2c0 2.42-1.33 3.75-3.75 3.75zm-2-8c-1.58 0-2.25.67-2.25 2.25v2c0 1.58.67 2.25 2.25 2.25h2c1.58 0 2.25-.67 2.25-2.25V5c0-1.58-.67-2.25-2.25-2.25zM19 10.75h-2c-2.42 0-3.75-1.33-3.75-3.75V5c0-2.42 1.33-3.75 3.75-3.75h2c2.42 0 3.75 1.33 3.75 3.75v2c0 2.42-1.33 3.75-3.75 3.75zm-2-8c-1.58 0-2.25.67-2.25 2.25v2c0 1.58.67 2.25 2.25 2.25h2c1.58 0 2.25-.67 2.25-2.25V5c0-1.58-.67-2.25-2.25-2.25zM19 22.75h-2c-2.42 0-3.75-1.33-3.75-3.75v-2c0-2.42 1.33-3.75 3.75-3.75h2c2.42 0 3.75 1.33 3.75 3.75v2c0 2.42-1.33 3.75-3.75 3.75zm-2-8c-1.58 0-2.25.67-2.25 2.25v2c0 1.58.67 2.25 2.25 2.25h2c1.58 0 2.25-.67 2.25-2.25v-2c0-1.58-.67-2.25-2.25-2.25zM7 22.75H5c-2.42 0-3.75-1.33-3.75-3.75v-2c0-2.42 1.33-3.75 3.75-3.75h2c2.42 0 3.75 1.33 3.75 3.75v2c0 2.42-1.33 3.75-3.75 3.75zm-2-8c-1.58 0-2.25.67-2.25 2.25v2c0 1.58.67 2.25 2.25 2.25h2c1.58 0 2.25-.67 2.25-2.25v-2c0-1.58-.67-2.25-2.25-2.25z" fill="#3c6255" data-original="#000000"></path></g></g></svg>