<svg xmlns="http://www.w3.org/2000/svg" version="1.1" xmlns:xlink="http://www.w3.org/1999/xlink" xmlns:svgjs="http://svgjs.com/svgjs" width="512" height="512" x="0" y="0" viewBox="0 0 22.396 21.611" style="enable-background:new 0 0 512 512" xml:space="preserve" class=""><g><g data-name="Layer 2"><path d="M9.185 11.549C7.9 11.489 7.32 12.791 6.88 13.76a22.6 22.6 0 0 0-3.869-3.035A1.926 1.926 0 0 0 1.09 10.6 1.921 1.921 0 0 0 0 12.379c.065 2.93.32 4.819.756 5.614a3.767 3.767 0 0 0 4.6 1.712h.008a3.939 3.939 0 0 0 .446-.2 3.761 3.761 0 0 0 7.136-1.626c0-.908-.686-2.685-2.039-5.285a1.931 1.931 0 0 0-1.722-1.045zm-6.55-.259c3.163 2.341 4.912 2.94 4.371 5.753a3.053 3.053 0 0 1-1.431 1.813c-.07-1.172-.6-4.055-3.781-7.771a1.227 1.227 0 0 1 .841.205zm.555 7.849C.526 18.09.959 16.288.678 12.364a1.236 1.236 0 0 1 .46-1C4.6 15.337 4.892 18.342 4.9 19.14a3.058 3.058 0 0 1-1.71-.001zm3.188-.01a3.766 3.766 0 0 0 .964-4.753v-.007c.412-.677.649-1.953 1.615-2.116 1.121 5.144-.071 7.921-.446 8.626a3.086 3.086 0 0 1-2.133-1.75zm2.857 1.823c.5-1.06 1.429-3.84.429-8.631a1.236 1.236 0 0 1 .637.585c1.266 2.431 1.962 4.2 1.962 4.972a3.078 3.078 0 0 1-3.028 3.074zM4.763 9.29l.017.01a3.766 3.766 0 0 0 5.346-1.908c.328-.845.333-2.752.013-5.664A1.928 1.928 0 0 0 9 .174a1.919 1.919 0 0 0-2.064.309c-2.2 1.932-3.486 3.34-3.814 4.186A3.767 3.767 0 0 0 4.763 9.29zm4.729-2.145a3.079 3.079 0 0 1-3.937 1.77c.856-.806 2.723-3.062 3.526-7.89a1.231 1.231 0 0 1 .382.776c.299 2.724.311 4.621.029 5.344zm-5.738-2.23C4.036 4.194 5.324 2.8 7.383.993A1.223 1.223 0 0 1 8.445.7C7.627 5.9 5.51 8.059 4.906 8.581a3.09 3.09 0 0 1-1.152-3.666zM20.706 7.93c-.758-.5-2.619-.9-5.535-1.2a1.927 1.927 0 0 0-1.758.787l-.057.075a1.929 1.929 0 0 0-.072 2.008c1.429 2.559 2.538 4.108 3.3 4.606a3.742 3.742 0 0 0 4.845-.622l.007-.007a3.763 3.763 0 0 0-.73-5.647zm-1.439 6.154c-2.847.321-3.306-1.475-5.391-4.81a1.236 1.236 0 0 1-.061-1.1c4.915 1.889 6.582 4.408 6.966 5.109a3.076 3.076 0 0 1-1.514.801zm1.975-1.367c-.611-1-2.427-3.3-6.98-5.1a1.239 1.239 0 0 1 .84-.212c2.726.277 4.585.665 5.233 1.089a3.093 3.093 0 0 1 .907 4.223z" data-name="Layer 1" fill="#000000" data-original="#000000" class=""></path></g></g></svg>