<?xml version="1.0" standalone="no"?>
<svg version="1.1" id="Layer_1" xmlns="http://www.w3.org/2000/svg" xmlns:xlink="http://www.w3.org/1999/xlink" x="0px" y="0px" width="595.28px" height="595.28px" viewBox="0 0 595.28 595.28" enable-background="new 0 0 595.28 595.28" xml:space="preserve">
<path id="color_x5F_6" fill="#373528" d="M200.363,455.672c0.07,1.635-3.249,1.577-3.249,1.577l-14.654,0.094l0.613-6.602
	l5.534-0.16h0.004c0.941,1.581,1.932,2.552,2.944,2.494C194.015,452.936,200.254,453.157,200.363,455.672z M158.597,453.425
	c-1.085,0.062-2.146-1.056-3.147-2.844h-0.003l-5.269-0.168v0.006l-0.677,7.273l14.656-0.094c0,0,3.317,0.058,3.247-1.577
	C167.294,453.507,161.056,453.286,158.597,453.425z M176.25,253.627c-0.378,0.041-0.641,0.575-0.58,1.194
	c0.063,0.616,0.414,1.086,0.796,1.045c0.377-0.041,0.639-0.576,0.58-1.196C176.985,254.055,176.632,253.586,176.25,253.627z
	 M184.376,255.867c0.377-0.041,0.639-0.576,0.58-1.196c-0.061-0.616-0.414-1.085-0.796-1.044c-0.378,0.041-0.641,0.575-0.58,1.194
	C183.643,255.438,183.994,255.908,184.376,255.867z M165.721,248.693h-2.933c0.032,3.685,0.251,7.652,0.822,9.534
	c1.001,3.294,2.163,3.212,2.885,4.674c0,0-0.022-0.955,0.036-2.238c0.032-0.714,0.091-1.524,0.192-2.342
	c0.238-1.923,0.716-3.843,1.674-4.396c1.154-0.666,2.286,3.622,2.479,4.396c0.02,0.076,0.032,0.13,0.032,0.13s0.01-0.054,0.022-0.13
	c0.066-0.377,0.264-1.571,0.264-2.451c0-1.057,0.055-2.819,2.413-5.394c0.309-0.338,0.522-0.731,0.666-1.155h0.716
	c-0.003-0.028-0.017-0.052-0.017-0.081c0-0.213,0.087-0.406,0.226-0.547H165.721z M400.179,253.627
	c-0.381-0.041-0.735,0.428-0.795,1.044c-0.059,0.62,0.202,1.155,0.58,1.196c0.381,0.041,0.732-0.429,0.795-1.045
	C400.819,254.203,400.558,253.668,400.179,253.627z M392.269,253.627c-0.381-0.041-0.735,0.428-0.795,1.044
	c-0.059,0.62,0.202,1.155,0.58,1.196c0.381,0.041,0.732-0.429,0.795-1.045C392.909,254.203,392.647,253.668,392.269,253.627z
	 M410.709,248.693h-9.479c0.139,0.141,0.226,0.334,0.226,0.547c0,0.029-0.014,0.053-0.017,0.081h0.715
	c0.144,0.424,0.357,0.817,0.666,1.155c2.358,2.574,2.413,4.337,2.413,5.394c0,0.88,0.197,2.073,0.264,2.451
	c0.014,0.076,0.023,0.13,0.023,0.13s0.013-0.054,0.032-0.13c0.193-0.773,1.324-5.061,2.479-4.396
	c0.959,0.552,1.436,2.472,1.674,4.396c0.102,0.817,0.16,1.628,0.192,2.342c0.058,1.284,0.036,2.238,0.036,2.238
	c0.722-1.462,1.884-1.38,2.885-4.674c0.571-1.881,0.791-5.849,0.822-9.534H410.709z"></path>
<path id="color_x5F_5" fill="#FFD2BB" d="M205.629,286.455c-0.057-0.101-0.113-0.201-0.17-0.302
	C205.516,286.253,205.572,286.354,205.629,286.455z M207.472,289.833c-0.029-0.055-0.058-0.109-0.087-0.165
	C207.414,289.723,207.442,289.778,207.472,289.833z M205.459,286.153c-0.289-0.512-0.578-1.017-0.862-1.5
	C204.881,285.137,205.17,285.641,205.459,286.153z M207.472,289.833c0.272,0.513,0.539,1.02,0.8,1.521
	C208.012,290.854,207.743,290.345,207.472,289.833z M207.385,289.668c-0.575-1.08-1.166-2.165-1.756-3.213
	C206.218,287.502,206.81,288.589,207.385,289.668z M208.271,291.354c0.016,0.029,0.031,0.058,0.046,0.086l0,0
	C208.303,291.412,208.287,291.382,208.271,291.354z M187.248,250.021c0.06,0.466,0.102,0.938,0.102,1.42v6.611
	c0,5.525-0.599,10.081-5.277,10.86l0.227,7.132l0.018,0.368l-3.49,7.294l-10.92-7.548h-1.375v-13.19
	c-0.012-0.023-0.025-0.044-0.036-0.067c0,0-0.022-0.955,0.036-2.238c0.032-0.714,0.091-1.524,0.192-2.342
	c0.238-1.923,0.716-3.843,1.674-4.396c1.154-0.666,2.286,3.622,2.479,4.396c0.02,0.076,0.032,0.13,0.032,0.13s0.01-0.054,0.022-0.13
	c0.066-0.377,0.264-1.571,0.264-2.451c0-1.057,0.055-2.819,2.413-5.394c0.309-0.338,0.522-0.731,0.666-1.155h0.716
	c0.042,0.391,0.361,0.699,0.765,0.699H187.248z M175.67,254.822c0.063,0.616,0.414,1.086,0.796,1.045
	c0.377-0.041,0.639-0.576,0.58-1.196c-0.061-0.616-0.414-1.085-0.796-1.044C175.872,253.668,175.609,254.203,175.67,254.822z
	 M184.956,254.671c-0.061-0.616-0.414-1.085-0.796-1.044c-0.378,0.041-0.641,0.575-0.58,1.194c0.063,0.616,0.414,1.086,0.796,1.045
	C184.753,255.826,185.015,255.292,184.956,254.671z M235.383,288.044c-3.206,1-4.993,4.408-3.993,7.612
	c0.036,0.115,0.081,0.223,0.122,0.334c-2.915,1.105-5.742,2.607-5.742,2.607s-7.594,3.091-12.263,5.73
	c-0.751-3.157-1.488-5.508-1.488-5.508s-1.633-3.407-3.701-7.379c-1.609,0.202-3.128,0.896-4.205,2.19
	c-0.939,1.13-1.913,2.214-2.903,3.275l-0.003,0.018l-2.525,14.271l-0.001,0.005c4.267,5.967,9.252,10.151,13.813,9.468
	c5.238-0.402,19.817-12.417,24.119-20.768c0.783,0.075,1.594,0,2.391-0.249c3.205-1,4.993-4.408,3.993-7.613
	C241.995,288.832,238.588,287.044,235.383,288.044z M158.449,341.869c-0.579-1.859-1.971-3.236-3.662-3.874
	c-0.298-0.112-0.604-0.205-0.916-0.27c-0.455-0.094-0.923-0.132-1.396-0.119c-0.342-2.434-0.956-4.673-0.956-4.673
	s-1.76-11.953-3.699-14.38c1.072-1.434,2.029-2.93,2.792-4.207c1.119-1.872,1.816-3.269,1.816-3.269l5.062-10.881
	c0.037-0.096,0.069-0.185,0.106-0.278c-3.427-1.823-6.907-3.522-10.43-5.113c-2.574-1.163-5.168-2.273-7.79-3.295
	c-1.526,3.4-2.636,6.778-3.327,9.15c-1.778,5.758-2.477,12.328-1.231,17.072c-0.006,0.017-0.013,0.032-0.017,0.05
	c-0.947,4.444,5.574,18.507,12.125,23.859c-0.428,1.198-0.491,2.538-0.083,3.846c0.917,2.941,3.862,4.682,6.817,4.179
	c0.266-0.045,0.531-0.102,0.796-0.185c3.188-0.994,4.973-4.372,4.007-7.563C158.457,341.903,158.455,341.886,158.449,341.869z
	 M375.223,296.923l-0.003-0.018c-0.99-1.061-1.964-2.145-2.903-3.275c-1.077-1.294-2.595-1.989-4.205-2.19
	c-2.068,3.974-3.7,7.379-3.7,7.379s-0.737,2.352-1.488,5.508c-4.669-2.639-12.264-5.73-12.264-5.73s-2.827-1.501-5.742-2.607
	c0.042-0.111,0.087-0.219,0.123-0.334c1-3.204-0.787-6.612-3.994-7.612c-3.205-1-6.612,0.788-7.612,3.994
	c-0.999,3.205,0.788,6.614,3.993,7.613c0.798,0.249,1.607,0.324,2.391,0.249c4.303,8.351,18.882,20.365,24.119,20.768
	c4.561,0.684,9.546-3.5,13.813-9.468l-0.001-0.005L375.223,296.923z M409.897,260.663c0.058,1.284,0.036,2.238,0.036,2.238
	c-0.012,0.023-0.024,0.044-0.036,0.067v13.19h-1.375l-10.92,7.548l-3.49-7.294l0.018-0.368l0.226-7.132
	c-4.677-0.78-5.276-5.335-5.276-10.86v-6.611c0-0.482,0.042-0.954,0.103-1.42h11.492c0.402,0,0.724-0.309,0.766-0.699h0.715
	c0.144,0.424,0.357,0.817,0.666,1.155c2.358,2.574,2.413,4.337,2.413,5.394c0,0.88,0.197,2.073,0.264,2.451
	c0.014,0.076,0.023,0.13,0.023,0.13s0.013-0.054,0.032-0.13c0.193-0.773,1.324-5.061,2.479-4.396
	c0.959,0.552,1.436,2.472,1.674,4.396C409.807,259.138,409.865,259.949,409.897,260.663z M392.849,254.822
	c0.061-0.619-0.201-1.153-0.58-1.194c-0.381-0.041-0.735,0.428-0.795,1.044c-0.059,0.62,0.202,1.155,0.58,1.196
	C392.435,255.908,392.786,255.438,392.849,254.822z M399.384,254.671c-0.059,0.62,0.202,1.155,0.58,1.196
	c0.381,0.041,0.732-0.429,0.795-1.045c0.061-0.619-0.201-1.153-0.58-1.194C399.798,253.586,399.443,254.055,399.384,254.671z
	 M441.611,317.733c1.245-4.744,0.547-11.314-1.231-17.072c-0.691-2.372-1.801-5.75-3.327-9.149c-2.623,1.021-5.216,2.132-7.79,3.294
	c-3.522,1.59-7.003,3.29-10.429,5.113c0.035,0.094,0.068,0.183,0.105,0.278l5.062,10.881c0,0,0.698,1.397,1.816,3.27
	c0.763,1.277,1.72,2.773,2.793,4.206c-1.94,2.427-3.7,14.38-3.7,14.38s-0.613,2.239-0.956,4.673
	c-0.474-0.014-0.941,0.025-1.396,0.119c-0.313,0.065-0.619,0.157-0.916,0.269c-1.691,0.638-3.084,2.015-3.663,3.875
	c-0.005,0.017-0.008,0.034-0.013,0.051c-0.966,3.19,0.818,6.568,4.007,7.563c0.265,0.083,0.53,0.139,0.796,0.185
	c2.955,0.503,5.898-1.238,6.816-4.179c0.408-1.308,0.346-2.647-0.082-3.846c6.551-5.352,13.072-19.415,12.124-23.859
	C441.624,317.765,441.617,317.75,441.611,317.733z M310.668,200.245c-1.002-1.379-2.243-2.62-3.746-3.446
	c0.024-2.043,0.103-4.097-0.156-6.13c-0.261-2.045-0.95-4.939-3.096-5.877c-1.637,0.063-2.297-0.48-1.979-1.632
	c-0.154-2.973,0.047-9.587-3.155-11.093c-3.063-1.44-5.608-0.889-5.537-4.652c0.085-1.722,0.017-3.437-0.204-5.146
	c-1.258-7.675-18.154-9.971-24.344-11.587c-10.225-2.669-20.363-5.415-30.459-8.542c-7.083-2.193-20.264-8.379-27.113-3.386
	c-7.977,5.816-10.045,17.709-10.584,26.861c-0.456,7.704,1.608,9.072,8.572,11.94c5.143,2.117,10.638,3.506,15.568,6.111
	c9.207,4.865,13.036,17.807,17.797,26.479c5.82,10.601,11.757,21.142,17.447,31.813c2.244,4.209,5.4,10.745,10.753,11.546
	c5.309,0.793,10.016-1.79,10.832-7.33c1.558-10.559-7.649-19.374-7.951-29.738c-0.128-4.444,3.233-5.6,7.158-5.6
	c4.138,0,7.355-0.211,7.075,4.293c-0.165,2.654-0.226,5.32-0.097,7.977c0.423,8.67,4.597,20.235,15.515,15.156
	c2.066,7.487,7.418,14.786,15.936,10.153c9.177-4.992,3.889-15.138,1.432-22.503C317.575,217.65,315.847,207.366,310.668,200.245z"></path>
<path id="color_x5F_4" fill="#7ed321" d="M267.203,457.59c0.038,0.15,0.09,0.295,0.124,0.447H129.763
	c0.112-3.391,1.425-6.497,3.539-8.993c-1.91-1.265-3.857-2.467-5.866-3.568c-2.993,1.883-10.435,5.108-20.79-0.458
	c-8.959-4.813-12.847-12.275-22.939-14.079c-10.092-1.802-20.294-8.648-17.199-14.973c3.096-6.325,12.577-2.206,22.309,2.474
	s7.753,2.31,23.318,5.749c10.617,2.343,14.545,10.892,15.973,16.092c-4.639-2.206-9.343-4.261-14.092-6.205
	c-0.02-0.042-0.03-0.089-0.065-0.136c-1.47-1.945-2.84-3.987-4.759-5.528c-0.566-0.451-1.311,0.39-0.746,0.844
	c1.426,1.144,2.53,2.568,3.607,4.018c-10.048-4.027-20.311-7.527-30.685-10.636c-0.69-0.206-0.897,0.897-0.207,1.104
	c8.758,2.626,17.437,5.539,25.971,8.811c-3.549,0.405-7.128,0.512-10.626,1.313c-0.708,0.159-0.336,1.223,0.363,1.063
	c3.605-0.828,7.317-0.868,10.976-1.327c0.337-0.042,0.494-0.318,0.492-0.583c6.811,2.643,13.532,5.508,20.12,8.675
	c0.174,0.793,0.28,1.443,0.344,1.913c2.104,1.163,4.147,2.42,6.147,3.752c1.85-1.624,4.098-2.861,6.602-3.563
	c-9.461-8.374-15.389-19.504-22.796-29.573c-0.095,0.232-0.155,0.36-0.155,0.36s-1.221,0.266-3.184,0.405
	c-5.717-6.325-11.139-12.9-16.34-19.648c0.3-0.085,0.554-0.351,0.488-0.745c-0.692-4.241-1.873-8.408-2.137-12.715
	c-0.05-0.834-1.362-0.901-1.31-0.057c0.256,4.178,1.318,8.215,2.037,12.324c-6.475-8.472-12.596-17.218-18.424-26.153
	c-0.456-0.701-1.625-0.107-1.166,0.599c6.9,10.577,14.199,20.906,22.021,30.821c-1.983-0.729-3.938-1.493-5.686-2.713
	c-0.697-0.482-1.391,0.628-0.699,1.111c2.358,1.642,5.09,2.501,7.756,3.502c0.061,0.024,0.113,0.021,0.17,0.027
	c3.742,4.672,7.59,9.262,11.591,13.722c-6.291,0.117-17.149-1.457-23.271-12.559c-8.978-16.283-5.679-14.853-14.122-24.198
	c-8.442-9.343-16.179-18.593-10.122-24.143c6.054-5.55,17.077,3.609,22.422,14.306c5.346,10.695,14.979,12.587,23.317,21.019
	c8.826,8.929,8.604,17.548,7.643,21.993c7.775,10.302,13.795,21.917,23.513,30.588c-0.751-1.914-1.291-3.911-1.823-5.898
	c-0.436-1.646-0.778-3.723-1.461-5.547c-0.465,0.374-0.744,0.572-0.744,0.572s-13.108-3.807-13.993-21.866
	c-0.581-11.847,4.538-20.22,0.268-31.392c-4.271-11.171-3.571-25.479,4.612-26.195c8.184-0.71,9.772,11.242,10.951,23.78
	c1.178,12.54,2.357,9.14,8.287,26.758c0.729,2.166,1.122,4.234,1.258,6.199c-2.218,3.285-3.784,7.933-3.879,14.527
	c-1.25,1.976-2.625,3.627-3.854,4.916c-0.583-5.962-1.362-11.901-2.278-17.816c0.036-0.047,0.073-0.082,0.098-0.143
	c1.062-2.644,2.276-5.232,2.662-8.086c0.108-0.836-1.18-1.074-1.294-0.235c-0.285,2.113-1.041,4.073-1.842,6.025
	c-2.02-12.466-4.699-24.827-7.831-37.061c-0.214-0.818-1.439-0.355-1.229,0.454c2.645,10.333,4.951,20.756,6.82,31.255
	c-2.54-3.303-4.801-6.82-7.707-9.831c-0.584-0.609-1.421,0.4-0.843,1.003c2.999,3.104,5.27,6.791,7.929,10.167
	c0.246,0.314,0.615,0.303,0.883,0.143c1.432,8.269,2.596,16.586,3.393,24.948c0.597,1.369,0.977,2.871,1.343,4.214
	c0.932,3.433,1.689,6.997,3.308,10.186c0.081-0.001,0.159-0.011,0.24-0.011c0.5,0,0.988,0.03,1.475,0.07
	c-0.939-2.385-1.475-4.944-1.475-7.631c0-1.621,0.19-3.199,0.545-4.722c0.903,10.479,3.23,19.559,3.23,19.559h0.027h0.007v0.006
	l-0.677,7.273l14.656-0.094c0,0,3.317,0.058,3.247-1.577c-0.11-2.515-6.349-2.736-8.808-2.597c-1.085,0.062-2.146-1.056-3.147-2.844
	l5.888,0.182c0,0,2.544-17.445,5.546-37.297c1.201-0.17,2.432-0.258,3.685-0.258c2.839,0,5.552,0.474,8.082,1.305
	c-0.511,2.687-0.722,5.829-0.502,9.519c0.742,12.327,4.177,26.731,4.177,26.731l0.749-0.021l-0.613,6.602l14.654-0.094
	c0,0,3.319,0.058,3.249-1.577c-0.109-2.515-6.349-2.736-8.808-2.597c-1.013,0.058-2.003-0.913-2.944-2.494l5.606-0.168
	c0,0,0.359-7.257,0.812-17.499c2.871-5.248,8.738-8.856,15.531-8.856c9.614,0,17.411,7.208,17.411,16.097
	c0,1.297-0.182,2.553-0.494,3.76c1.106-0.744,2.284-1.402,3.515-1.977C237.881,451.613,250.724,455.958,267.203,457.59z
	 M528.773,415.965c3.095,6.325-7.107,13.171-17.2,14.973c-7.092,1.268-11.124,5.329-16.001,9.302
	c7.865,3.235,13.773,9.798,15.602,17.769h-45.658c0,0.009,0.002,0.018,0.002,0.027H327.952c0.399-1.741,1.022-3.403,1.812-4.979
	c8.404-2.882,15.188-7.172,19.475-13.413c0.772-0.102,1.554-0.177,2.347-0.213c0.42-0.02,0.84-0.031,1.266-0.031
	c1.288,0,2.549,0.099,3.783,0.272c4.131,0.575,7.934,2.067,11.17,4.242c-0.313-1.207-0.496-2.463-0.496-3.76
	c0-7.719,5.884-14.163,13.727-15.728c0.287,6.848,0.565,13.022,0.78,17.636c0.484,0.005,0.962,0.029,1.436,0.068
	c-1.006-2.554-1.578-5.294-1.578-8.17c0-3.52,0.828-6.859,2.304-9.869c2.634-5.375,7.35-9.689,13.2-12.063
	c3.185-1.293,6.701-2.016,10.403-2.016c0.487,0,0.97,0.016,1.45,0.041c4.374,0.224,8.454,1.452,11.982,3.438
	c3.611,2.032,6.639,4.857,8.807,8.215c-0.146-3.213-0.658-5.935-1.427-8.244c6.579,0.928,12.282,4.308,15.995,9.096
	c1.151-0.363,2.352-0.626,3.592-0.775c-2.774-4.915-4.564-11.565-1.892-19.503c5.931-17.619,7.109-14.219,8.287-26.758
	c1.18-12.539,2.769-24.491,10.952-23.78c8.184,0.715,8.883,15.023,4.612,26.195c-4.271,11.172,0.848,19.544,0.268,31.392
	c-0.42,8.571-3.594,13.928-6.813,17.195c0.388,0.349,0.755,0.716,1.109,1.096c3.754-5.348,7.249-10.912,11.194-16.14
	c-0.962-4.445-1.184-13.064,7.643-21.993c8.338-8.431,17.972-10.323,23.317-21.019c5.345-10.697,16.368-19.856,22.422-14.306
	c6.057,5.549-1.68,14.799-10.123,24.143c-8.442,9.345-5.144,7.915-14.121,24.198c-6.123,11.102-16.98,12.676-23.271,12.559
	c4.001-4.46,7.849-9.05,11.59-13.722c0.057-0.006,0.109-0.003,0.17-0.027c2.667-1.001,5.398-1.86,7.756-3.502
	c0.692-0.482-0.001-1.593-0.698-1.111c-1.747,1.22-3.702,1.984-5.686,2.713c7.822-9.915,15.121-20.244,22.021-30.821
	c0.46-0.707-0.709-1.3-1.165-0.599c-5.828,8.935-11.949,17.681-18.424,26.153c0.719-4.108,1.781-8.146,2.037-12.324
	c0.053-0.845-1.26-0.777-1.31,0.057c-0.264,4.307-1.444,8.474-2.137,12.715c-0.065,0.395,0.189,0.66,0.488,0.745
	c-5.201,6.748-10.623,13.323-16.34,19.648c-1.963-0.139-3.184-0.405-3.184-0.405s-0.061-0.127-0.155-0.36
	c-3.663,4.98-6.965,10.219-10.508,15.259c1.357,1.927,2.3,4.12,2.734,6.477c2.197-4.723,6.397-10.005,14.392-11.77
	c15.566-3.439,13.588-1.069,23.319-5.749S525.677,409.641,528.773,415.965z M452.081,401.879c0.385,2.854,1.601,5.442,2.662,8.086
	c0.024,0.061,0.062,0.096,0.098,0.143c-0.604,3.904-1.142,7.819-1.61,11.744c0.434,0.062,0.865,0.129,1.289,0.218
	c0.724-6.115,1.626-12.205,2.676-18.269c0.268,0.161,0.637,0.172,0.882-0.143c2.66-3.376,4.931-7.063,7.93-10.167
	c0.578-0.603-0.26-1.612-0.843-1.003c-2.906,3.011-5.167,6.527-7.708,9.831c1.87-10.499,4.177-20.921,6.821-31.255
	c0.21-0.809-1.017-1.272-1.229-0.454c-3.132,12.233-5.813,24.594-7.831,37.061c-0.802-1.952-1.557-3.912-1.843-6.025
	C453.261,400.805,451.973,401.043,452.081,401.879z M513.913,422.637c-10.374,3.108-20.637,6.608-30.686,10.636
	c1.078-1.45,2.182-2.874,3.609-4.018c0.563-0.454-0.182-1.295-0.747-0.844c-1.919,1.541-3.289,3.583-4.759,5.528
	c-0.035,0.046-0.046,0.093-0.066,0.136c-4.122,1.688-8.202,3.48-12.245,5.361c-0.017,0.43-0.048,0.856-0.1,1.278
	c5.917-2.777,11.933-5.332,18.024-7.696c-0.002,0.265,0.154,0.542,0.492,0.583c3.658,0.459,7.37,0.5,10.976,1.327
	c0.699,0.16,1.071-0.904,0.363-1.063c-3.498-0.802-7.077-0.909-10.626-1.313c8.534-3.271,17.213-6.184,25.971-8.811
	C514.81,423.534,514.604,422.432,513.913,422.637z M353.59,191.22c0.494,0,0.892-0.398,0.892-0.889v-7.949
	c0-0.492-0.397-0.892-0.892-0.892c-0.492,0-0.891,0.399-0.891,0.892v7.949C352.699,190.822,353.098,191.22,353.59,191.22z
	 M353.59,215.055c0.494,0,0.892-0.399,0.892-0.891v-7.947c0-0.494-0.397-0.892-0.892-0.892c-0.492,0-0.891,0.398-0.891,0.892v7.947
	C352.699,214.656,353.098,215.055,353.59,215.055z M337.7,199.165h7.946c0.493,0,0.893-0.399,0.893-0.893
	c0-0.492-0.399-0.891-0.893-0.891H337.7c-0.493,0-0.893,0.398-0.893,0.891C336.808,198.766,337.207,199.165,337.7,199.165z
	 M360.642,198.272c0,0.493,0.4,0.893,0.893,0.893h7.946c0.493,0,0.892-0.399,0.892-0.893c0-0.492-0.398-0.891-0.892-0.891h-7.946
	C361.042,197.382,360.642,197.78,360.642,198.272z M347.343,193.287c0.349,0.348,0.914,0.348,1.263,0
	c0.347-0.349,0.347-0.913-0.002-1.262l-5.618-5.619c-0.35-0.349-0.914-0.349-1.262,0c-0.348,0.349-0.348,0.913,0,1.261
	L347.343,193.287z M364.195,210.14c0.35,0.348,0.914,0.348,1.261,0c0.349-0.349,0.349-0.913,0-1.262l-5.619-5.619
	c-0.348-0.348-0.912-0.348-1.26,0c-0.349,0.349-0.349,0.913,0,1.261L364.195,210.14z M347.343,203.259l-5.619,5.619
	c-0.348,0.35-0.348,0.914,0,1.262c0.348,0.348,0.912,0.348,1.262,0l5.618-5.62c0.349-0.348,0.349-0.913,0-1.261
	C348.257,202.911,347.691,202.911,347.343,203.259z M359.837,193.287l5.619-5.62c0.349-0.348,0.349-0.912,0-1.261
	c-0.347-0.349-0.911-0.349-1.261,0l-5.618,5.619c-0.349,0.349-0.349,0.913,0,1.262C358.925,193.635,359.489,193.635,359.837,193.287
	z M204.418,203.211c0.493,0,0.892-0.397,0.892-0.889v-7.948c0-0.493-0.398-0.892-0.892-0.892c-0.492,0-0.892,0.399-0.892,0.892
	v7.948C203.526,202.814,203.926,203.211,204.418,203.211z M204.418,227.047c0.493,0,0.892-0.399,0.892-0.892v-7.947
	c0-0.494-0.398-0.892-0.892-0.892c-0.492,0-0.892,0.398-0.892,0.892v7.947C203.526,226.647,203.926,227.047,204.418,227.047z
	 M188.528,211.156h7.946c0.493,0,0.893-0.399,0.893-0.893c0-0.492-0.399-0.891-0.893-0.891h-7.946c-0.493,0-0.893,0.398-0.893,0.891
	C187.636,210.757,188.035,211.156,188.528,211.156z M211.47,210.264c0,0.494,0.399,0.893,0.893,0.893h7.946
	c0.492,0,0.892-0.399,0.892-0.893c0-0.492-0.399-0.891-0.892-0.891h-7.946C211.869,209.373,211.47,209.771,211.47,210.264z
	 M198.171,205.278c0.349,0.348,0.914,0.348,1.263,0c0.347-0.349,0.347-0.912-0.002-1.261l-5.619-5.619
	c-0.349-0.35-0.913-0.35-1.261,0c-0.348,0.348-0.348,0.913,0,1.26L198.171,205.278z M215.023,222.132
	c0.35,0.347,0.914,0.347,1.261,0c0.349-0.349,0.349-0.913,0-1.263l-5.619-5.619c-0.348-0.348-0.912-0.348-1.26,0
	c-0.349,0.348-0.349,0.913,0,1.261L215.023,222.132z M198.171,215.25l-5.619,5.619c-0.348,0.35-0.348,0.914,0,1.263
	c0.348,0.347,0.912,0.347,1.261,0l5.619-5.62c0.349-0.349,0.349-0.913,0-1.261C199.085,214.902,198.52,214.902,198.171,215.25z
	 M210.665,205.278l5.619-5.62c0.349-0.348,0.349-0.912,0-1.26c-0.347-0.35-0.911-0.35-1.261,0l-5.618,5.619
	c-0.349,0.349-0.349,0.913,0,1.261C209.753,205.626,210.317,205.626,210.665,205.278z"></path>
<path id="color_x5F_3" fill="#bcf8e6" d="M204.597,284.653c1.235,2.101,2.548,4.535,3.721,6.787
	c-1.609,0.202-3.128,0.896-4.205,2.19c-0.939,1.13-1.913,2.214-2.903,3.275l-0.003,0.018l-2.525,14.271l-0.001,0.005l-2.245,12.741
	c-0.334-4.099-3.161-6.918-3.392-18.35c-0.028-1.376-0.049-2.81-0.064-4.268c0-0.001,0-0.002,0-0.003
	c-0.1-9.093-0.004-19.248-0.258-23.769c0,0,0-0.001,0-0.001c-0.035-0.496-0.056-0.951-0.07-1.348l2.351-0.042
	c2.303,0,4.382,1.239,5.843,3.219c0.162,0.152,0.324,0.311,0.485,0.48c0.105,0.111,0.216,0.236,0.329,0.373
	c0.029,0.034,0.06,0.074,0.089,0.109c0.087,0.107,0.175,0.216,0.267,0.336c0.034,0.043,0.068,0.092,0.103,0.137
	c0.091,0.12,0.182,0.243,0.276,0.374c0.035,0.05,0.072,0.104,0.107,0.155c0.097,0.136,0.193,0.274,0.292,0.421
	c0.034,0.05,0.069,0.104,0.104,0.155c0.104,0.156,0.21,0.315,0.317,0.481c0.029,0.046,0.061,0.094,0.09,0.141
	c0.115,0.18,0.232,0.363,0.351,0.553c0.022,0.037,0.046,0.075,0.069,0.112c0.128,0.205,0.256,0.415,0.387,0.629
	c0.016,0.026,0.03,0.052,0.046,0.078c0.142,0.234,0.284,0.472,0.427,0.716C204.587,284.637,204.592,284.646,204.597,284.653z
	 M182.316,276.413l-3.49,7.294l-10.92-7.548h-1.375h-1.108l2.203,23.772h20.498c0,0-0.112-21.996,0-22.898
	c0.035-0.265,0.07-0.518,0.105-0.748l-5.905,0.111L182.316,276.413z M153.739,276.159c-1.195,0-2.336,0.336-3.358,0.937
	c-0.006,0.004-0.012,0.009-0.019,0.013c-0.582,0.086-1.077,0.245-1.44,0.48c-2.28,1.455-4.716,4.89-6.702,8.36
	c-0.754,1.305-1.436,2.611-2.03,3.829c-0.008,0.015-0.015,0.03-0.022,0.045c-0.212,0.432-0.416,0.866-0.615,1.3
	c-0.033,0.072-0.069,0.148-0.102,0.219c-0.024,0.054-0.054,0.114-0.078,0.168c0.001,0,0.003,0.001,0.004,0.001
	c2.622,1.022,5.216,2.132,7.79,3.295c3.522,1.59,7.003,3.29,10.43,5.113c-0.037,0.094-0.069,0.183-0.106,0.278l-5.062,10.881
	c0,0-0.697,1.397-1.816,3.269l0.001,0.002l1.119,6.317c0,0,8.717,0.077,9.689-9.158c1.539-14.579,0.496-28.249-0.301-35.35H153.739z
	 M375.582,279.382c-0.162,0.151-0.322,0.308-0.481,0.476c-0.105,0.111-0.216,0.236-0.329,0.373c-0.029,0.034-0.06,0.074-0.089,0.109
	c-0.087,0.107-0.175,0.216-0.267,0.336c-0.034,0.044-0.07,0.093-0.104,0.139c-0.09,0.12-0.181,0.241-0.273,0.371
	c-0.038,0.053-0.078,0.111-0.116,0.166c-0.093,0.132-0.187,0.266-0.282,0.407c-0.039,0.057-0.078,0.117-0.117,0.176
	c-0.099,0.148-0.198,0.298-0.3,0.455c-0.037,0.058-0.075,0.118-0.113,0.177c-0.105,0.165-0.212,0.332-0.319,0.505
	c-0.037,0.058-0.074,0.118-0.111,0.177c-0.109,0.177-0.22,0.357-0.332,0.542c-0.037,0.062-0.074,0.124-0.111,0.186
	c-0.115,0.191-0.23,0.384-0.348,0.582c-0.033,0.057-0.066,0.114-0.1,0.171c-0.123,0.208-0.246,0.419-0.369,0.634
	c-0.029,0.05-0.058,0.1-0.086,0.15c-0.13,0.225-0.26,0.453-0.389,0.683c-0.025,0.043-0.05,0.087-0.074,0.131
	c-0.137,0.242-0.273,0.486-0.41,0.732c-0.018,0.032-0.035,0.063-0.053,0.095c-0.143,0.258-0.285,0.517-0.428,0.777
	c-0.014,0.024-0.026,0.049-0.039,0.073c-0.148,0.272-0.297,0.544-0.443,0.817c-0.008,0.014-0.015,0.027-0.021,0.041
	c-0.307,0.569-0.609,1.139-0.906,1.702c-0.004,0.009-0.01,0.018-0.014,0.026c-0.144,0.272-0.284,0.542-0.424,0.81
	c-0.007,0.014-0.014,0.027-0.021,0.041c1.61,0.202,3.128,0.896,4.205,2.19c0.939,1.13,1.913,2.214,2.903,3.275l0.003,0.018
	l2.525,14.271l0.001,0.005l2.245,12.741c0.335-4.099,3.161-6.918,3.392-18.35c0.028-1.376,0.049-2.81,0.064-4.269
	c0-0.001,0-0.001,0-0.002c0.1-9.093,0.005-19.248,0.258-23.769c0,0,0-0.001,0-0.002c0.035-0.496,0.056-0.95,0.07-1.348l-2.351-0.042
	C379.124,276.159,377.043,277.399,375.582,279.382z M408.522,276.159l-10.92,7.548l-3.49-7.294l-0.008-0.017l-5.905-0.111
	c0.036,0.23,0.07,0.483,0.105,0.748c0.112,0.903,0,22.898,0,22.898h20.498l2.204-23.772h-1.109H408.522z M436.969,291.319
	c-0.02-0.044-0.043-0.093-0.063-0.138c-0.208-0.455-0.422-0.91-0.645-1.362c-0.007-0.014-0.014-0.027-0.021-0.041
	c-0.595-1.218-1.277-2.524-2.03-3.831c-1.987-3.47-4.422-6.905-6.703-8.36c-0.362-0.235-0.858-0.394-1.44-0.48
	c-0.007-0.004-0.012-0.009-0.019-0.013c-1.021-0.601-2.163-0.937-3.358-0.937h-7.38c-0.798,7.101-1.841,20.771-0.302,35.35
	c0.973,9.235,9.688,9.158,9.688,9.158l1.121-6.317v-0.001c-1.118-1.873-1.816-3.27-1.816-3.27l-5.062-10.881
	c-0.037-0.096-0.07-0.185-0.105-0.278c3.426-1.823,6.906-3.522,10.429-5.113c2.574-1.162,5.167-2.273,7.79-3.294
	c0.002-0.001,0.004-0.001,0.005-0.002C437.03,291.449,436.997,291.381,436.969,291.319z M306.157,294.415
	c-6.781,8.209-18.935,9.367-27.144,2.586c-8.209-6.781-9.368-18.933-2.587-27.143c6.782-8.21,18.935-9.367,27.144-2.587
	S312.938,286.205,306.157,294.415z M301.002,278.558c-0.425-0.957-1.152-2.087-2.565-3.366l1.633-1.977l-2.146-1.774l-1.764,2.134
	c-2.735-1.466-5.375-1.038-7.008,0.939c-1.8,2.179-1.127,4.624,0.55,7.371c1.157,1.901,1.414,3.019,0.709,3.873
	c-0.743,0.898-2.005,0.687-3.255-0.346c-1.425-1.176-2.328-2.716-2.822-3.994l-2.828,2.085c0.426,1.182,1.515,2.763,2.928,4.043
	l-1.763,2.135l2.148,1.774l1.892-2.291c2.894,1.632,5.684,1.065,7.336-0.934c1.67-2.022,1.639-4.127-0.19-7.225
	c-1.269-2.258-1.646-3.363-1.034-4.104c0.519-0.629,1.498-0.878,2.923,0.298c1.578,1.303,2.16,2.653,2.525,3.372L301.002,278.558z"></path>
<path id="color_x5F_2" fill="#FBC02D" d="M354.306,421.932c0,7.183-1.829,12.999-5.067,17.713
	c-4.287,6.241-11.07,10.531-19.475,13.413c-11.965,4.103-27.192,5.368-43.136,5.368c-6.888,0-13.396-0.239-19.425-0.836
	c-16.479-1.632-29.322-5.977-36.211-15.651c-3.614-5.077-5.596-11.616-5.596-20.007c0-23.561,17.527-55.279,42.112-68.132
	c-6.934-5.147-11.29-11.936-11.29-17.425c0-10.307,17.068-12.442,36.009-12.442c18.941,0,32.58,2.135,32.58,12.442
	c0,5.637-4.599,12.639-11.858,17.832C337.137,367.308,354.306,398.613,354.306,421.932z"></path>
<path id="color_x5F_1" fill="#8b572a" d="M196.743,369.938c0.446,10.568-0.817,42.655-1.714,62.976
	c-0.452,10.242-0.812,17.499-0.812,17.499l-5.606,0.168h-0.004l-5.534,0.16l-0.749,0.021c0,0-3.435-14.404-4.177-26.731
	c-0.22-3.69-0.009-6.832,0.502-9.519c0.496-2.61,1.275-4.79,2.228-6.606c-0.665-7.654-3.282-37.303-5.22-48.643
	c-1.112,5.226-3.246,18.322-5.533,33.021c0,0.007,0,0.007,0,0.007c-0.483,3.114-0.979,6.296-1.463,9.487
	c-0.601,3.914-1.198,7.845-1.778,11.688c-3.002,19.852-5.546,37.297-5.546,37.297l-5.888-0.182h-0.003l-5.269-0.168h-0.007h-0.027
	c0,0-2.327-9.08-3.23-19.559c-0.185-2.145-0.312-4.347-0.345-6.543c-0.006-0.444-0.004-0.876,0.003-1.304
	c0.095-6.594,1.661-11.242,3.879-14.527c0.287-0.425,0.583-0.832,0.89-1.212c1.335-10.494,4.331-36.448,2.966-48.02
	c-0.098-0.784-0.209-1.498-0.343-2.141c-0.484-2.304-0.54-4.838-0.303-7.441c0.266-0.045,0.531-0.102,0.796-0.185
	c3.188-0.994,4.973-4.372,4.007-7.563c-0.006-0.017-0.008-0.034-0.014-0.051c-0.579-1.859-1.971-3.236-3.662-3.874
	c-0.298-0.112-0.604-0.205-0.916-0.27c-0.63-6.376-1.856-15.062-2.098-16.765c-0.007-0.035-0.007-0.07-0.014-0.098
	c-0.021-0.125-0.028-0.196-0.028-0.196s8.717,0.077,9.689-9.158c1.539-14.579,0.496-28.249-0.301-35.35h4.303l2.203,23.772h20.498
	c0,0-0.112-21.996,0-22.898c0.035-0.265,0.07-0.518,0.105-0.748l4.421-0.083c0.015,0.397,0.035,0.852,0.07,1.348
	c0,0,0,0.001,0,0.001c0.254,4.521,0.158,14.676,0.258,23.769c0,0.001,0,0.002,0,0.003c0.016,1.458,0.036,2.892,0.064,4.268
	c0.23,11.432,3.058,14.251,3.392,18.35c0.169,2.051,0.267,3.323,0.267,3.505C196.527,338.29,196.281,358.983,196.743,369.938z
	 M196.757,248.459h-5.035c0.024-0.351,0.048-0.701,0.048-1.058c0-8.56-6.939-15.499-15.5-15.499s-15.499,6.939-15.499,15.499
	c0,0.436,0.022,0.865,0.058,1.292h1.96h2.933h9.479c-0.139,0.141-0.226,0.334-0.226,0.547c0,0.029,0.014,0.053,0.017,0.081
	c0.042,0.391,0.361,0.699,0.765,0.699h11.493h9.509c0.431,0,0.781-0.35,0.781-0.78C197.538,248.809,197.188,248.459,196.757,248.459
	z M428.392,413.465c-0.841-2.526-1.985-4.563-3.303-6.196c-1.335-10.494-4.33-36.448-2.966-48.02
	c0.099-0.784,0.21-1.498,0.343-2.141c0.485-2.304,0.54-4.839,0.304-7.441c-0.266-0.045-0.531-0.102-0.796-0.185
	c-3.188-0.994-4.973-4.372-4.007-7.563c0.005-0.017,0.008-0.034,0.013-0.051c0.579-1.859,1.972-3.236,3.663-3.875
	c0.297-0.112,0.603-0.204,0.916-0.269c0.629-6.376,1.855-15.062,2.097-16.765c0.007-0.035,0.007-0.07,0.014-0.098
	c0.021-0.125,0.027-0.196,0.027-0.196s-8.716,0.077-9.688-9.158c-1.539-14.579-0.496-28.249,0.302-35.35h-4.303l-2.204,23.772
	h-20.498c0,0,0.112-21.996,0-22.898c-0.035-0.265-0.069-0.518-0.105-0.748l-4.421-0.083c-0.015,0.397-0.035,0.852-0.07,1.348
	c0,0.001,0,0.001,0,0.002c-0.253,4.521-0.158,14.676-0.258,23.769c0,0,0,0.001,0,0.002c-0.016,1.458-0.036,2.892-0.064,4.269
	c-0.23,11.432-3.057,14.251-3.392,18.35c-0.169,2.051-0.267,3.323-0.267,3.505c0.174,10.844,0.42,31.538-0.042,42.493
	c-0.388,9.188,0.517,34.643,1.349,54.489c0.287,6.848,0.565,13.022,0.78,17.636c0.484,0.005,0.962,0.029,1.436,0.068
	c-1.006-2.554-1.578-5.294-1.578-8.17c0-3.52,0.828-6.859,2.304-9.869c2.634-5.375,7.35-9.689,13.2-12.063
	c-0.448-1.541-0.993-2.92-1.624-4.124c0.56-6.447,2.505-28.495,4.262-42.067c0.329-2.542,0.652-4.787,0.958-6.576
	c1.112,5.226,3.246,18.322,5.533,33.021c0,0.007,0,0.007,0,0.007c0.483,3.114,0.979,6.296,1.463,9.487
	c0.424,2.763,0.846,5.534,1.262,8.277c4.374,0.224,8.454,1.452,11.982,3.438c3.611,2.032,6.639,4.857,8.807,8.215
	C429.672,418.495,429.16,415.773,428.392,413.465z M389.182,250.021h11.492c0.402,0,0.724-0.309,0.766-0.699
	c0.003-0.028,0.017-0.052,0.017-0.081c0-0.213-0.087-0.406-0.226-0.547h9.479h2.932h1.96c0.035-0.427,0.058-0.856,0.058-1.292
	c0-8.56-6.938-15.499-15.499-15.499s-15.5,6.939-15.5,15.499c0,0.357,0.022,0.708,0.048,1.058h-5.035c-0.431,0-0.78,0.35-0.78,0.781
	c0,0.431,0.35,0.78,0.78,0.78H389.182z M310.07,297.647c-8.567,10.371-23.918,11.833-34.289,3.267
	c-10.371-8.566-11.834-23.917-3.268-34.289c8.567-10.372,23.918-11.834,34.289-3.268
	C317.174,271.924,318.637,287.276,310.07,297.647z M303.57,267.271c-8.209-6.78-20.361-5.623-27.144,2.587
	c-6.781,8.21-5.622,20.362,2.587,27.143c8.209,6.78,20.362,5.623,27.144-2.586C312.938,286.205,311.779,274.052,303.57,267.271z
	 M298.437,275.191l1.633-1.977l-2.146-1.774l-1.764,2.134c-2.735-1.466-5.375-1.038-7.008,0.939c-1.8,2.179-1.127,4.624,0.55,7.371
	c1.157,1.901,1.414,3.019,0.709,3.873c-0.743,0.898-2.005,0.687-3.255-0.346c-1.425-1.176-2.328-2.716-2.822-3.994l-2.828,2.085
	c0.426,1.182,1.515,2.763,2.928,4.043l-1.763,2.135l2.148,1.774l1.892-2.291c2.894,1.632,5.684,1.065,7.336-0.934
	c1.67-2.022,1.639-4.127-0.19-7.225c-1.269-2.258-1.646-3.363-1.034-4.104c0.519-0.629,1.498-0.878,2.923,0.298
	c1.578,1.303,2.16,2.653,2.525,3.372l2.732-2.014C300.577,277.601,299.85,276.471,298.437,275.191z"></path>
</svg>